<?xml version="1.0" encoding="UTF-8"?>
<svg id="Capa_2" data-name="Capa 2" xmlns="http://www.w3.org/2000/svg" viewBox="0 0 76.72 76.62">
  <defs>
    <style>
      .cls-1 {
        fill: #dfc0ff;
      }

      .cls-2 {
        fill: #7025be;
      }

      .cls-3 {
        fill: #b683ec;
      }
    </style>
  </defs>
  <g id="Capa_5" data-name="Capa 5">
    <g id="bank_icon" data-name="bank icon">
      <g>
        <path class="cls-3" d="m40.12,19.6c-.22-.14-.39-.32-.58-.47-.57-.44-1.46-.5-1.98-.11-.58.43-.75,1-.59,1.7.16.7.68.99,1.29,1.02.54.02,1.03.16,1.54.3,1.65.45,2.54,1.65,2.96,3.2.58,2.14-.61,4.2-2.49,5.07-.27.12-.4.24-.39.55.02.83.01,1.66,0,2.48,0,.27.07.32.35.33.58,0,1.06-.28,1.57-.45,2.39-.78,4.22-2.28,5.54-4.4.83-1.33,1.23-2.79,1.42-4.35.32-2.58-.28-4.91-1.72-7-1.71-2.48-4.06-4.05-7.16-4.51,0,.9.02,1.77-.01,2.64-.02.38.14.52.45.63.62.22,1.12.64,1.61,1.04.67.54.77,1.52.29,2.16-.44.6-1.32.65-2.1.17Z"/>
        <path class="cls-1" d="m58.39,55.63c1.59-.02,3.17-.03,4.76,0,.53.01.64-.16.64-.66-.02-5.84-.02-11.69,0-17.53,0-.48-.13-.64-.62-.63-1.56.02-3.13.04-4.69,0-.59-.02-.67.21-.66.71.02,2.88,0,5.75.01,8.63,0,2.97.01,5.93-.01,8.9,0,.46.11.59.57.58Z"/>
        <path class="cls-1" d="m35.98,13.12c-2.84.68-5,2.24-6.54,4.75-1.59,2.59-1.94,5.31-1.21,8.19.62,2.44,2.04,4.37,4.04,5.84,1.22.89,2.62,1.44,4.1,1.75.36.08.48-.02.46-.4-.03-.78-.02-1.56,0-2.35,0-.35-.12-.48-.45-.64-.86-.42-1.63-1-2.21-1.78-.54-.72-.44-1.49.22-2.07.62-.54,1.24-.48,1.93.15.4.37.72.82,1.27,1.02.62.22,1.28.28,1.75-.17.44-.41.69-.99.42-1.69-.28-.73-.82-.92-1.51-.93-.87,0-1.65-.33-2.34-.81-1.47-1.02-2.16-2.46-1.97-4.24.17-1.61,1.04-2.78,2.49-3.5.22-.11.41-.18.4-.47,0-.92,0-1.83,0-2.79-.33.05-.6.07-.86.13Z"/>
        <path class="cls-3" d="m66.84,31.28c.02-.44-.14-.55-.55-.55-3.66.01-7.31.02-10.97,0-.45,0-.55.16-.53.56.03.64.04,1.29,0,1.93-.03.47.13.58.58.57,1.79-.02,3.59,0,5.38,0,1.82,0,3.63-.02,5.45.01.53,0,.68-.15.64-.66-.04-.62-.03-1.24,0-1.86Z"/>
        <path class="cls-3" d="m66.26,58.65c-1.79.02-3.59,0-5.38,0-1.84,0-3.68.01-5.52-.01-.45,0-.61.11-.58.57.03.64.03,1.29,0,1.93-.02.42.12.56.54.56,3.68-.01,7.36,0,11.03,0,.36,0,.49-.1.48-.47-.02-.67-.03-1.33,0-2,.03-.45-.12-.59-.57-.59Z"/>
        <path class="cls-3" d="m52.57,24.8c-.12,0-.23.01-.35,0-.29-.03-.42.05-.49.38-.17.86-.42,1.72-.66,2.66h1c5.34,0,10.68,0,16.03,0,1.66,0,3.32-.03,4.97.01.57.01.71-.18.68-.71-.04-.55-.05-1.11,0-1.66.06-.6-.17-.71-.73-.71-6.82.02-13.63.01-20.45.01Z"/>
        <path class="cls-1" d="m52.63,55.93c.46-.29.94-.35,1.44-.3.63.07.75-.17.75-.77-.02-5.59-.01-11.19-.01-16.78,0-1.21,0-1.2-1.19-1.27-1.07-.06-1.77-.6-1.72-1.77.04-.83.01-1.66,0-2.49,0-1.84,0-1.83-1.82-1.82-.35,0-.55.1-.78.4-1.86,2.56-4.3,4.32-7.36,5.15-2.69.73-5.33.68-7.99-.27-2.37-.84-4.42-2.13-5.88-4.12-.75-1.02-1.51-1.24-2.61-1.18-.44.03-.53.17-.53.56.02,1.1-.03,2.21.02,3.31.06,1.44-.74,2.3-2.2,2.23-.86-.04-.85,0-.85.9,0,5.71.02,11.42-.02,17.13,0,.67.2.82.8.77,1.5-.12,2.31.73,2.26,2.3-.03,1.04.02,2.07-.02,3.11-.02.5.09.72.63.68.55-.04,1.11-.04,1.66,0,.54.05.65-.16.64-.66-.02-3.41,0-6.81,0-10.22,0-1.42.16-2.81.68-4.15.71-1.84,1.81-3.42,3.33-4.62,1.98-1.57,4.29-2.32,6.87-2.21,2.29.1,4.36.79,6.13,2.2,2.65,2.12,3.92,4.97,3.99,8.36.03,1.7,0,3.41,0,5.11,0,1.86.01,3.73,0,5.59,0,.43.08.63.56.59.62-.04,1.24-.04,1.86,0,.47.03.64-.11.63-.61-.03-1.29-.01-2.58,0-3.87,0-.56.21-.98.72-1.3Z"/>
        <path class="cls-3" d="m45.07,46.96c-1.33-2.72-4.1-4.24-6.94-4.18-2.29.05-4.18,1.03-5.62,2.83-.89,1.11-1.56,2.37-1.59,3.78-.08,3.91-.02,7.83-.04,11.74,0,.46.13.58.58.57,2.28-.02,4.56-.01,6.84-.01,2.28,0,4.56-.02,6.84.01.56,0,.69-.15.69-.69-.02-3.48-.03-6.95,0-10.43.01-1.28-.19-2.45-.76-3.63Z"/>
        <path class="cls-3" d="m73.58,70.8c-.4-.35-1.31-.12-2-.12-11.08,0-22.16,0-33.23,0h0c-11.52,0-23.03,0-34.55-.01-.65,0-.92.13-.83.82.09.68-.29,1.59.15,1.98.38.34,1.27.11,1.93.11,8.66,0,17.32,0,25.98,0,0,0,0,0,0,0h14.35c.12,0,.25,0,.37,0h3.02c8.07,0,16.14,0,24.21.02.6,0,.84-.13.76-.76-.09-.7.3-1.64-.16-2.04Z"/>
        <path class="cls-1" d="m7.12,67.65c10.41-.01,20.82-.01,31.22-.01,10.02,0,20.03,0,30.05,0,.62,0,1.46.22,1.8-.1.39-.35.08-1.2.11-1.83,0-.02,0-.05,0-.07q0-1.04-1.07-1.04c-20.22,0-40.44,0-60.65,0-.53,0-1.06.03-1.59,0-.47-.03-.59.16-.57.59.03.6.05,1.2,0,1.79-.05.57.17.68.7.68Z"/>
        <path class="cls-3" d="m9.88,61.04c-.03.49.08.67.63.67,3.59-.03,7.18-.02,10.77,0,.46,0,.67-.1.64-.6-.04-.62-.04-1.24,0-1.86.04-.51-.17-.6-.63-.6-1.77.03-3.55.01-5.32.01-1.8,0-3.59.02-5.39,0-.51,0-.76.09-.71.67.05.57.04,1.15,0,1.72Z"/>
        <path class="cls-1" d="m13.52,55.63c1.54-.02,3.09-.03,4.63,0,.56.01.75-.11.74-.71-.03-2.88-.02-5.76-.02-8.63,0-2.95,0-5.89,0-8.84,0-.46-.09-.65-.6-.64-1.59.03-3.18.02-4.77,0-.43,0-.6.1-.6.57.02,5.89.02,11.79,0,17.68,0,.48.17.56.6.56Z"/>
        <path class="cls-3" d="m24.74,27.84c.16,0,.32,0,.48,0,.32.01.44-.04.32-.43-.2-.65-.38-1.32-.43-1.99-.04-.55-.25-.63-.72-.63-6.93.01-13.86.01-20.79,0-.46,0-.67.09-.64.6.04.62.04,1.25,0,1.86-.04.51.16.6.63.6,3.57-.02,7.14,0,10.71-.01,3.48,0,6.95,0,10.43,0Z"/>
        <path class="cls-3" d="m10.46,33.8c1.82-.03,3.63-.01,5.45-.01,1.79,0,3.59-.02,5.38.01.53,0,.68-.15.64-.66-.04-.64-.03-1.29,0-1.93.02-.37-.12-.47-.48-.47-3.7,0-7.4.01-11.1,0-.37,0-.47.13-.46.48.02.67.03,1.33,0,2-.02.45.12.58.58.58Z"/>
        <path class="cls-1" d="m24.61,21.77c.37,0,.46-.15.48-.49.06-.89.24-1.77.58-2.58.87-2.13,2.16-3.95,3.88-5.51,1.67-1.51,3.6-2.5,5.74-3.01,2.6-.61,5.21-.47,7.74.51,1.91.74,3.6,1.79,5,3.32,1.44,1.57,2.6,3.27,3.17,5.34.17.64.36,1.27.47,1.92.08.46.31.5.7.5,4.4-.01,8.8,0,13.2-.01.18,0,.41.11.54-.09-1.11-.92-2.4-1.57-3.57-2.38-1.57-1.09-3.18-2.12-4.78-3.17-1.56-1.02-3.13-2.03-4.68-3.06-1.99-1.32-3.97-2.67-5.95-4-1.21-.81-2.43-1.62-3.65-2.42-1.56-1.03-3.13-2.05-4.68-3.09-.35-.24-.62-.18-.93.04-.75.52-1.49,1.05-2.26,1.54-1.7,1.1-3.42,2.17-5.11,3.29-1.92,1.27-3.8,2.59-5.71,3.86-1.65,1.1-3.34,2.15-4.99,3.25-1.6,1.05-3.18,2.13-4.77,3.2-1.46.97-2.93,1.94-4.46,2.95.16.07.2.1.24.1,4.61,0,9.21,0,13.82.01Z"/>
      </g>
      <path class="cls-2" d="m76.7,69.43c-.01-.93-.48-1.44-1.37-1.7-.48-.14-.96-.1-1.44-.07-.5.02-.69-.09-.67-.63.04-1.2,0-2.39.03-3.59.02-.9-.75-1.9-1.75-1.74-.38.06-.78-.02-1.17.02-.45.05-.54-.14-.54-.55.02-1.2.01-2.39,0-3.59,0-.7-.22-1.3-.87-1.67-.43-.25-.91-.33-1.39-.27-.62.07-.81-.12-.8-.77.03-5.64.02-11.28.02-16.93q0-1.09,1.07-1.11c1.34-.02,1.97-.65,1.97-2,0-1.13.04-2.26-.01-3.38-.03-.6.19-.72.74-.71,1.43.04,2.86.01,4.28.01,1.3,0,1.9-.58,1.9-1.88,0-1.68,0-3.36,0-5.04,0-1.34-.72-2.05-2.09-2.06-.78,0-1.57-.03-2.35.01-.57.03-1.06-.15-1.46-.49-.34-.28-.71-.5-1.06-.74-1.73-1.17-3.47-2.33-5.22-3.48-1.5-.99-3.02-1.95-4.52-2.95-2.04-1.36-4.07-2.75-6.11-4.11-1.57-1.05-3.16-2.08-4.73-3.13-1.61-1.07-3.21-2.15-4.82-3.22-1.65-1.1-3.32-2.18-4.97-3.27-.69-.45-1.37-.54-2.1-.06-1.33.89-2.67,1.74-4,2.63-1.99,1.33-3.96,2.69-5.96,4.01-1.59,1.06-3.22,2.07-4.81,3.13-2.42,1.61-4.81,3.28-7.25,4.87-3.23,2.11-6.46,4.22-9.63,6.42-.4.28-.79.41-1.28.39-.87-.03-1.76-.08-2.62.01C.64,21.9-.02,22.37,0,23.54c.04,1.86,0,3.73.01,5.6,0,1.09.51,1.6,1.59,1.6,1.5,0,2.99.02,4.49,0,.53-.01.73.11.7.69-.05,1.17-.01,2.35-.02,3.52,0,.25.05.48.14.73.39,1.03,1.23,1.21,2.17,1.14.55-.04.74.12.74.72-.03,5.71-.01,11.42-.02,17.13,0,1.09.13.94-.96.95-1.35.01-2.08.73-2.08,2.08,0,.76,0,1.52,0,2.28q0,1.7-1.71,1.72c-1.05,0-1.6.56-1.61,1.6,0,1.27-.02,2.53,0,3.8,0,.42-.12.59-.55.55-.39-.03-.78-.03-1.17,0-1.02.07-1.78.49-1.75,1.81.04,1.8,0,3.59,0,5.39,0,1.22.54,1.77,1.74,1.77,8.58,0,17.16,0,25.74,0h0s21.22,0,21.22,0h0c8.73,0,17.47,0,26.2,0,1.05,0,1.77-.67,1.79-1.73.03-1.82.02-3.64,0-5.46Zm-9.93-10.19c-.04.66-.03,1.33,0,2,.01.37-.12.47-.48.47-3.68-.01-7.36-.01-11.03,0-.42,0-.56-.13-.54-.56.04-.64.04-1.29,0-1.93-.02-.46.13-.58.58-.57,1.84.02,3.68.01,5.52.01,1.79,0,3.59.01,5.38,0,.46,0,.6.14.57.59Zm-14.93,1.86c.01.5-.16.64-.63.61-.62-.04-1.25-.04-1.86,0-.48.03-.57-.16-.56-.59.02-1.86,0-3.73,0-5.59,0-1.7.03-3.41,0-5.11-.06-3.38-1.34-6.23-3.99-8.36-1.76-1.42-3.84-2.11-6.13-2.2-2.58-.11-4.89.64-6.87,2.21-1.52,1.2-2.62,2.78-3.33,4.62-.52,1.35-.68,2.73-.68,4.15,0,3.41-.01,6.81,0,10.22,0,.5-.1.71-.64.66-.55-.05-1.11-.05-1.66,0-.54.04-.65-.17-.63-.68.04-1.03,0-2.07.02-3.11.04-1.57-.77-2.42-2.26-2.3-.6.05-.81-.1-.8-.77.03-5.71.02-11.42.02-17.13,0-.91,0-.94.85-.9,1.46.07,2.26-.78,2.2-2.23-.04-1.1,0-2.21-.02-3.31,0-.4.08-.54.53-.56,1.1-.07,1.86.16,2.61,1.18,1.46,1.99,3.52,3.28,5.88,4.12,2.66.95,5.3,1,7.99.27,3.07-.84,5.5-2.6,7.36-5.15.22-.31.42-.4.78-.4,1.81,0,1.81-.01,1.82,1.82,0,.83.03,1.66,0,2.49-.06,1.17.65,1.71,1.72,1.77,1.19.07,1.19.06,1.19,1.27,0,5.59,0,11.19.01,16.78,0,.59-.12.84-.75.77-.49-.06-.97,0-1.44.3-.51.32-.72.74-.72,1.3,0,1.29-.03,2.58,0,3.87Zm-6.08-.08c0,.54-.13.7-.69.69-2.28-.03-4.56-.01-6.84-.01-2.28,0-4.56-.01-6.84.01-.45,0-.58-.12-.58-.57.02-3.91-.04-7.83.04-11.74.03-1.41.7-2.68,1.59-3.78,1.44-1.8,3.33-2.78,5.62-2.83,2.84-.06,5.61,1.46,6.94,4.18.57,1.18.77,2.35.76,3.63-.03,3.48-.02,6.95,0,10.43Zm-8.99-45.25c0,.29-.18.36-.4.47-1.45.72-2.32,1.89-2.49,3.5-.19,1.79.49,3.23,1.97,4.24.69.48,1.47.8,2.34.81.69,0,1.22.2,1.51.93.27.7.02,1.27-.42,1.69-.47.44-1.13.39-1.75.17-.54-.2-.87-.65-1.27-1.02-.69-.63-1.31-.69-1.93-.15-.66.58-.76,1.34-.22,2.07.58.78,1.35,1.36,2.21,1.78.33.16.46.29.45.64-.02.78-.02,1.56,0,2.35.01.38-.1.48-.46.4-1.49-.31-2.89-.86-4.1-1.75-2.01-1.47-3.43-3.4-4.04-5.84-.73-2.88-.38-5.6,1.21-8.19,1.54-2.51,3.7-4.07,6.54-4.75.26-.06.53-.08.86-.13,0,.95,0,1.87,0,2.79Zm5.08,1.5c-.49-.4-.99-.82-1.61-1.04-.31-.11-.47-.26-.45-.63.04-.87.01-1.74.01-2.64,3.1.46,5.45,2.03,7.16,4.51,1.44,2.09,2.04,4.42,1.72,7-.19,1.57-.6,3.03-1.42,4.35-1.32,2.12-3.15,3.62-5.54,4.4-.51.17-.99.45-1.57.45-.28,0-.36-.06-.35-.33.01-.83.02-1.66,0-2.48,0-.31.13-.42.39-.55,1.88-.87,3.07-2.92,2.49-5.07-.42-1.55-1.3-2.75-2.96-3.2-.51-.14-1-.28-1.54-.3-.62-.02-1.13-.32-1.29-1.02-.16-.7,0-1.27.59-1.7.52-.38,1.41-.32,1.98.11.2.15.36.33.58.47.78.48,1.66.43,2.1-.17.48-.65.38-1.62-.29-2.16Zm15.91,28.87c0-2.88,0-5.75-.01-8.63,0-.5.07-.73.66-.71,1.56.05,3.13.03,4.69,0,.48,0,.62.15.62.63-.02,5.84-.02,11.69,0,17.53,0,.5-.11.68-.64.66-1.59-.04-3.17-.03-4.76,0-.46,0-.57-.13-.57-.58.02-2.97.01-5.93.01-8.9Zm8.36-12.34c-1.82-.03-3.63-.01-5.45-.01-1.79,0-3.59-.01-5.38,0-.45,0-.61-.11-.58-.57.04-.64.03-1.29,0-1.93-.02-.4.08-.56.53-.56,3.66.02,7.31.01,10.97,0,.41,0,.58.11.55.55-.04.62-.04,1.24,0,1.86.04.51-.12.67-.64.66Zm6.82-9.01c.56,0,.79.11.73.71-.05.55-.04,1.11,0,1.66.04.53-.11.72-.68.71-1.66-.04-3.32-.01-4.97-.01-5.34,0-10.68,0-16.03,0h-1c.24-.94.48-1.8.66-2.66.07-.33.2-.42.49-.38.11.01.23,0,.35,0,6.82,0,13.63,0,20.45-.01Zm-58-6.08c1.59-1.06,3.17-2.14,4.77-3.2,1.66-1.09,3.34-2.15,4.99-3.25,1.91-1.27,3.8-2.59,5.71-3.86,1.69-1.12,3.41-2.19,5.11-3.29.76-.5,1.51-1.02,2.26-1.54.31-.21.58-.28.93-.04,1.55,1.05,3.12,2.06,4.68,3.09,1.22.8,2.43,1.61,3.65,2.42,1.99,1.33,3.96,2.67,5.95,4,1.55,1.03,3.12,2.04,4.68,3.06,1.6,1.05,3.21,2.08,4.78,3.17,1.17.81,2.45,1.46,3.57,2.38-.13.2-.36.09-.54.09-4.4,0-8.8,0-13.2.01-.39,0-.62-.05-.7-.5-.11-.65-.29-1.28-.47-1.92-.56-2.07-1.73-3.77-3.17-5.34-1.4-1.53-3.09-2.58-5-3.32-2.53-.98-5.14-1.12-7.74-.51-2.14.5-4.07,1.5-5.74,3.01-1.73,1.56-3.01,3.38-3.88,5.51-.33.82-.51,1.7-.58,2.58-.02.34-.12.49-.48.49-4.61-.01-9.21-.01-13.82-.01-.04,0-.08-.03-.24-.1,1.54-1.02,3-1.98,4.46-2.95ZM3.53,27.85c-.46,0-.66-.09-.63-.6.04-.62.04-1.25,0-1.86-.04-.51.18-.6.64-.6,6.93.01,13.86.01,20.79,0,.47,0,.68.08.72.63.04.67.23,1.34.43,1.99.12.39,0,.44-.32.43-.16,0-.32,0-.48,0-3.48,0-6.95,0-10.43,0-3.57,0-7.14,0-10.71.01Zm6.28,5.37c.03-.66.02-1.33,0-2-.01-.35.09-.49.46-.48,3.7,0,7.4,0,11.1,0,.35,0,.49.1.48.47-.03.64-.04,1.29,0,1.93.04.51-.11.67-.64.66-1.79-.03-3.58-.01-5.38-.01-1.82,0-3.63-.01-5.45.01-.45,0-.6-.12-.58-.58Zm3.04,4.17c0-.47.17-.58.6-.57,1.59.02,3.18.03,4.77,0,.51-.01.6.18.6.64-.02,2.95,0,5.89,0,8.84,0,2.88-.02,5.76.02,8.63,0,.6-.18.72-.74.71-1.54-.04-3.09-.03-4.63,0-.43,0-.6-.07-.6-.56.02-5.89.02-11.79,0-17.68Zm-2.33,21.26c1.8.03,3.59,0,5.39,0,1.77,0,3.55.01,5.32-.01.46,0,.67.08.63.6-.04.62-.04,1.24,0,1.86.03.5-.17.61-.64.6-3.59-.02-7.18-.02-10.77,0-.55,0-.66-.18-.63-.67.04-.57.05-1.15,0-1.72-.06-.58.2-.68.71-.67Zm-4.17,8.33c.05-.59.03-1.2,0-1.79-.02-.44.1-.63.57-.59.53.04,1.06,0,1.59,0,20.22,0,40.44,0,60.65,0q1.08,0,1.07,1.04s0,.05,0,.07c-.04.63.28,1.48-.11,1.83-.35.31-1.18.1-1.8.1-10.02,0-20.03,0-30.05,0-10.41,0-20.82,0-31.22.01-.52,0-.75-.1-.7-.68Zm67.33,5.87c.08.63-.15.76-.76.76-8.07-.02-16.14-.02-24.21-.02h0s-3.02,0-3.02,0c-.12,0-.25,0-.37,0h-14.35s0,0,0,0c-8.66,0-17.32,0-25.98,0-.66,0-1.55.22-1.93-.11-.44-.39-.06-1.3-.15-1.98-.09-.69.18-.82.83-.82,11.52.02,23.03.01,34.55.01h0c11.08,0,22.16,0,33.23,0,.69,0,1.6-.23,2,.12.46.4.07,1.34.16,2.04Z"/>
    </g>
  </g>
</svg>