<?xml version="1.0" encoding="UTF-8"?>
<svg id="Capa_2" data-name="Capa 2" xmlns="http://www.w3.org/2000/svg" viewBox="0 0 69.4 69.55">
  <defs>
    <style>
      .cls-1 {
        fill: #dfc0ff;
      }

      .cls-2 {
        fill: #3c096c;
      }
    </style>
  </defs>
  <g id="Capa_5" data-name="Capa 5">
    <g id="boys_icon" data-name="boys icon">
      <path class="cls-1" d="m49.31,19.86c-3.66-1.26-7.47-1.69-11.34-1.09-3.21.49-6.24,1.44-8.89,3.39-1.64,1.2-2.92,1.16-4.14-.07-2.96-2.99-5.91-5.99-8.9-8.96-.8-.8-1.55-1.65-1.03-2.77.49-1.08,1.59-1.44,2.78-1.44,1.38,0,2.75.04,4.13-.02,1.29-.06,2.31-1.04,2.3-2.12,0-1.3-.87-2.14-2.32-2.15-5.15-.01-10.3-.01-15.45,0-1.38,0-1.95.56-1.97,1.93-.03,2.62,0,5.24-.01,7.86,0,2.62-.02,5.24,0,7.86.02,1.58.66,2.16,2.21,2.09,1.32-.06,1.92-.77,2.02-2.6.08-1.51.04-3.02.05-4.53,0-.45.05-.82.42-1.19,1.34-1.35,2.16-1.39,3.68.14,3.05,3.05,6.07,6.14,9.09,9.22,1.22,1.24,1.24,2.06.24,3.47-3.4,4.78-4.53,10.2-3.75,15.86.74,5.41,3.09,10.16,7.18,14.05s8.85,6.01,14.39,6.35c5.88.36,11.27-1.17,15.96-4.85,5.7-4.46,8.63-10.38,9.02-17.55.25-4.6-.83-8.94-3.24-12.88-2.93-4.81-7.12-8.18-12.42-10.01Zm-8.3,40.99c-9.99-.34-18.42-8.45-18.36-18.96.06-10.57,8.01-18.94,18.97-18.86,10.6-.17,18.95,8.33,18.89,19.17-.05,9.86-8.58,19.02-19.51,18.65Z"/>
      <path class="cls-2" d="m13.24,22.37c-.49,2.38-1.33,4.11-3.06,5.3-2.13,1.46-4.31,1.55-6.6.4C1.32,26.93.11,25.05.06,22.59-.03,17.18,0,11.76.05,6.34.08,3.51,2.53.66,5.52.36,11.05-.18,16.61,0,22.14.2c5.4.21,8.07,5.53,5.33,10.16-1.03,1.74-2.83,2.56-4.9,2.87.44,1.22,1.62,1.67,2.29,2.57.23.32.59.54.87.82,1.61,1.68,1.59,1.67,3.68.53,4.88-2.65,10.06-3.33,15.55-2.71,5.8.66,10.79,3.04,15.1,6.78,2.86,2.48,5.13,5.5,6.76,9.02,2.09,4.53,2.9,9.24,2.47,14.12-.36,4-1.56,7.82-3.6,11.33-2.56,4.41-6.09,7.88-10.53,10.33-2.09,1.16-4.35,1.99-6.69,2.62-3.21.87-6.45,1.09-9.71.74-4.04-.43-7.83-1.66-11.31-3.88-2.55-1.63-4.84-3.49-6.76-5.84-2.11-2.59-3.73-5.43-4.93-8.54-1.58-4.12-1.97-8.38-1.58-12.72.29-3.27,1.33-6.34,2.98-9.17,1.06-1.8,1.12-1.74-.33-3.18-1.13-1.12-2.21-2.28-3.59-3.7Zm-8.7-7.94c0,2.62-.02,5.24,0,7.86.02,1.58.66,2.16,2.21,2.09,1.32-.06,1.92-.77,2.02-2.6.08-1.51.04-3.02.05-4.53,0-.45.05-.82.42-1.19,1.34-1.35,2.16-1.39,3.68.14,3.05,3.05,6.07,6.14,9.09,9.22,1.22,1.24,1.24,2.06.24,3.47-3.4,4.78-4.53,10.2-3.75,15.86.74,5.41,3.09,10.16,7.18,14.05,4.09,3.89,8.85,6.01,14.39,6.35,5.88.36,11.27-1.17,15.96-4.85,5.7-4.46,8.63-10.38,9.02-17.55.25-4.6-.83-8.94-3.24-12.88-2.93-4.81-7.12-8.18-12.42-10.01-3.66-1.26-7.47-1.69-11.34-1.09-3.21.49-6.24,1.44-8.89,3.39-1.64,1.2-2.92,1.16-4.14-.07-2.96-2.99-5.91-5.99-8.9-8.96-.8-.8-1.55-1.65-1.03-2.77.49-1.08,1.59-1.44,2.78-1.44,1.38,0,2.76.04,4.13-.02,1.29-.06,2.31-1.04,2.3-2.12,0-1.3-.87-2.14-2.32-2.15-5.15-.01-10.3-.01-15.45,0-1.38,0-1.95.56-1.97,1.93-.03,2.62,0,5.24-.01,7.86Z"/>
      <path class="cls-2" d="m41.71,23.03c10.6-.17,18.95,8.33,18.89,19.17-.05,9.86-8.58,19.02-19.51,18.65-9.99-.34-18.42-8.45-18.36-18.96.06-10.57,8.01-18.94,18.97-18.86Zm-14.49,18.61c-.53,8.48,6.49,14.88,14.42,14.85,8.19-.03,14.65-6.2,14.68-15.05.03-7.55-6.9-13.96-14.09-14.27-8.18-.35-15.75,7.26-15.02,14.47Z"/>
    </g>
  </g>
</svg>