<?xml version="1.0" encoding="UTF-8"?>
<svg id="Capa_2" data-name="Capa 2" xmlns="http://www.w3.org/2000/svg" viewBox="0 0 82.42 61.03">
  <defs>
    <style>
      .cls-1 {
        fill: #dfc0ff;
      }

      .cls-2 {
        fill: #7025be;
      }

      .cls-3 {
        fill: #b683ec;
      }
    </style>
  </defs>
  <g id="Capa_5" data-name="Capa 5">
    <g id="cash_icon" data-name="cash icon">
      <g>
        <path class="cls-3" d="m66.95,37.88c-.75,0-1.28.53-1.27,1.28,0,.71.6,1.29,1.3,1.28.72,0,1.27-.55,1.27-1.28,0-.84-.45-1.29-1.3-1.28Z"/>
        <path class="cls-3" d="m25.02,17.26c16.7,0,33.39,0,50.09,0,.58,0,.76-.17.68-.71-.25-1.86-.58-3.71-.73-5.58-.05-.59-.77-1.16-1.36-1.1-1.75.17-3.48.55-5.23.74-1.84.2-3.67.53-5.51.8-2.12.31-4.23.62-6.35.92-1.56.22-3.12.43-4.68.65-.88.12-1.77.22-2.65.35-1.72.25-3.43.53-5.15.78-1.3.19-2.61.34-3.91.53-1.68.24-3.35.51-5.02.75-1.4.2-2.8.38-4.19.57-1.63.23-3.25.48-4.88.71-.94.14-1.89.26-2.83.38,0,.06.01.13.02.19h1.7Z"/>
        <path class="cls-3" d="m41.2,24.99c-7.88-.05-14.13,6.5-14.08,14.11-.11,7.91,6.46,13.84,13.27,14.15,8.84.4,15.04-6.49,15.03-14.07-.02-8.09-6.34-14.14-14.22-14.19Zm-.02,12.86c2.42-.02,4.64,1.82,5.06,4.03.5,2.66-.59,4.94-3.23,5.91-.44.16-.55.33-.53.73.02.31.01.62,0,.92-.03.68-.44,1.13-1.13,1.23-.59.09-1.11-.27-1.31-.92-.04-.13-.14-.29-.1-.4.34-1.2-.49-1.57-1.33-2.03-1.63-.88-2.35-2.37-2.51-4.15-.07-.83.49-1.43,1.2-1.46.77-.03,1.27.47,1.34,1.32.18,1.98,2.01,3.08,3.77,2.24,1.2-.58,1.5-1.67,1.34-2.83-.15-1.06-1.26-1.97-2.32-2.02-1.57-.08-2.99-.53-4.05-1.79-1.84-2.17-1.69-5.2.36-7.09.53-.49,1.14-.9,1.85-1.07.32-.08.32-.28.34-.53.02-.47-.03-.93.11-1.4.19-.65.64-.92,1.22-.97.55-.05,1.29.61,1.19,1.15-.24,1.32.52,1.73,1.52,2.27,1.5.81,2.3,2.21,2.37,4.22.06.37-.13.88-.68,1.21-.38.22-.79.23-1.14-.02-.46-.32-.69-.83-.76-1.38-.18-1.44-1.16-2.3-2.62-2.28-1.36.03-2.47,1.01-2.5,2.37-.03,1.48.93,2.74,2.52,2.72Z"/>
        <path class="cls-1" d="m78.77,19.92c-.45-.09-.89-.1-1.34-.1-24.22,0-48.44,0-72.65,0-.24,0-.48,0-.71.02-1.1.13-1.43.51-1.43,1.62,0,11.76,0,23.52,0,35.28,0,1.2.43,1.63,1.6,1.63,12.33,0,24.67,0,37,0,12.36,0,24.72,0,37.07,0,1.15,0,1.47-.32,1.47-1.46,0-8.96,0-17.92,0-26.89,0-2.94,0-5.88,0-8.82,0-.72-.28-1.13-1.02-1.29ZM28.35,54.66c-.11.72-.62,1.15-1.36,1.15-5.46,0-10.91,0-16.37,0-.91,0-1.43-.44-1.58-1.33-.27-1.63-.82-2.27-2.38-2.48-1.14-.15-1.48-.9-1.47-1.76,0-3.7,0-7.4,0-11.09,0-3.65,0-7.3,0-10.95,0-1.33.42-1.81,1.73-1.97,1.22-.15,1.97-.92,2.11-2.16.14-1.21.65-1.68,1.87-1.68,5.24,0,10.48,0,15.73,0,1.37,0,2.1.96,1.53,1.97-.28.49-.73.59-1.27.59-4.89-.01-9.77,0-14.66-.02-.51,0-.76.11-.96.63-.57,1.48-1.65,2.49-3.14,3.02-.31.11-.39.24-.38.54.02,1.02,0,2.04,0,3.06,0,5.59,0,11.19-.01,16.78,0,.45.09.7.56.86,1.45.49,2.38,1.57,2.97,2.92.19.44.43.51.85.51,4.77-.01,9.53,0,14.3,0,.31,0,.61-.02.92.07.68.22,1.1.75,1.01,1.33Zm-8.96-15.47c-.03,2.07-1.59,3.75-3.83,3.81-2.39-.08-3.85-1.68-3.91-3.87-.06-1.98,1.66-3.75,3.73-3.82,2.42-.07,4.04,1.87,4.01,3.88Zm21.89,16.62c-9.54.02-16.27-7.58-16.71-15.64-.57-10.28,7.66-17.81,16.67-17.74,9.46.07,16.69,7.41,16.72,16.73.03,9.21-7.29,16.67-16.68,16.66Zm35.94-5.4c0,1.01-.29,1.35-1.3,1.57-1.81.39-2.23.85-2.55,2.82-.09.54-.7,1-1.35,1-3.75,0-7.5,0-11.24,0-1.78,0-3.56,0-5.34,0-.67,0-1.2-.4-1.27-.96-.11-.81.18-1.24.94-1.5.28-.09.55-.1.84-.1,4.82,0,9.63,0,14.45,0,.4,0,.63-.02.81-.51.54-1.42,1.56-2.42,3.02-2.92.34-.12.44-.31.44-.68-.01-6.66,0-13.32,0-19.99,0-.32-.06-.54-.39-.65-1.52-.52-2.51-1.61-3.1-3.05-.21-.52-.49-.53-.91-.53-4.93,0-9.87,0-14.8,0-.92,0-1.38-.49-1.31-1.4.04-.55.39-.82.84-1.01.28-.11.58-.15.9-.15,5.24,0,10.48.01,15.73,0,.58,0,1.05.15,1.45.57.17.18.28.37.29.62.05,1.44.81,2.54,2.59,2.8.97.14,1.25.51,1.25,1.5,0,3.77,0,7.54,0,11.31,0,3.75,0,7.49,0,11.24Zm-10.18-7.41c-2.17-.03-3.87-1.59-3.9-3.85-.03-2.32,1.91-3.72,3.6-3.85,2.29-.17,4.3,1.97,4.07,3.88.18,1.99-1.81,3.85-3.77,3.82Z"/>
        <path class="cls-3" d="m25.2,14.25c1.93-.24,3.85-.53,5.78-.8,1.72-.25,3.44-.5,5.16-.74,1.37-.19,2.75-.34,4.11-.58,1.5-.27,3.02-.44,4.53-.66,1.92-.29,3.83-.7,5.77-.83,1.18-.08,2.31-.39,3.48-.49.89-.08,1.78-.19,2.66-.32,2.02-.3,4.02-.71,6.05-.93,1.87-.21,3.69-.67,5.57-.75.26-.01.6-.1.49-.52-.37-1.4-.73-2.8-1.12-4.19-.21-.74-.8-1.08-1.57-.95-.28.05-.55.12-.82.2-2.54.73-5.07,1.47-7.61,2.18-2,.56-4.02,1.06-6.02,1.62-3.23.91-6.45,1.89-9.68,2.78-2.21.61-4.41,1.22-6.6,1.86-3.27.95-6.57,1.81-9.86,2.72-.43.12-.86.27-1.38.44.44.27.75.02,1.05-.02Z"/>
        <path class="cls-3" d="m14.16,39.11c-.02.68.63,1.33,1.34,1.34.7,0,1.36-.63,1.37-1.33,0-.67-.6-1.23-1.35-1.23-.73,0-1.33.54-1.35,1.23Z"/>
      </g>
      <g>
        <path class="cls-2" d="m41.15,60.99c-12.29,0-24.57-.05-36.86.04C1.74,61.05,0,59.35,0,56.68c.04-6.59.01-13.18.01-19.77,0-5.03.05-10.05-.02-15.08-.03-2.23,1.1-4.17,3.74-4.51,1.57-.2,3.06-.8,4.58-1.22,1.35-.37,2.7-.73,4.04-1.13,2.63-.78,5.27-1.53,7.92-2.26,1.91-.53,3.84-.96,5.73-1.53,3.54-1.08,7.11-2.07,10.69-3.02,2.39-.63,4.78-1.25,7.15-1.96,2.88-.86,5.77-1.66,8.67-2.46,3.37-.93,6.72-1.92,10.09-2.84,1.08-.29,2.13-.67,3.24-.85,1.47-.24,3.05.46,3.74,1.74.75,1.4.96,2.97,1.31,4.48.32,1.37.28,1.39,1.68,1.23,1.56-.18,3.01-.02,4.09,1.3.5.61.85,1.32.91,2.09.16,2.04.55,4.05.72,6.08.05.55.49.42.73.45,1.16.14,2.03.71,2.67,1.66.51.75.72,1.6.72,2.47.02,11.76.02,23.52.02,35.28,0,1.97-1.1,3.51-2.8,4.06-.31.1-.6.09-.91.09-12.52,0-25.05,0-37.57,0Zm.03-2.56c12.36,0,24.72,0,37.07,0,1.15,0,1.47-.32,1.47-1.46,0-8.96,0-17.92,0-26.89,0-2.94,0-5.88,0-8.82,0-.72-.28-1.13-1.02-1.29-.45-.09-.89-.1-1.34-.1-24.22,0-48.44,0-72.65,0-.24,0-.48,0-.71.02-1.1.13-1.43.51-1.43,1.62,0,11.76,0,23.52,0,35.28,0,1.2.43,1.63,1.6,1.63,12.33,0,24.67,0,37,0ZM23.25,17.13c0,.06.01.13.02.19.57,0,1.13,0,1.7,0,16.7,0,33.39,0,50.09,0,.58,0,.76-.17.68-.71-.25-1.86-.58-3.71-.73-5.58-.05-.59-.77-1.16-1.36-1.1-1.75.17-3.48.55-5.23.74-1.84.2-3.67.53-5.51.8-2.12.31-4.23.62-6.35.92-1.56.22-3.12.43-4.68.65-.88.12-1.77.22-2.65.35-1.72.25-3.43.53-5.15.78-1.3.19-2.61.34-3.91.53-1.68.24-3.35.51-5.02.75-1.4.2-2.8.38-4.19.57-1.63.23-3.25.48-4.88.71-.94.14-1.89.26-2.83.38Zm.84-2.8c.44.27.75.02,1.05-.02,1.93-.24,3.85-.53,5.78-.8,1.72-.25,3.44-.5,5.16-.74,1.37-.19,2.75-.34,4.11-.58,1.5-.27,3.02-.44,4.53-.66,1.92-.29,3.83-.7,5.77-.83,1.18-.08,2.31-.39,3.48-.49.89-.08,1.78-.19,2.66-.32,2.02-.3,4.02-.71,6.05-.93,1.87-.21,3.69-.67,5.57-.75.26-.01.6-.1.49-.52-.37-1.4-.73-2.8-1.12-4.19-.21-.74-.8-1.08-1.57-.95-.28.05-.55.12-.82.2-2.54.73-5.07,1.47-7.61,2.18-2,.56-4.02,1.06-6.02,1.62-3.23.91-6.45,1.89-9.68,2.78-2.21.61-4.41,1.22-6.6,1.86-3.27.95-6.57,1.81-9.86,2.72-.43.12-.86.27-1.38.44Z"/>
        <path class="cls-2" d="m41.22,55.87c-9.54.02-16.27-7.58-16.71-15.64-.57-10.28,7.66-17.81,16.67-17.74,9.46.07,16.69,7.41,16.72,16.73.03,9.21-7.29,16.67-16.68,16.66Zm-14.16-16.71c-.11,7.91,6.46,13.84,13.27,14.15,8.84.4,15.04-6.49,15.03-14.07-.02-8.09-6.34-14.14-14.22-14.19-7.88-.05-14.13,6.5-14.08,14.11Z"/>
        <path class="cls-2" d="m5.14,39.2c0-3.65,0-7.3,0-10.95,0-1.33.42-1.81,1.73-1.97,1.22-.15,1.97-.92,2.11-2.16.14-1.21.65-1.68,1.87-1.68,5.24,0,10.48,0,15.73,0,1.37,0,2.1.96,1.53,1.97-.28.49-.73.59-1.27.59-4.89-.01-9.77,0-14.66-.02-.51,0-.76.11-.96.63-.57,1.48-1.65,2.49-3.14,3.02-.31.11-.39.24-.38.54.02,1.02,0,2.04,0,3.06,0,5.59,0,11.19-.01,16.78,0,.45.09.7.56.86,1.45.49,2.38,1.57,2.97,2.92.19.44.43.51.85.51,4.77-.01,9.53,0,14.3,0,.31,0,.61-.02.92.07.68.22,1.1.75,1.01,1.33-.11.72-.62,1.15-1.36,1.15-5.46,0-10.91,0-16.37,0-.91,0-1.43-.44-1.58-1.33-.27-1.63-.82-2.27-2.38-2.48-1.14-.15-1.48-.9-1.47-1.76,0-3.7,0-7.4,0-11.09Z"/>
        <path class="cls-2" d="m77.16,39.24c0,3.75,0,7.49,0,11.24,0,1.01-.29,1.35-1.3,1.57-1.81.39-2.23.85-2.55,2.82-.09.54-.7,1-1.35,1-3.75,0-7.5,0-11.24,0-1.78,0-3.56,0-5.34,0-.67,0-1.2-.4-1.27-.96-.11-.81.18-1.24.94-1.5.28-.09.55-.1.84-.1,4.82,0,9.63,0,14.45,0,.4,0,.63-.02.81-.51.54-1.42,1.56-2.42,3.02-2.92.34-.12.44-.31.44-.68-.01-6.66,0-13.32,0-19.99,0-.32-.06-.54-.39-.65-1.52-.52-2.51-1.61-3.1-3.05-.21-.52-.49-.53-.91-.53-4.93,0-9.87,0-14.8,0-.92,0-1.38-.49-1.31-1.4.04-.55.39-.82.84-1.01.28-.11.58-.15.9-.15,5.24,0,10.48.01,15.73,0,.58,0,1.05.15,1.45.57.17.18.28.37.29.62.05,1.44.81,2.54,2.59,2.8.97.14,1.25.51,1.26,1.5,0,3.77,0,7.54,0,11.31Z"/>
        <path class="cls-2" d="m70.75,39.24c.18,1.99-1.81,3.85-3.77,3.82-2.17-.03-3.87-1.59-3.9-3.85-.03-2.32,1.91-3.72,3.6-3.85,2.29-.17,4.3,1.97,4.07,3.88Zm-2.56-.02c0-.84-.45-1.29-1.3-1.28-.75,0-1.28.53-1.27,1.28,0,.71.6,1.29,1.3,1.28.72,0,1.27-.55,1.27-1.28Z"/>
        <path class="cls-2" d="m15.5,43.06c-2.39-.08-3.85-1.68-3.91-3.87-.06-1.98,1.66-3.75,3.73-3.82,2.42-.07,4.04,1.87,4.01,3.88-.03,2.07-1.59,3.75-3.83,3.81Zm-.04-5.12c-.73,0-1.33.54-1.35,1.23-.02.68.63,1.33,1.34,1.34.7,0,1.36-.63,1.37-1.33,0-.67-.6-1.23-1.35-1.23Z"/>
        <path class="cls-2" d="m46.29,35.29c.06.37-.13.88-.68,1.21-.38.22-.79.23-1.14-.02-.46-.32-.69-.83-.76-1.38-.18-1.44-1.16-2.3-2.62-2.28-1.36.03-2.47,1.01-2.5,2.37-.03,1.48.93,2.74,2.52,2.72,2.42-.02,4.64,1.82,5.06,4.03.5,2.66-.59,4.94-3.23,5.91-.44.16-.55.33-.53.73.02.31.01.62,0,.92-.03.68-.44,1.13-1.13,1.23-.59.09-1.11-.27-1.31-.92-.04-.13-.14-.29-.1-.4.34-1.2-.49-1.57-1.33-2.03-1.63-.88-2.35-2.37-2.51-4.15-.07-.83.49-1.43,1.2-1.46.77-.03,1.27.47,1.34,1.32.18,1.98,2.01,3.08,3.77,2.24,1.2-.58,1.5-1.67,1.34-2.83-.15-1.06-1.26-1.97-2.32-2.02-1.57-.08-2.99-.53-4.05-1.79-1.84-2.17-1.69-5.2.36-7.09.53-.49,1.14-.9,1.85-1.07.32-.08.32-.28.34-.53.02-.47-.03-.93.11-1.4.19-.65.64-.92,1.22-.97.55-.05,1.29.61,1.19,1.15-.24,1.32.52,1.73,1.52,2.27,1.5.81,2.3,2.21,2.37,4.22Z"/>
      </g>
    </g>
  </g>
</svg>