<?xml version="1.0" encoding="UTF-8"?>
<svg id="Capa_2" data-name="Capa 2" xmlns="http://www.w3.org/2000/svg" viewBox="0 0 39.08 39.09">
  <defs>
    <style>
      .cls-1 {
        fill: #7025be;
      }
    </style>
  </defs>
  <g id="Capa_5" data-name="Capa 5">
    <g id="close_icon" data-name="close icon">
      <g>
        <path class="cls-1" d="m39.08,19.54c0,10.82-8.69,19.51-19.52,19.56C8.58,39.14,0,29.98,0,19.57,0,8.91,8.88.02,19.54,0c10.42-.02,19.62,8.59,19.54,19.54Zm-3.78-.61c-.21-8.56-7.81-16.25-17.73-15.11-7.97.91-14.89,8.2-13.75,17.7.97,8.1,8.31,14.71,17.48,13.71,8.29-.9,14.33-8.1,14-16.29Z"/>
        <path class="cls-1" d="m16.97,19.51c-1.54-1.51-2.98-2.9-4.37-4.31-.31-.31-.62-.72-.72-1.13-.21-.85.04-1.62.87-2.03.77-.39,1.55-.34,2.21.3,1.27,1.25,2.53,2.51,3.79,3.76.24.23.48.46.85.81,1.44-1.47,2.81-2.9,4.23-4.29.33-.33.77-.64,1.21-.75.85-.21,1.61.07,2.02.89.38.77.33,1.56-.31,2.21-1.25,1.27-2.5,2.53-3.78,3.78-.24.23-.58.35-.99.59,1.68,1.68,3.1,3.07,4.48,4.49.31.32.63.71.74,1.12.23.83,0,1.58-.78,2.08-.67.43-1.68.36-2.3-.24-1.28-1.24-2.53-2.51-3.78-3.78-.24-.24-.41-.54-.7-.92-.78.78-1.41,1.39-2.03,2.01-.83.82-1.64,1.66-2.48,2.47-.92.89-2.08.95-2.85.16-.74-.77-.69-1.91.19-2.78,1.43-1.43,2.88-2.85,4.48-4.43Z"/>
      </g>
    </g>
  </g>
</svg>