<?xml version="1.0" encoding="UTF-8"?>
<svg id="Capa_2" data-name="Capa 2" xmlns="http://www.w3.org/2000/svg" viewBox="0 0 81.66 81.71">
  <defs>
    <style>
      .cls-1 {
        fill: #dfc0ff;
      }

      .cls-2 {
        fill: #7025be;
      }

      .cls-3 {
        fill: #b683ec;
      }
    </style>
  </defs>
  <g id="Capa_5" data-name="Capa 5">
    <g id="confirmacion_1" data-name="confirmacion 1">
      <path class="cls-3" d="m8.57,65.67c1.37.18,2.64-.96,2.59-2.49.05-.61-.3-1.19-.84-1.66-.25-.21-.59-.39-.76.09-.39,1.12-1,2.13-1.49,3.2-.28.6-.04.78.5.85Z"/>
      <path class="cls-3" d="m15.25,50.72c.59,0,1.22.12,1.77-.04,2.71-.8,4.6-2.7,4.66-5.84.03-1.56-.47-2.92-1.56-4.05-.33-.34-.48-.24-.66.15-1.46,3.09-2.95,6.17-4.42,9.26-.1.22-.2.51.23.52Z"/>
      <path class="cls-1" d="m38.88,42.52c-3.45-3.46-6.9-6.93-10.35-10.39-1-1.01-2.03-1.99-3.06-2.97-.12-.12-.3-.43-.45-.15-.4.72-.74,1.48-1.07,2.24-.09.22.14.4.3.56.96.95,1.91,1.9,2.87,2.85,2.21,2.2,4.43,4.39,6.64,6.59,2.36,2.35,4.74,4.7,7.07,7.09.67.68,1.45,1.26,1.91,2.14.29.55.2,1.07-.22,1.48-.43.42-.97.47-1.48.1-1.02-.75-1.81-1.76-2.73-2.63-.87-.82-1.68-1.7-2.53-2.55-.84-.84-1.68-1.68-2.52-2.53-.88-.88-1.75-1.78-2.64-2.66-1.16-1.15-2.37-2.25-3.49-3.44-1.18-1.25-2.42-2.43-3.69-3.59-.55-.51-.94-.41-1.27.27-.32.64-.57,1.3-.9,1.94-.3.6-.29,1.06.23,1.57,1.78,1.77,2.75,3.89,2.69,6.45-.05,2.04-.77,3.8-2.07,5.37-2.08,2.51-4.71,3.4-7.87,2.8-.46-.09-.68.02-.86.42-.66,1.45-1.28,2.93-2.02,4.34-.4.75-.25,1.16.39,1.63,1.35,1.01,1.98,2.42,1.92,4.09-.12,3.07-3.2,5.52-6.35,4.43-.57-.2-.78,0-.99.45-.64,1.36-1.33,2.69-1.92,4.07-.63,1.46-1.5,2.82-1.87,4.4-.14.61,0,1.03.49,1.42,1.07.87,2.2.76,3.33.23,3.74-1.74,7.46-3.51,11.2-5.25.53-.24.55-.5.31-.97-.68-1.31-1.32-2.64-1.18-3.83,0-2.82.9-4.88,2.7-6.56,2.09-1.95,4.54-2.62,7.32-2.07.69.14,1.03.66.95,1.36-.08.64-.51,1-1.24,1-.37,0-.74,0-1.11-.02-2.78-.17-5.23,1.59-5.89,4.4-.37,1.57-.14,3.01.57,4.4.25.49.57.8,1.28.47,1.4-.65,2.78-1.33,4.18-2,1.61-.77,3.23-1.53,4.86-2.25.49-.21.55-.46.36-.9-.34-.79-.62-1.6-1.21-2.26-.41-.46-.42-1-.13-1.5.29-.48.79-.56,1.3-.49.45.06.73.4.98.73.57.76,1.17,1.51,1.37,2.48.09.41.33.49.7.32.64-.31,1.28-.61,1.93-.91,3.82-1.81,7.63-3.61,11.45-5.42.61-.29.63-.5.15-.97-1.14-1.1-2.28-2.2-3.39-3.33-.37-.38-.56-.88-.41-1.42.13-.45.49-.67.92-.77.57-.13.97.2,1.36.55,1.49,1.36,2.94,2.76,4.28,4.26.21.23.36.16.57.06.55-.27,1.09-.57,1.67-.77.57-.2.62-.4.19-.82-4.52-4.5-9.03-9.01-13.53-13.53Zm-8.29,12.87c-2.4.08-4.31-1.97-4.37-4.18-.06-2.4,1.87-4.35,4.22-4.4,2.24-.05,4.39,1.95,4.33,4.26.02,2.37-1.86,4.25-4.19,4.33Z"/>
      <path class="cls-3" d="m30.52,49.38c-.76.04-1.74.64-1.67,1.78,0,.99.79,1.79,1.75,1.78.82,0,1.66-.88,1.69-1.75.03-.88-.9-1.87-1.77-1.82Z"/>
      <path class="cls-3" d="m51.57,47.73c-3.18-3.18-6.35-6.37-9.53-9.56-1.11-1.11-2.23-2.21-3.34-3.31h0s-4.92-4.91-4.92-4.91h0c-1.3-1.31-2.58-2.65-3.91-3.92-.57-.54-1.04-1.18-1.71-1.61-.61-.4-1.44-.35-1.89.14-.43.47-.37,1.33.14,1.88,1.39,1.49,2.86,2.92,4.31,4.35,1.22,1.19,2.37,2.45,3.57,3.66,1.17,1.17,2.37,2.31,3.55,3.47.83.82,1.63,1.68,2.46,2.5.88.88,1.77,1.74,2.65,2.61.83.82,1.67,1.64,2.49,2.47.87.88,1.72,1.78,2.6,2.67.83.85,1.68,1.68,2.52,2.52.88.88,1.76,1.75,2.64,2.63.51.51,1.03,1.02,1.54,1.54.46.47.97.9,1.65.84.52-.05.98-.34,1.18-.89.19-.52.02-.94-.35-1.34-1.83-1.96-3.74-3.84-5.64-5.74Z"/>
      <path class="cls-2" d="m79.25,32.59c-3.31-.26-4.53,1.29-5.75,3.73-.69,1.37-1.27,2.81-2.2,4.05-1.44,1.9-3.62,2.62-5.93,1.95-1.73-.49-3.34-1.36-5.17-1.52-1.83-.16-3.48-.04-4.57,1.72-.36.58-1.09.73-1.62.43-.54-.3-.77-.94-.5-1.57.66-1.57,1.97-2.38,3.51-2.86,2.5-.78,4.86-.13,7.19.78.79.31,1.6.62,2.46.69,1.77.14,2.54-.75,3.52-2.57.75-1.4,1.35-2.88,2.28-4.18,1.09-1.53,2.45-2.64,4.37-3.05,1.29-.28,2.51-.35,3.76.03.81.25,1.16.69,1.06,1.35-.11.66-.61,1.04-1.39,1.03-.39,0-.79,0-1.01,0Z"/>
      <path class="cls-2" d="m51.75,2.71c-.05,3.06-1.26,5.14-3.57,6.67-1.6,1.06-3.39,1.74-5.01,2.74-1.73,1.06-1.8,2.5-1.24,4.04.72,1.97,1.56,3.91,1.6,6.04.04,2.37-.76,4.41-2.81,5.82-.28.19-.38.1-.49-.14-.15-.31-.31-.61-.48-.91-.36-.65-.38-1.04.26-1.72.97-1.04,1.04-2.53.86-3.97-.21-1.74-1.07-3.27-1.5-4.94-.74-2.88.19-4.95,2.75-6.51,1.48-.91,3.05-1.63,4.56-2.47,1.76-.97,2.64-2.69,2.41-4.71-.07-.61-.13-1.27.05-1.83.15-.48.61-.9,1.26-.81.67.1,1.03.54,1.16,1.16.12.6.24,1.21.19,1.53Z"/>
      <path class="cls-2" d="m49.38,33.62c-.6,0-.89-.37-1.11-.9-.22-.53,0-.91.34-1.25.38-.37.87-.55,1.35-.73,1.79-.66,3.31-1.69,4.48-3.2.95-1.22,1.45-2.64,1.57-4.19.27-3.65,1.64-6.72,4.88-8.67,1.57-.95,3.32-1.5,5.17-1.66.83-.07,1.66-.19,2.5-.14.82.05,1.46.59,1.5,1.23.03.58-.56,1.26-1.21,1.26-.84,0-1.67.08-2.5.17-4.07.42-7.34,2.76-7.69,7.3-.21,2.74-1.13,5.25-3.1,7.25-1.63,1.65-3.62,2.73-5.8,3.48-.11.04-.24.02-.38.03Z"/>
      <path class="cls-2" d="m31.65,12c2,0,3.61,1.58,3.62,3.56,0,1.91-1.69,3.64-3.67,3.66-1.87.01-3.55-1.66-3.6-3.62-.04-1.65,1.54-3.79,3.65-3.59Zm-.97,3.6c-.01.61.4.87.91.97.47.08,1.03-.54,1.02-1.04-.02-.48-.55-1-1.01-.99-.43,0-.9.57-.91,1.07Z"/>
      <path class="cls-2" d="m67.54,22.59c2,0,3.61,1.58,3.62,3.56,0,1.91-1.69,3.64-3.67,3.66-1.87.01-3.55-1.66-3.6-3.62-.04-1.65,1.54-3.79,3.65-3.59Zm-.97,3.6c-.01.61.4.87.91.97.47.08,1.03-.54,1.02-1.04-.02-.48-.55-1-1.01-.99-.43,0-.9.57-.91,1.07Z"/>
      <path class="cls-2" d="m62.61,46.94c.64.09,1.42-.24,1.94.57.42.65.4,1.35-.28,1.65-1.23.54-2.52.69-3.83.17-.53-.21-.71-.68-.65-1.11.07-.49.25-1.01.94-1.15.61-.12,1.21-.1,1.88-.13Z"/>
      <path class="cls-2" d="m35.28,8.7c0-.39-.01-.79,0-1.18.03-.91.46-1.41,1.21-1.44.8-.04,1.39.45,1.42,1.33.03.93-.02,1.86-.28,2.77-.19.67-.73,1.02-1.31.92-.63-.11-1.04-.61-1.05-1.29,0-.37,0-.74,0-1.11Z"/>
      <path class="cls-2" d="m52.03,14.36c-.3,0-.59.01-.89,0-.74-.03-1.28-.52-1.34-1.2-.05-.61.43-1.25,1.15-1.28.95-.04,1.91-.17,2.87-.03.58.09.99.38,1.02,1.04.02.68-.23,1.12-.91,1.31-.62.17-1.26.16-1.9.15Z"/>
      <path class="cls-2" d="m50.49,24.16c-.84,0-1.59-.75-1.58-1.58,0-.93.68-1.57,1.64-1.57.92,0,1.62.67,1.62,1.54,0,.86-.78,1.61-1.67,1.61Z"/>
      <path class="cls-2" d="m40.61,2.84c0-.8.77-1.57,1.57-1.59.86-.02,1.57.74,1.58,1.67,0,.93-.62,1.53-1.58,1.53-.97,0-1.58-.62-1.57-1.61Z"/>
      <path class="cls-2" d="m34.83,51.06c.02,2.37-1.86,4.25-4.19,4.33-2.4.08-4.31-1.97-4.37-4.18-.06-2.4,1.87-4.35,4.22-4.4,2.24-.05,4.39,1.95,4.33,4.26Zm-5.96.03c0,.99.79,1.79,1.75,1.78.82,0,1.66-.88,1.69-1.75.03-.88-.9-1.87-1.77-1.82-.76.04-1.74.64-1.67,1.78Z"/>
      <circle class="cls-1" cx="31.64" cy="15.55" r="1.62"/>
      <circle class="cls-1" cx="67.52" cy="26.2" r="1.49"/>
      <path class="cls-3" d="m31.46,66.5c-.96,2.6-4.51,3.54-8.64,5.79-3.55,1.94-5.15-1.86-5.15-5.32s3.28-6.27,7.33-6.27,7.66,2.54,6.47,5.79Z"/>
      <path class="cls-2" d="m56.15,58.21c-.69-.12-1.26.25-1.9.52-1.82.78-3.59,1.67-5.39,2.49-2.86,1.31-5.7,2.66-8.55,3.99-3.21,1.51-6.42,3.01-9.63,4.52-2.14,1.01-4.28,2.03-6.41,3.05-2.79,1.33-5.59,2.65-8.37,4.02-3.13,1.54-6.25,3.11-9.48,4.42-1.55.63-3.14.73-4.69-.31-1.56-1.05-1.93-2.94-1.66-4.48.3-1.73,1.26-3.2,1.99-4.76,1.54-3.33,3.06-6.67,4.65-9.97,1.34-2.79,2.67-5.58,3.97-8.39,1.41-3.04,2.85-6.06,4.28-9.08.99-2.09,2-4.18,2.99-6.27,1.43-3.05,2.83-6.11,4.3-9.14.29-.59.51-1.22.87-1.76.55-.83.22-1.76.41-2.64.51-2.26,2.95-3.48,5.07-2.78.62.2,1.16.63,1.63,1.11,1.57,1.57,3.14,3.14,4.72,4.72.36.36.73.72,1.07,1.1.51.58.53,1.42.07,1.85-.52.47-1.29.47-1.85-.09-1.46-1.45-2.87-2.95-4.36-4.37-.57-.54-1.04-1.18-1.71-1.61-.61-.4-1.44-.35-1.89.14-.43.47-.37,1.33.14,1.88,1.39,1.49,2.86,2.92,4.31,4.35,1.22,1.19,2.37,2.45,3.57,3.66,1.17,1.17,2.37,2.31,3.55,3.47.83.82,1.63,1.68,2.46,2.5.88.88,1.77,1.74,2.65,2.61.83.82,1.67,1.64,2.49,2.47.87.88,1.72,1.78,2.6,2.67.83.85,1.68,1.68,2.52,2.52.88.88,1.76,1.75,2.64,2.63.51.51,1.03,1.02,1.54,1.54.46.47.97.9,1.65.84.52-.05.98-.34,1.18-.89.19-.52.02-.94-.35-1.34-1.83-1.96-3.74-3.84-5.64-5.74-3.18-3.18-6.35-6.37-9.53-9.56-1.51-1.51-3.04-3-4.54-4.51-.38-.38-.72-.83-.55-1.44.13-.47.44-.77.91-.87.56-.12,1.04.13,1.39.51,1.47,1.58,3.08,3.03,4.55,4.61,1.11,1.2,2.4,2.24,3.51,3.45.83.91,1.74,1.75,2.6,2.63.82.84,1.65,1.7,2.53,2.49.86.77,1.61,1.67,2.42,2.49.82.82,1.67,1.61,2.48,2.44.89.92,1.97,1.69,2.52,2.9.93,2.08-.31,4.67-2.5,5.31-.39.11-.78.04-1.21.09Zm-39.4,10.27c0-2.82.9-4.88,2.7-6.56,2.09-1.95,4.54-2.62,7.32-2.07.69.14,1.03.66.95,1.36-.08.64-.51,1-1.24,1-.37,0-.74,0-1.11-.02-2.78-.17-5.23,1.59-5.89,4.4-.37,1.57-.14,3.01.57,4.4.25.49.57.8,1.28.47,1.4-.65,2.78-1.33,4.18-2,1.61-.77,3.23-1.53,4.86-2.25.49-.21.55-.46.36-.9-.34-.79-.62-1.6-1.21-2.26-.41-.46-.42-1-.13-1.51.29-.48.79-.56,1.3-.49.45.06.73.4.98.73.57.76,1.17,1.51,1.37,2.48.09.41.33.49.7.32.64-.31,1.28-.61,1.93-.91,3.82-1.81,7.63-3.61,11.45-5.42.61-.29.63-.5.15-.97-1.14-1.1-2.28-2.2-3.39-3.33-.37-.38-.56-.88-.41-1.42.13-.45.49-.67.92-.77.57-.13.97.2,1.36.55,1.49,1.36,2.94,2.76,4.28,4.26.21.23.36.16.57.06.55-.27,1.09-.57,1.67-.77.57-.2.62-.4.19-.82-4.52-4.5-9.03-9.01-13.53-13.53-3.45-3.46-6.9-6.93-10.35-10.39-1-1.01-2.03-1.99-3.06-2.97-.12-.12-.3-.42-.45-.15-.4.72-.74,1.48-1.07,2.24-.09.22.14.4.3.56.96.95,1.91,1.9,2.87,2.85,2.21,2.2,4.43,4.39,6.64,6.59,2.36,2.35,4.74,4.7,7.07,7.09.67.68,1.45,1.26,1.91,2.14.29.55.2,1.07-.22,1.48-.43.42-.97.47-1.48.1-1.02-.75-1.81-1.76-2.73-2.63-.87-.82-1.68-1.7-2.53-2.55-.84-.84-1.68-1.68-2.52-2.53-.88-.88-1.75-1.78-2.64-2.66-1.16-1.15-2.37-2.25-3.49-3.44-1.18-1.25-2.42-2.43-3.69-3.59-.55-.51-.94-.41-1.27.27-.32.64-.57,1.3-.9,1.94-.3.6-.29,1.06.23,1.57,1.78,1.77,2.75,3.89,2.69,6.45-.05,2.04-.77,3.8-2.07,5.37-2.08,2.51-4.71,3.4-7.87,2.8-.46-.09-.68.02-.86.42-.66,1.45-1.28,2.93-2.02,4.34-.4.75-.25,1.16.39,1.63,1.35,1.01,1.98,2.42,1.92,4.09-.12,3.07-3.2,5.52-6.35,4.43-.57-.2-.78,0-.99.45-.64,1.36-1.33,2.69-1.92,4.07-.63,1.46-1.5,2.82-1.87,4.4-.14.61,0,1.03.49,1.42,1.07.87,2.2.76,3.33.23,3.74-1.74,7.46-3.51,11.2-5.25.53-.24.55-.5.31-.97-.68-1.31-1.32-2.64-1.18-3.83Zm4.93-23.7c.03-1.56-.47-2.92-1.56-4.05-.33-.34-.48-.24-.66.15-1.46,3.09-2.95,6.17-4.42,9.26-.1.22-.2.51.23.52.59,0,1.22.12,1.77-.04,2.71-.8,4.6-2.7,4.66-5.84Zm-10.5,18.34c.05-.61-.3-1.19-.84-1.66-.25-.21-.59-.39-.76.09-.39,1.12-1,2.13-1.49,3.2-.28.6-.04.78.5.85,1.37.18,2.64-.96,2.59-2.49Z"/>
    </g>
  </g>
</svg>