<?xml version="1.0" encoding="UTF-8"?>
<svg id="Capa_2" data-name="Capa 2" xmlns="http://www.w3.org/2000/svg" viewBox="0 0 72.26 50.98">
  <defs>
    <style>
      .cls-1 {
        fill: #dfc0ff;
      }

      .cls-2 {
        fill: #7025be;
      }

      .cls-3 {
        fill: #b683ec;
      }
    </style>
  </defs>
  <g id="Capa_5" data-name="Capa 5">
    <g id="credit_card_icon" data-name="credit card icon">
      <g>
        <path class="cls-1" d="m68.4,20.99c-10.77.02-21.54.01-32.31.01-10.67,0-21.33,0-32,0q-1.02,0-1.01,1c0,7.29,0,14.58,0,21.88,0,.99.41,1.82,1.05,2.56.99,1.15,2.3,1.55,3.76,1.55,18.19,0,36.38,0,54.58,0,.99,0,1.99.06,2.98-.11,1.22-.21,2.16-.82,2.9-1.79.74-.96.8-2.09.81-3.23,0-7.04,0-14.09.02-21.13,0-.61-.18-.74-.77-.74Zm-51.86,22.52c-.04.7-.61,1.35-1.27,1.36-1.1.02-2.2,0-3.31,0-1.04,0-2.08.01-3.12,0-.67-.01-1.22-.56-1.26-1.2-.05-.89.39-1.6,1.13-1.64,2.22-.12,4.45-.14,6.67,0,.65.04,1.2.81,1.16,1.48Zm10.62,1.37c-1.04.02-2.07,0-3.11,0,0,0,0,0,0,0-1.04,0-2.07.02-3.11,0-.79-.02-1.33-.62-1.38-1.37-.05-.67.68-1.48,1.32-1.5,2.11-.06,4.23-.09,6.34.01.84.04,1.34.69,1.32,1.6-.02.72-.57,1.24-1.39,1.26Zm-4.64-10.45c-4.95,0-9.89,0-14.84,0-1,0-1.58-.45-1.62-1.46-.07-1.99-.09-3.97-.04-5.96.02-1.01.62-1.48,1.65-1.53.23-.01.46,0,.69,0,9.6,0,19.21,0,28.81,0,1.4,0,1.97.56,1.97,1.94,0,1.72-.02,3.44,0,5.16.02,1.2-.73,1.89-1.85,1.87-4.93-.05-9.85-.02-14.78-.02Zm16.73,10.46c-1.06-.03-2.12,0-3.17,0-1.04,0-2.07.01-3.11,0-.74-.01-1.44-.71-1.41-1.42.02-.65.67-1.43,1.33-1.45,2.14-.06,4.27-.08,6.4.01.68.03,1.39.78,1.35,1.42-.03.67-.63,1.47-1.39,1.45Zm11.99-.01c-1.06.02-2.12,0-3.17,0h0c-1.04,0-2.07.01-3.11,0-.73-.01-1.27-.6-1.31-1.38-.04-.72.52-1.43,1.22-1.47,2.15-.11,4.31-.1,6.47,0,.77.03,1.32.71,1.3,1.5-.02.76-.59,1.34-1.39,1.36Zm11.94,0c-1,.02-1.99,0-2.99,0,0,0,0,0,0,0-1.06,0-2.12.02-3.18,0-.76-.02-1.27-.58-1.28-1.37-.02-.83.47-1.44,1.24-1.47,2.08-.1,4.15-.07,6.23-.01.97.03,1.43.58,1.41,1.57-.01.76-.57,1.28-1.43,1.29Z"/>
        <path class="cls-1" d="m3.84,8.98c10.75-.02,21.5-.01,32.25-.01,8.25,0,16.51,0,24.76,0,2.58,0,5.16,0,7.73.02.41,0,.62-.07.56-.55-.06-.53-.01-1.08-.06-1.61-.07-.86-.43-1.59-1-2.26-1.07-1.25-2.48-1.59-4.04-1.59-7.88,0-15.76,0-23.64,0-10.85,0-21.71,0-32.56,0-1.94,0-3.45.76-4.38,2.55-.45.86-.33,1.76-.4,2.66-.05.63.14.8.77.79Z"/>
        <path class="cls-3" d="m35.51,28.46c-4.28.02-8.56.01-12.85.01h0c-3.18,0-6.36,0-9.54,0-1.18,0-2.37,0-3.55,0-.26,0-.5-.01-.49.37.02.79,0,1.57,0,2.36,0,.26.09.36.37.35.93-.03,1.87-.06,2.8-.05,7.84,0,15.67.02,23.51.05.37,0,.41-.16.4-.45-.01-.66-.04-1.33,0-1.99.04-.53-.15-.65-.66-.65Z"/>
        <path class="cls-3" d="m68.39,12.05c-10.75,0-21.5,0-32.25,0-9.88,0-19.75,0-29.63,0-1.02,0-2.04.01-3.06,0-.32,0-.42.08-.42.42.03,1.62.03,3.23,0,4.85,0,.55.13.74.73.74,5.03-.03,10.06-.02,15.09-.02,16.53,0,33.06,0,49.59.01.44,0,.76,0,.75-.6-.02-1.53,0-3.06,0-4.59,0-.8,0-.81-.82-.81Z"/>
      </g>
      <g>
        <path class="cls-2" d="m36.17.02c9.34,0,18.67,0,28.01,0,.91,0,1.81.1,2.69.35,1.94.55,3.37,1.73,4.35,3.47.77,1.36,1.03,2.83,1.03,4.37,0,11.6,0,23.2,0,34.81,0,2.1-.59,3.98-2.04,5.51-1.63,1.73-3.68,2.45-6.05,2.45-13.62-.02-27.24,0-40.86,0-5.07,0-10.15,0-15.22,0-1.31,0-2.58-.19-3.78-.76-1.43-.67-2.49-1.72-3.26-3.06C.29,45.83,0,44.36,0,42.84c0-11.69,0-23.37,0-35.06,0-2.46.95-4.57,2.84-6.13C3.91.78,5.18.19,6.62.14c7.77-.27,15.54-.05,23.31-.11,2.08-.02,4.16,0,6.24,0h0Zm-.05,21c-10.67,0-21.33,0-32,0q-1.02,0-1.01,1c0,7.29,0,14.58,0,21.88,0,.99.41,1.82,1.05,2.56.99,1.15,2.3,1.55,3.76,1.55,18.19,0,36.38,0,54.58,0,.99,0,1.99.06,2.98-.11,1.22-.21,2.16-.82,2.9-1.79.74-.96.8-2.09.81-3.23,0-7.04,0-14.09.02-21.13,0-.61-.18-.74-.77-.74-10.77.02-21.54.01-32.31.01Zm.05-8.96c-9.88,0-19.75,0-29.63,0-1.02,0-2.04.01-3.06,0-.32,0-.42.08-.42.42.03,1.62.03,3.23,0,4.85,0,.55.13.74.73.74,5.03-.03,10.06-.02,15.09-.02,16.53,0,33.06,0,49.59.01.44,0,.76,0,.75-.6-.02-1.53,0-3.06,0-4.59,0-.8,0-.81-.82-.81-10.75,0-21.5,0-32.25,0Zm-.05-3.08c8.25,0,16.51,0,24.76,0,2.58,0,5.16,0,7.73.02.41,0,.62-.07.56-.55-.06-.53-.01-1.08-.06-1.61-.07-.86-.43-1.59-1-2.26-1.07-1.25-2.48-1.59-4.04-1.59-7.88,0-15.76,0-23.64,0-10.85,0-21.71,0-32.56,0-1.94,0-3.45.76-4.38,2.55-.45.86-.33,1.76-.4,2.66-.05.63.14.8.77.79,10.75-.02,21.5-.01,32.25-.01Z"/>
        <path class="cls-2" d="m22.56,34.45c-4.95,0-9.89,0-14.84,0-1,0-1.58-.45-1.62-1.46-.07-1.99-.09-3.97-.04-5.96.02-1.01.62-1.48,1.65-1.53.23-.01.46,0,.69,0,9.6,0,19.21,0,28.81,0,1.4,0,1.97.56,1.97,1.94,0,1.72-.02,3.44,0,5.16.02,1.2-.73,1.89-1.85,1.87-4.93-.05-9.85-.02-14.78-.02Zm.14-5.97h0c-3.18,0-6.36,0-9.54,0-1.18,0-2.37,0-3.55,0-.26,0-.5-.01-.49.37.02.79,0,1.57,0,2.36,0,.26.09.36.37.35.93-.03,1.87-.06,2.8-.05,7.84,0,15.67.02,23.51.05.37,0,.41-.16.4-.45-.01-.66-.04-1.33,0-1.99.04-.53-.15-.65-.66-.65-4.28.02-8.56.01-12.85.01Z"/>
        <path class="cls-2" d="m11.99,44.89c-1.04,0-2.08.01-3.12,0-.67-.01-1.22-.56-1.26-1.2-.05-.89.39-1.6,1.13-1.64,2.22-.12,4.45-.14,6.67,0,.65.04,1.2.81,1.16,1.48-.04.7-.61,1.35-1.27,1.36-1.1.02-2.2,0-3.31,0Z"/>
        <path class="cls-2" d="m36.11,44.9c-1.04,0-2.07.01-3.11,0-.74-.01-1.44-.71-1.41-1.42.02-.65.67-1.43,1.33-1.45,2.14-.06,4.27-.08,6.4.01.68.03,1.39.78,1.35,1.42-.03.67-.63,1.47-1.39,1.45-1.06-.03-2.12,0-3.17,0Z"/>
        <path class="cls-2" d="m24.08,44.9c-1.04,0-2.07.02-3.11,0-.79-.02-1.33-.62-1.38-1.37-.05-.67.68-1.48,1.32-1.5,2.11-.06,4.23-.09,6.34.01.84.04,1.34.69,1.32,1.6-.02.72-.57,1.24-1.39,1.26-1.04.02-2.07,0-3.11,0,0,0,0,0,0,0Z"/>
        <path class="cls-2" d="m48.1,44.9c-1.04,0-2.07.01-3.11,0-.73-.01-1.27-.6-1.31-1.38-.04-.72.52-1.43,1.22-1.47,2.15-.11,4.31-.1,6.47,0,.77.03,1.32.71,1.3,1.5-.02.76-.59,1.34-1.39,1.36-1.06.02-2.12,0-3.17,0,0,0,0,0,0,0Z"/>
        <path class="cls-2" d="m60.22,44.89c-1.06,0-2.12.02-3.18,0-.76-.02-1.27-.58-1.28-1.37-.02-.83.47-1.44,1.24-1.47,2.08-.1,4.15-.07,6.23-.01.97.03,1.43.58,1.41,1.57-.01.76-.57,1.28-1.43,1.29-1,.02-1.99,0-2.99,0h0Z"/>
      </g>
    </g>
  </g>
</svg>