<svg width="152" height="30" viewBox="0 0 152 30" fill="none" xmlns="http://www.w3.org/2000/svg">
<path d="M10.944 18.92L10.728 20.12L9.528 20L8.52 20.336L6.024 20.168L5.28 20.384L3.336 20.216L2.736 20.336L2.448 19.784L2.352 18.44V13.976L2.808 11.672V9.392L3.168 8.864L4.776 8.72L4.992 9.008L5.184 11.384L5.76 12.848V18.056L5.928 18.584L6.552 18.44L7.704 18.584L8.472 18.368H10.416L10.944 18.92ZM20.4849 14.072V17.36L20.2689 17.648H18.8289L18.2529 17.264L18.3249 17.096L18.0849 16.856L17.7729 17L16.8129 17.96L16.3329 18.2L15.4929 18.104L15.3969 18.272L14.8689 18.44L14.1969 18.008L13.6209 17.816L13.0929 16.496L13.3569 13.88L12.9489 13.064L13.1409 11.504L13.5249 11.384H15.3249L15.7329 12.632V15.272L15.9249 15.56L16.0209 15.92L16.2849 16.016L17.5089 15.608H17.9169L18.2049 15.416V11.504L18.5649 11.312L19.7649 11.576L20.4849 14.072ZM32.5371 18.944H32.3931C32.4891 18.944 32.5371 18.968 32.5371 19.016C32.5371 19.048 32.4651 19.128 32.3211 19.256C32.1771 19.368 32.0651 19.44 31.9851 19.472C31.5851 19.488 31.2491 19.52 30.9771 19.568C30.7211 19.616 30.4731 19.672 30.2331 19.736C30.0091 19.8 29.7771 19.856 29.5371 19.904C29.3131 19.936 29.0331 19.952 28.6971 19.952C28.5371 19.92 28.4011 19.904 28.2891 19.904C28.1771 19.904 28.0651 19.904 27.9531 19.904C27.8411 19.904 27.7291 19.912 27.6171 19.928C27.5211 19.928 27.4331 19.928 27.3531 19.928C27.1771 19.928 27.0331 19.92 26.9211 19.904C26.8091 19.888 26.6971 19.872 26.5851 19.856C26.4891 19.824 26.3851 19.776 26.2731 19.712C26.1611 19.632 26.0091 19.536 25.8171 19.424H25.4091C25.3931 19.424 25.3691 19.384 25.3371 19.304C25.3051 19.208 25.2731 19.16 25.2411 19.16L25.1211 19.04C25.1211 19.04 25.0891 19 25.0251 18.92C24.9611 18.84 24.8971 18.768 24.8331 18.704C24.6251 18.416 24.5051 18.16 24.4731 17.936C24.4571 17.696 24.4491 17.456 24.4491 17.216C24.4651 17.088 24.4891 16.96 24.5211 16.832C24.5531 16.704 24.6011 16.576 24.6651 16.448C24.8251 16.16 24.9691 15.912 25.0971 15.704C25.2411 15.496 25.3771 15.304 25.5051 15.128C25.6491 14.952 25.7931 14.792 25.9371 14.648C26.0971 14.504 26.2811 14.352 26.4891 14.192C26.8251 13.984 27.2171 13.848 27.6651 13.784C28.1291 13.72 28.5691 13.616 28.9851 13.472C29.2571 13.472 29.4891 13.48 29.6811 13.496C29.8891 13.496 30.0891 13.496 30.2811 13.496H31.6011C31.7291 13.512 31.7851 13.632 31.7691 13.856C31.7691 14.064 31.7851 14.248 31.8171 14.408C31.6891 14.632 31.6091 14.776 31.5771 14.84C31.5451 14.904 31.5051 15.016 31.4571 15.176C31.2491 15.176 31.0811 15.176 30.9531 15.176C30.8251 15.176 30.6891 15.176 30.5451 15.176C30.4011 15.176 30.2251 15.192 30.0171 15.224C29.8251 15.256 29.5611 15.304 29.2251 15.368C28.7931 15.432 28.5131 15.496 28.3851 15.56C28.2731 15.608 28.1771 15.68 28.0971 15.776C28.0491 15.808 28.0091 15.84 27.9771 15.872C27.9611 15.888 27.9371 15.904 27.9051 15.92C27.8731 15.952 27.8411 15.968 27.8091 15.968C27.8411 15.952 27.7931 15.984 27.6651 16.064C27.5371 16.144 27.3851 16.256 27.2091 16.4C27.0491 16.528 26.8971 16.688 26.7531 16.88C26.6251 17.072 26.5611 17.264 26.5611 17.456C26.5611 17.664 26.6331 17.848 26.7771 18.008C26.9371 18.168 27.0171 18.28 27.0171 18.344C27.0171 18.424 27.0571 18.48 27.1371 18.512C27.2331 18.544 27.3771 18.592 27.5691 18.656C27.6011 18.656 27.6171 18.656 27.6171 18.656C27.6331 18.64 27.6491 18.632 27.6651 18.632C27.6651 18.632 27.6731 18.624 27.6891 18.608C27.9611 18.688 28.1931 18.736 28.3851 18.752C28.5931 18.752 28.8411 18.768 29.1291 18.8C29.3051 18.8 29.4571 18.8 29.5851 18.8C29.7291 18.784 29.8571 18.776 29.9691 18.776C30.0971 18.76 30.2251 18.752 30.3531 18.752C30.4971 18.752 30.6651 18.744 30.8571 18.728H30.9771C31.1691 18.728 31.3211 18.712 31.4331 18.68C31.5451 18.632 31.6411 18.592 31.7211 18.56C31.8171 18.512 31.9051 18.472 31.9851 18.44C32.0651 18.392 32.1611 18.368 32.2731 18.368C32.3051 18.464 32.3371 18.552 32.3691 18.632C32.4171 18.696 32.4411 18.768 32.4411 18.848L32.5371 18.944ZM37.902 20H35.79V7.136H37.902V20ZM40.398 1.856C40.254 2.08 40.046 2.352 39.774 2.672C39.502 2.992 39.198 3.328 38.862 3.68C38.542 4.016 38.214 4.344 37.878 4.664C37.558 4.968 37.254 5.232 36.966 5.456H35.574V5.168C35.814 4.864 36.07 4.504 36.342 4.088C36.63 3.672 36.91 3.248 37.182 2.816C37.454 2.368 37.678 1.968 37.854 1.616H40.398V1.856ZM41.8095 11.408C41.8895 11.168 42.0095 10.984 42.1695 10.856C42.3295 10.712 42.5295 10.592 42.7695 10.496C43.0095 10.384 43.3055 10.28 43.6575 10.184C44.0095 10.088 44.4015 9.968 44.8335 9.824C44.8495 9.776 44.9375 9.752 45.0975 9.752C45.2735 9.752 45.4575 9.752 45.6495 9.752C45.8575 9.752 46.0415 9.744 46.2015 9.728C46.3775 9.696 46.4735 9.64 46.4895 9.56C46.6335 9.592 46.7535 9.616 46.8495 9.632C46.9455 9.648 47.0335 9.656 47.1135 9.656C47.2095 9.656 47.3055 9.656 47.4015 9.656C47.5135 9.656 47.6495 9.656 47.8095 9.656H48.1935C48.2255 9.688 48.2575 9.728 48.2895 9.776C48.3215 9.808 48.3535 9.84 48.3855 9.872C48.4495 9.872 48.5055 9.944 48.5535 10.088C48.6015 10.216 48.6575 10.368 48.7215 10.544C48.7855 10.72 48.8575 10.88 48.9375 11.024C49.0175 11.168 49.1215 11.24 49.2495 11.24H49.2975C49.3135 11.272 49.3215 11.376 49.3215 11.552C49.3375 11.712 49.3535 11.888 49.3695 12.08C49.4015 12.256 49.4335 12.424 49.4655 12.584C49.4975 12.744 49.5375 12.84 49.5855 12.872C49.6015 13.304 49.6255 13.616 49.6575 13.808C49.7055 14 49.7455 14.152 49.7775 14.264C49.8255 14.36 49.8655 14.448 49.8975 14.528C49.9455 14.592 49.9775 14.688 49.9935 14.816C49.9935 14.816 49.9935 14.88 49.9935 15.008C50.0095 15.12 50.0255 15.248 50.0415 15.392C50.0575 15.52 50.0815 15.648 50.1135 15.776C50.1455 15.904 50.1855 15.968 50.2335 15.968C50.2175 15.968 50.2015 15.976 50.1855 15.992H50.1135C50.1295 16.36 50.1375 16.688 50.1375 16.976C50.1535 17.264 50.1615 17.544 50.1615 17.816C50.1775 18.072 50.1935 18.344 50.2095 18.632C50.2415 18.92 50.2655 19.248 50.2815 19.616C50.2175 19.744 50.1615 19.848 50.1135 19.928C50.0655 19.992 50.0335 20.064 50.0175 20.144H49.6815C49.5535 20.08 49.4655 20.008 49.4175 19.928C49.2095 19.928 49.0255 19.944 48.8655 19.976C48.7055 19.992 48.5615 20.016 48.4335 20.048C48.3215 20.08 48.2095 20.104 48.0975 20.12C47.9855 20.136 47.8655 20.144 47.7375 20.144C47.5775 20.144 47.3855 20.088 47.1615 19.976C46.9375 19.848 46.7215 19.784 46.5135 19.784C46.3215 19.784 46.1695 19.808 46.0575 19.856C45.9615 19.888 45.8895 19.936 45.8415 20C45.8095 20.048 45.7775 20.088 45.7455 20.12C45.7295 20.168 45.7055 20.192 45.6735 20.192H45.6495H44.3295C44.1215 20.192 43.9135 20.184 43.7055 20.168C43.4975 20.168 43.2735 20.168 43.0335 20.168C42.8255 20.168 42.5855 20.112 42.3135 20C42.0415 19.872 41.7775 19.712 41.5215 19.52C41.2655 19.312 41.0495 19.088 40.8735 18.848C40.6975 18.592 40.6095 18.336 40.6095 18.08C40.6095 17.28 40.7935 16.608 41.1615 16.064C41.5455 15.52 42.1215 15.056 42.8895 14.672C43.2095 14.592 43.4655 14.512 43.6575 14.432C43.8495 14.352 44.0175 14.28 44.1615 14.216C44.3215 14.136 44.4735 14.08 44.6175 14.048C44.7615 14 44.9375 13.976 45.1455 13.976L45.8655 13.568C46.0095 13.568 46.1375 13.568 46.2495 13.568C46.3615 13.552 46.4735 13.536 46.5855 13.52L47.2815 13.472V13.328C47.2815 13.184 47.2895 13.032 47.3055 12.872C47.3215 12.696 47.3695 12.512 47.4495 12.32C47.4495 12.224 47.4175 12.16 47.3535 12.128C47.2895 12.08 47.2415 12.032 47.2095 11.984C47.1295 11.952 47.0735 11.912 47.0415 11.864C47.0255 11.8 47.0095 11.736 46.9935 11.672C46.9775 11.608 46.9375 11.552 46.8735 11.504C46.8255 11.456 46.7375 11.432 46.6095 11.432C46.3695 11.432 46.0575 11.472 45.6735 11.552C45.3055 11.632 44.9215 11.728 44.5215 11.84C44.1375 11.952 43.7775 12.064 43.4415 12.176C43.1215 12.272 42.8815 12.336 42.7215 12.368C42.6735 12.368 42.6175 12.32 42.5535 12.224C42.4895 12.128 42.4175 12.016 42.3375 11.888C42.2735 11.76 42.1935 11.648 42.0975 11.552C42.0175 11.456 41.9215 11.408 41.8095 11.408ZM47.0175 15.44C46.8735 15.408 46.7135 15.368 46.5375 15.32C46.3775 15.272 46.2175 15.224 46.0575 15.176H45.9615C45.8335 15.176 45.6975 15.192 45.5535 15.224C45.4255 15.256 45.2815 15.296 45.1215 15.344C44.8015 15.424 44.4975 15.496 44.2095 15.56C43.9215 15.624 43.6655 15.728 43.4415 15.872C43.2335 16 43.0655 16.192 42.9375 16.448C42.8255 16.704 42.7695 17.056 42.7695 17.504C42.7695 17.728 42.8015 17.896 42.8655 18.008C42.9455 18.12 43.0415 18.272 43.1535 18.464L44.8335 18.368C45.0895 18.352 45.3535 18.336 45.6255 18.32C45.8975 18.304 46.1935 18.28 46.5135 18.248H46.8495V18.056C46.8495 17.928 46.8575 17.728 46.8735 17.456C46.8895 17.184 46.9375 16.92 47.0175 16.664V15.44ZM69.1611 16.808C69.1611 17.096 69.1771 17.36 69.2091 17.6C69.2411 17.824 69.2571 18.032 69.2571 18.224C69.2571 18.544 69.1771 18.816 69.0171 19.04C68.8731 19.248 68.6811 19.432 68.4411 19.592C68.2171 19.752 67.9771 19.888 67.7211 20C67.4651 20.128 67.2331 20.248 67.0251 20.36C66.8651 20.44 66.7371 20.504 66.6411 20.552C66.5451 20.616 66.4731 20.656 66.4251 20.672C66.3771 20.688 66.3371 20.696 66.3051 20.696C66.2891 20.712 66.2731 20.72 66.2571 20.72C66.2411 20.72 66.1931 20.728 66.1131 20.744C66.0331 20.776 65.9291 20.808 65.8011 20.84C65.6891 20.888 65.5691 20.92 65.4411 20.936C65.3131 20.952 65.1851 20.96 65.0571 20.96C64.8011 20.96 64.5371 20.92 64.2651 20.84C63.9931 20.776 63.6811 20.744 63.3291 20.744C63.1851 20.728 63.0411 20.736 62.8971 20.768C62.7691 20.8 62.6251 20.832 62.4651 20.864C62.2571 20.912 62.0731 20.944 61.9131 20.96C61.7691 20.976 61.6251 20.992 61.4811 21.008C61.3531 21.04 61.2171 21.056 61.0731 21.056C60.9451 21.072 60.7851 21.088 60.5931 21.104C60.5931 21.104 60.5611 21.088 60.4971 21.056C60.4331 21.024 60.3691 20.992 60.3051 20.96C60.2411 20.928 60.1851 20.888 60.1371 20.84C60.0891 20.792 60.0651 20.752 60.0651 20.72C60.0651 20.704 60.0731 20.688 60.0891 20.672C60.0731 20.672 60.0651 20.648 60.0651 20.6C60.0651 20.568 60.0731 20.528 60.0891 20.48C60.1211 20.432 60.1531 20.4 60.1851 20.384H60.1371C60.1051 20.384 60.0731 20.336 60.0411 20.24C60.0251 20.16 60.0011 20.056 59.9691 19.928C59.9531 19.8 59.9291 19.664 59.8971 19.52C59.8811 19.376 59.8571 19.24 59.8251 19.112C59.8411 19.096 59.9211 19.112 60.0651 19.16C60.2251 19.208 60.3611 19.232 60.4731 19.232C60.5851 19.232 60.6651 19.208 60.7131 19.16C60.9851 19.192 61.2251 19.224 61.4331 19.256C61.6411 19.272 61.8251 19.28 61.9851 19.28C62.3211 19.28 62.6251 19.24 62.8971 19.16C63.1851 19.08 63.5691 18.984 64.0491 18.872C64.0651 18.872 64.1531 18.864 64.3131 18.848C64.4731 18.832 64.6491 18.792 64.8411 18.728C65.0331 18.648 65.2091 18.536 65.3691 18.392C65.5291 18.232 65.6091 18.008 65.6091 17.72C65.6091 17.608 65.5771 17.504 65.5131 17.408C65.4491 17.312 65.3851 17.224 65.3211 17.144C65.2571 17.048 65.1931 16.968 65.1291 16.904C65.0811 16.824 65.0571 16.736 65.0571 16.64L64.3851 16.352L62.8491 15.656C62.6571 15.624 62.4811 15.56 62.3211 15.464C62.1771 15.352 62.0411 15.232 61.9131 15.104C61.7851 14.96 61.6411 14.832 61.4811 14.72C61.3371 14.608 61.1531 14.512 60.9291 14.432L60.6411 14.192C60.4811 14.064 60.3531 13.904 60.2571 13.712C60.1771 13.52 60.1211 13.288 60.0891 13.016C60.1211 12.984 60.1451 12.92 60.1611 12.824C60.1931 12.712 60.2091 12.608 60.2091 12.512C60.2091 12.416 60.2011 12.36 60.1851 12.344C60.1691 12.328 60.1611 12.296 60.1611 12.248C60.1611 12.088 60.2091 11.936 60.3051 11.792C60.4171 11.632 60.4731 11.448 60.4731 11.24C60.6171 11.128 60.7211 11.024 60.7851 10.928C60.8651 10.832 60.9371 10.744 61.0011 10.664C61.1611 10.408 61.4251 10.184 61.7931 9.992C62.1611 9.8 62.4891 9.632 62.7771 9.488L64.0011 8.864C64.2891 8.784 64.5371 8.72 64.7451 8.672C64.9531 8.624 65.2251 8.544 65.5611 8.432C65.6571 8.464 65.7291 8.488 65.7771 8.504C65.8411 8.504 65.9291 8.504 66.0411 8.504C66.2971 8.504 66.5131 8.496 66.6891 8.48C66.8651 8.464 67.0811 8.44 67.3371 8.408C67.4971 8.504 67.6091 8.568 67.6731 8.6C67.7531 8.632 67.8811 8.688 68.0571 8.768C68.0571 8.912 68.0571 9.024 68.0571 9.104C68.0571 9.168 68.0571 9.232 68.0571 9.296C68.0731 9.344 68.0811 9.4 68.0811 9.464C68.0811 9.528 68.0891 9.624 68.1051 9.752C67.9931 9.912 67.8251 9.992 67.6011 9.992C67.3931 9.992 67.2411 9.992 67.1451 9.992L66.6891 10.208C66.4971 10.256 66.2651 10.32 65.9931 10.4C65.7371 10.48 65.5291 10.552 65.3691 10.616C65.2571 10.68 65.0971 10.76 64.8891 10.856C64.6811 10.936 64.4971 10.976 64.3371 10.976H64.2171C63.8491 11.2 63.6171 11.4 63.5211 11.576C63.4411 11.736 63.4011 11.984 63.4011 12.32C63.4011 12.672 63.4411 12.904 63.5211 13.016C63.6011 13.112 63.6731 13.16 63.7371 13.16L64.8411 13.784C65.1451 13.96 65.4891 14.16 65.8731 14.384C66.2731 14.592 66.6651 14.776 67.0491 14.936C67.0651 14.984 67.1131 15.024 67.1931 15.056L67.9371 15.464C68.0331 15.528 68.1291 15.592 68.2251 15.656C68.3211 15.704 68.4571 15.76 68.6331 15.824C68.6331 15.92 68.6571 16.008 68.7051 16.088C68.7531 16.152 68.8091 16.224 68.8731 16.304C68.9371 16.384 68.9931 16.464 69.0411 16.544C69.1051 16.624 69.1451 16.712 69.1611 16.808ZM72.747 11.408C72.827 11.168 72.947 10.984 73.107 10.856C73.267 10.712 73.467 10.592 73.707 10.496C73.947 10.384 74.243 10.28 74.595 10.184C74.947 10.088 75.339 9.968 75.771 9.824C75.787 9.776 75.875 9.752 76.035 9.752C76.211 9.752 76.395 9.752 76.587 9.752C76.795 9.752 76.979 9.744 77.139 9.728C77.315 9.696 77.411 9.64 77.427 9.56C77.571 9.592 77.691 9.616 77.787 9.632C77.883 9.648 77.971 9.656 78.051 9.656C78.147 9.656 78.243 9.656 78.339 9.656C78.451 9.656 78.587 9.656 78.747 9.656H79.131C79.163 9.688 79.195 9.728 79.227 9.776C79.259 9.808 79.291 9.84 79.323 9.872C79.387 9.872 79.443 9.944 79.491 10.088C79.539 10.216 79.595 10.368 79.659 10.544C79.723 10.72 79.795 10.88 79.875 11.024C79.955 11.168 80.059 11.24 80.187 11.24H80.235C80.251 11.272 80.259 11.376 80.259 11.552C80.275 11.712 80.291 11.888 80.307 12.08C80.339 12.256 80.371 12.424 80.403 12.584C80.435 12.744 80.475 12.84 80.523 12.872C80.539 13.304 80.563 13.616 80.595 13.808C80.643 14 80.683 14.152 80.715 14.264C80.763 14.36 80.803 14.448 80.835 14.528C80.883 14.592 80.915 14.688 80.931 14.816C80.931 14.816 80.931 14.88 80.931 15.008C80.947 15.12 80.963 15.248 80.979 15.392C80.995 15.52 81.019 15.648 81.051 15.776C81.083 15.904 81.123 15.968 81.171 15.968C81.155 15.968 81.139 15.976 81.123 15.992H81.051C81.067 16.36 81.075 16.688 81.075 16.976C81.091 17.264 81.099 17.544 81.099 17.816C81.115 18.072 81.131 18.344 81.147 18.632C81.179 18.92 81.203 19.248 81.219 19.616C81.155 19.744 81.099 19.848 81.051 19.928C81.003 19.992 80.971 20.064 80.955 20.144H80.619C80.491 20.08 80.403 20.008 80.355 19.928C80.147 19.928 79.963 19.944 79.803 19.976C79.643 19.992 79.499 20.016 79.371 20.048C79.259 20.08 79.147 20.104 79.035 20.12C78.923 20.136 78.803 20.144 78.675 20.144C78.515 20.144 78.323 20.088 78.099 19.976C77.875 19.848 77.659 19.784 77.451 19.784C77.259 19.784 77.107 19.808 76.995 19.856C76.899 19.888 76.827 19.936 76.779 20C76.747 20.048 76.715 20.088 76.683 20.12C76.667 20.168 76.643 20.192 76.611 20.192H76.587H75.267C75.059 20.192 74.851 20.184 74.643 20.168C74.435 20.168 74.211 20.168 73.971 20.168C73.763 20.168 73.523 20.112 73.251 20C72.979 19.872 72.715 19.712 72.459 19.52C72.203 19.312 71.987 19.088 71.811 18.848C71.635 18.592 71.547 18.336 71.547 18.08C71.547 17.28 71.731 16.608 72.099 16.064C72.483 15.52 73.059 15.056 73.827 14.672C74.147 14.592 74.403 14.512 74.595 14.432C74.787 14.352 74.955 14.28 75.099 14.216C75.259 14.136 75.411 14.08 75.555 14.048C75.699 14 75.875 13.976 76.083 13.976L76.803 13.568C76.947 13.568 77.075 13.568 77.187 13.568C77.299 13.552 77.411 13.536 77.523 13.52L78.219 13.472V13.328C78.219 13.184 78.227 13.032 78.243 12.872C78.259 12.696 78.307 12.512 78.387 12.32C78.387 12.224 78.355 12.16 78.291 12.128C78.227 12.08 78.179 12.032 78.147 11.984C78.067 11.952 78.011 11.912 77.979 11.864C77.963 11.8 77.947 11.736 77.931 11.672C77.915 11.608 77.875 11.552 77.811 11.504C77.763 11.456 77.675 11.432 77.547 11.432C77.307 11.432 76.995 11.472 76.611 11.552C76.243 11.632 75.859 11.728 75.459 11.84C75.075 11.952 74.715 12.064 74.379 12.176C74.059 12.272 73.819 12.336 73.659 12.368C73.611 12.368 73.555 12.32 73.491 12.224C73.427 12.128 73.355 12.016 73.275 11.888C73.211 11.76 73.131 11.648 73.035 11.552C72.955 11.456 72.859 11.408 72.747 11.408ZM77.955 15.44C77.811 15.408 77.651 15.368 77.475 15.32C77.315 15.272 77.155 15.224 76.995 15.176H76.899C76.771 15.176 76.635 15.192 76.491 15.224C76.363 15.256 76.219 15.296 76.059 15.344C75.739 15.424 75.435 15.496 75.147 15.56C74.859 15.624 74.603 15.728 74.379 15.872C74.171 16 74.003 16.192 73.875 16.448C73.763 16.704 73.707 17.056 73.707 17.504C73.707 17.728 73.739 17.896 73.803 18.008C73.883 18.12 73.979 18.272 74.091 18.464L75.771 18.368C76.027 18.352 76.291 18.336 76.563 18.32C76.835 18.304 77.131 18.28 77.451 18.248H77.787V18.056C77.787 17.928 77.795 17.728 77.811 17.456C77.827 17.184 77.875 16.92 77.955 16.664V15.44ZM91.5698 12.176C91.3618 12.352 91.1618 12.512 90.9698 12.656C90.7938 12.8 90.6178 12.936 90.4418 13.064L89.3378 13.904C89.1618 14.032 89.0098 14.168 88.8818 14.312C88.7698 14.44 88.6658 14.56 88.5698 14.672C88.4898 14.784 88.4098 14.896 88.3298 15.008C88.2658 15.12 88.1778 15.216 88.0658 15.296L88.1858 16.568L88.0658 17.336V17.816L87.6578 18.056L85.0178 18.272L84.9698 17.648L85.0898 17.384V11.24L85.4738 10.808H86.8658L87.5138 12.2V13.856L88.0178 13.376L88.7378 12.128L90.3458 10.832L90.6578 10.736L91.5698 12.176ZM94.1923 11.408C94.2723 11.168 94.3923 10.984 94.5523 10.856C94.7123 10.712 94.9123 10.592 95.1523 10.496C95.3923 10.384 95.6883 10.28 96.0403 10.184C96.3923 10.088 96.7843 9.968 97.2163 9.824C97.2323 9.776 97.3203 9.752 97.4803 9.752C97.6563 9.752 97.8403 9.752 98.0323 9.752C98.2403 9.752 98.4243 9.744 98.5843 9.728C98.7603 9.696 98.8563 9.64 98.8723 9.56C99.0163 9.592 99.1363 9.616 99.2323 9.632C99.3283 9.648 99.4163 9.656 99.4963 9.656C99.5923 9.656 99.6883 9.656 99.7843 9.656C99.8963 9.656 100.032 9.656 100.192 9.656H100.576C100.608 9.688 100.64 9.728 100.672 9.776C100.704 9.808 100.736 9.84 100.768 9.872C100.832 9.872 100.888 9.944 100.936 10.088C100.984 10.216 101.04 10.368 101.104 10.544C101.168 10.72 101.24 10.88 101.32 11.024C101.4 11.168 101.504 11.24 101.632 11.24H101.68C101.696 11.272 101.704 11.376 101.704 11.552C101.72 11.712 101.736 11.888 101.752 12.08C101.784 12.256 101.816 12.424 101.848 12.584C101.88 12.744 101.92 12.84 101.968 12.872C101.984 13.304 102.008 13.616 102.04 13.808C102.088 14 102.128 14.152 102.16 14.264C102.208 14.36 102.248 14.448 102.28 14.528C102.328 14.592 102.36 14.688 102.376 14.816C102.376 14.816 102.376 14.88 102.376 15.008C102.392 15.12 102.408 15.248 102.424 15.392C102.44 15.52 102.464 15.648 102.496 15.776C102.528 15.904 102.568 15.968 102.616 15.968C102.6 15.968 102.584 15.976 102.568 15.992H102.496C102.512 16.36 102.52 16.688 102.52 16.976C102.536 17.264 102.544 17.544 102.544 17.816C102.56 18.072 102.576 18.344 102.592 18.632C102.624 18.92 102.648 19.248 102.664 19.616C102.6 19.744 102.544 19.848 102.496 19.928C102.448 19.992 102.416 20.064 102.4 20.144H102.064C101.936 20.08 101.848 20.008 101.8 19.928C101.592 19.928 101.408 19.944 101.248 19.976C101.088 19.992 100.944 20.016 100.816 20.048C100.704 20.08 100.592 20.104 100.48 20.12C100.368 20.136 100.248 20.144 100.12 20.144C99.9603 20.144 99.7683 20.088 99.5443 19.976C99.3203 19.848 99.1043 19.784 98.8963 19.784C98.7043 19.784 98.5523 19.808 98.4403 19.856C98.3443 19.888 98.2723 19.936 98.2243 20C98.1923 20.048 98.1603 20.088 98.1283 20.12C98.1123 20.168 98.0883 20.192 98.0563 20.192H98.0323H96.7123C96.5043 20.192 96.2963 20.184 96.0883 20.168C95.8803 20.168 95.6563 20.168 95.4163 20.168C95.2083 20.168 94.9683 20.112 94.6963 20C94.4243 19.872 94.1603 19.712 93.9043 19.52C93.6483 19.312 93.4323 19.088 93.2563 18.848C93.0803 18.592 92.9923 18.336 92.9923 18.08C92.9923 17.28 93.1763 16.608 93.5443 16.064C93.9283 15.52 94.5043 15.056 95.2723 14.672C95.5923 14.592 95.8483 14.512 96.0403 14.432C96.2323 14.352 96.4003 14.28 96.5443 14.216C96.7043 14.136 96.8563 14.08 97.0003 14.048C97.1443 14 97.3203 13.976 97.5283 13.976L98.2483 13.568C98.3923 13.568 98.5203 13.568 98.6323 13.568C98.7443 13.552 98.8563 13.536 98.9683 13.52L99.6643 13.472V13.328C99.6643 13.184 99.6723 13.032 99.6883 12.872C99.7043 12.696 99.7523 12.512 99.8323 12.32C99.8323 12.224 99.8003 12.16 99.7363 12.128C99.6723 12.08 99.6243 12.032 99.5923 11.984C99.5123 11.952 99.4563 11.912 99.4243 11.864C99.4083 11.8 99.3923 11.736 99.3763 11.672C99.3603 11.608 99.3203 11.552 99.2563 11.504C99.2083 11.456 99.1203 11.432 98.9923 11.432C98.7523 11.432 98.4403 11.472 98.0563 11.552C97.6883 11.632 97.3043 11.728 96.9043 11.84C96.5203 11.952 96.1603 12.064 95.8243 12.176C95.5043 12.272 95.2643 12.336 95.1043 12.368C95.0563 12.368 95.0003 12.32 94.9363 12.224C94.8723 12.128 94.8003 12.016 94.7203 11.888C94.6563 11.76 94.5763 11.648 94.4803 11.552C94.4003 11.456 94.3043 11.408 94.1923 11.408ZM99.4003 15.44C99.2563 15.408 99.0963 15.368 98.9203 15.32C98.7603 15.272 98.6003 15.224 98.4403 15.176H98.3443C98.2163 15.176 98.0803 15.192 97.9363 15.224C97.8083 15.256 97.6643 15.296 97.5043 15.344C97.1843 15.424 96.8803 15.496 96.5923 15.56C96.3043 15.624 96.0483 15.728 95.8243 15.872C95.6163 16 95.4483 16.192 95.3203 16.448C95.2083 16.704 95.1523 17.056 95.1523 17.504C95.1523 17.728 95.1843 17.896 95.2483 18.008C95.3283 18.12 95.4243 18.272 95.5363 18.464L97.2163 18.368C97.4723 18.352 97.7363 18.336 98.0083 18.32C98.2803 18.304 98.5763 18.28 98.8963 18.248H99.2323V18.056C99.2323 17.928 99.2403 17.728 99.2563 17.456C99.2723 17.184 99.3203 16.92 99.4003 16.664V15.44ZM111.695 13.232L112.991 13.808C113.359 14.016 113.663 14.224 113.903 14.432C114.143 14.624 114.335 14.84 114.479 15.08C114.623 15.32 114.727 15.592 114.791 15.896C114.855 16.2 114.887 16.576 114.887 17.024C114.887 17.264 114.799 17.52 114.623 17.792C114.447 18.064 114.231 18.32 113.975 18.56C113.735 18.784 113.487 18.984 113.231 19.16C112.975 19.336 112.767 19.456 112.607 19.52L110.615 20.192C110.439 20.288 110.255 20.352 110.063 20.384C109.871 20.416 109.703 20.432 109.559 20.432L108.503 20.12H106.919L106.655 20.312H106.295L106.199 19.784V15.56L106.055 15.488L106.511 15.416V9.176L106.943 8.768H108.167L108.599 9.104V9.248C108.599 9.488 108.623 9.696 108.671 9.872C108.735 10.048 108.767 10.184 108.767 10.28C108.767 10.36 108.727 10.4 108.647 10.4V11.48L109.031 12.992V13.16L110.447 13.28C110.447 13.312 110.495 13.328 110.591 13.328H110.807H111.191L111.695 13.232ZM109.295 14.888V16.28L109.463 17.384V18.008H109.775C109.855 18.024 109.919 18.032 109.967 18.032C110.015 18.032 110.071 18.032 110.135 18.032C110.327 18.032 110.503 18.024 110.663 18.008C110.839 17.976 111.007 17.944 111.167 17.912C111.327 17.864 111.495 17.808 111.671 17.744C111.847 17.68 112.055 17.616 112.295 17.552C112.343 17.456 112.415 17.368 112.511 17.288C112.607 17.208 112.703 17.128 112.799 17.048C112.895 16.968 112.975 16.88 113.039 16.784C113.103 16.688 113.135 16.576 113.135 16.448C113.135 16.096 113.039 15.808 112.847 15.584C112.655 15.344 112.519 15.2 112.439 15.152C112.343 15.104 112.199 15.048 112.007 14.984C111.815 14.92 111.615 14.864 111.407 14.816C111.199 14.768 110.999 14.728 110.807 14.696C110.615 14.648 110.463 14.624 110.351 14.624H110.255C110.159 14.656 110.071 14.688 109.991 14.72C109.911 14.736 109.823 14.76 109.727 14.792L109.295 14.888ZM121.374 10.544L121.134 12.344L120.798 12.584L119.67 12.368L118.23 12.608L118.158 12.32V10.04L118.734 9.848L119.502 10.016L120.558 10.208L121.374 10.544ZM121.542 18.536L121.398 19.448L121.518 20.024L121.062 20.24H119.214L118.926 20.336H118.494L118.254 20.072L118.758 14.264L119.166 14.072L120.126 14.144L120.318 14.048L120.822 14.072L121.11 14.384V16.04L121.278 16.64V17.768L121.134 18.2L121.542 18.536ZM126.02 11.408C126.1 11.168 126.22 10.984 126.38 10.856C126.54 10.712 126.74 10.592 126.98 10.496C127.22 10.384 127.516 10.28 127.868 10.184C128.22 10.088 128.612 9.968 129.044 9.824C129.06 9.776 129.148 9.752 129.308 9.752C129.484 9.752 129.668 9.752 129.86 9.752C130.068 9.752 130.252 9.744 130.412 9.728C130.588 9.696 130.684 9.64 130.7 9.56C130.844 9.592 130.964 9.616 131.06 9.632C131.156 9.648 131.244 9.656 131.324 9.656C131.42 9.656 131.516 9.656 131.612 9.656C131.724 9.656 131.86 9.656 132.02 9.656H132.404C132.436 9.688 132.468 9.728 132.5 9.776C132.532 9.808 132.564 9.84 132.596 9.872C132.66 9.872 132.716 9.944 132.764 10.088C132.812 10.216 132.868 10.368 132.932 10.544C132.996 10.72 133.068 10.88 133.148 11.024C133.228 11.168 133.332 11.24 133.46 11.24H133.508C133.524 11.272 133.532 11.376 133.532 11.552C133.548 11.712 133.564 11.888 133.58 12.08C133.612 12.256 133.644 12.424 133.676 12.584C133.708 12.744 133.748 12.84 133.796 12.872C133.812 13.304 133.836 13.616 133.868 13.808C133.916 14 133.956 14.152 133.988 14.264C134.036 14.36 134.076 14.448 134.108 14.528C134.156 14.592 134.188 14.688 134.204 14.816C134.204 14.816 134.204 14.88 134.204 15.008C134.22 15.12 134.236 15.248 134.252 15.392C134.268 15.52 134.292 15.648 134.324 15.776C134.356 15.904 134.396 15.968 134.444 15.968C134.428 15.968 134.412 15.976 134.396 15.992H134.324C134.34 16.36 134.348 16.688 134.348 16.976C134.364 17.264 134.372 17.544 134.372 17.816C134.388 18.072 134.404 18.344 134.42 18.632C134.452 18.92 134.476 19.248 134.492 19.616C134.428 19.744 134.372 19.848 134.324 19.928C134.276 19.992 134.244 20.064 134.228 20.144H133.892C133.764 20.08 133.676 20.008 133.628 19.928C133.42 19.928 133.236 19.944 133.076 19.976C132.916 19.992 132.772 20.016 132.644 20.048C132.532 20.08 132.42 20.104 132.308 20.12C132.196 20.136 132.076 20.144 131.948 20.144C131.788 20.144 131.596 20.088 131.372 19.976C131.148 19.848 130.932 19.784 130.724 19.784C130.532 19.784 130.38 19.808 130.268 19.856C130.172 19.888 130.1 19.936 130.052 20C130.02 20.048 129.988 20.088 129.956 20.12C129.94 20.168 129.916 20.192 129.884 20.192H129.86H128.54C128.332 20.192 128.124 20.184 127.916 20.168C127.708 20.168 127.484 20.168 127.244 20.168C127.036 20.168 126.796 20.112 126.524 20C126.252 19.872 125.988 19.712 125.732 19.52C125.476 19.312 125.26 19.088 125.084 18.848C124.908 18.592 124.82 18.336 124.82 18.08C124.82 17.28 125.004 16.608 125.372 16.064C125.756 15.52 126.332 15.056 127.1 14.672C127.42 14.592 127.676 14.512 127.868 14.432C128.06 14.352 128.228 14.28 128.372 14.216C128.532 14.136 128.684 14.08 128.828 14.048C128.972 14 129.148 13.976 129.356 13.976L130.076 13.568C130.22 13.568 130.348 13.568 130.46 13.568C130.572 13.552 130.684 13.536 130.796 13.52L131.492 13.472V13.328C131.492 13.184 131.5 13.032 131.516 12.872C131.532 12.696 131.58 12.512 131.66 12.32C131.66 12.224 131.628 12.16 131.564 12.128C131.5 12.08 131.452 12.032 131.42 11.984C131.34 11.952 131.284 11.912 131.252 11.864C131.236 11.8 131.22 11.736 131.204 11.672C131.188 11.608 131.148 11.552 131.084 11.504C131.036 11.456 130.948 11.432 130.82 11.432C130.58 11.432 130.268 11.472 129.884 11.552C129.516 11.632 129.132 11.728 128.732 11.84C128.348 11.952 127.988 12.064 127.652 12.176C127.332 12.272 127.092 12.336 126.932 12.368C126.884 12.368 126.828 12.32 126.764 12.224C126.7 12.128 126.628 12.016 126.548 11.888C126.484 11.76 126.404 11.648 126.308 11.552C126.228 11.456 126.132 11.408 126.02 11.408ZM131.228 15.44C131.084 15.408 130.924 15.368 130.748 15.32C130.588 15.272 130.428 15.224 130.268 15.176H130.172C130.044 15.176 129.908 15.192 129.764 15.224C129.636 15.256 129.492 15.296 129.332 15.344C129.012 15.424 128.708 15.496 128.42 15.56C128.132 15.624 127.876 15.728 127.652 15.872C127.444 16 127.276 16.192 127.148 16.448C127.036 16.704 126.98 17.056 126.98 17.504C126.98 17.728 127.012 17.896 127.076 18.008C127.156 18.12 127.252 18.272 127.364 18.464L129.044 18.368C129.3 18.352 129.564 18.336 129.836 18.32C130.108 18.304 130.404 18.28 130.724 18.248H131.06V18.056C131.06 17.928 131.068 17.728 131.084 17.456C131.1 17.184 131.148 16.92 131.228 16.664V15.44Z" fill="#1E1E1E" fill-opacity="0.75"/>
<path d="M145.928 4.284C146.696 4.32 146.894 4.974 146.906 5.28H147.98C147.932 4.092 147.086 3.366 145.91 3.366C144.584 3.366 143.6 4.2 143.6 6.084C143.6 7.248 144.158 8.628 145.904 8.628C147.236 8.628 147.95 7.638 147.968 6.858H146.894C146.876 7.212 146.624 7.686 145.916 7.722C145.13 7.698 144.8 7.086 144.8 6.084C144.8 4.35 145.568 4.296 145.928 4.284ZM146 0C142.688 0 140 2.688 140 6C140 9.312 142.688 12 146 12C149.312 12 152 9.312 152 6C152 2.688 149.312 0 146 0ZM146 10.8C143.354 10.8 141.2 8.646 141.2 6C141.2 3.354 143.354 1.2 146 1.2C148.646 1.2 150.8 3.354 150.8 6C150.8 8.646 148.646 10.8 146 10.8Z" fill="#1E1E1E" fill-opacity="0.75"/>
</svg>
