<?xml version="1.0" encoding="UTF-8"?>
<svg id="Capa_2" data-name="Capa 2" xmlns="http://www.w3.org/2000/svg" viewBox="0 0 52.12 79.81">
  <defs>
    <style>
      .cls-1 {
        fill: #dfc0ff;
      }

      .cls-2 {
        fill: #3c096c;
      }
    </style>
  </defs>
  <g id="Capa_5" data-name="Capa 5">
    <g id="girls_icon" data-name="girls icon">
      <path class="cls-1" d="m31.73,5.3c-2.64-.84-5.41-.89-8.22-.63-3.93.38-7.48,1.66-10.62,3.97-5.59,4.11-8.23,9.87-8.56,16.66-.29,5.9,1.55,11.18,5.72,15.45,2.33,2.39,4.98,4.41,8.42,5.02.16.03.38.12.45.25.36.7,1,.75,1.67.86,2.1.33,3.15,1.33,3.17,3.11.04,2.56.03,5.12-.02,7.67-.03,1.66-.98,2.54-2.62,2.55-2.02.01-4.04-.02-6.06.01-1.37.02-2.32.85-2.4,2.03-.09,1.27.5,1.98,1.95,2.28.57.11,1.15.17,1.73.18,1.75.05,3.5.1,5.25.09,1,0,1.54.47,1.9,1.36.27.66.23,1.31.26,1.98.09,1.88-.18,3.77.2,5.64.2,1.02.78,1.55,1.85,1.57,1.56.02,2.24-.55,2.28-2.14.04-1.75,0-3.5,0-5.25,0-2.14.79-3.3,3.09-3.18,1.66.09,3.32.02,4.98,0,.44,0,.9-.03,1.32-.16,1.39-.42,2.03-1.28,1.87-2.4-.18-1.26-1.1-1.99-2.56-2.01-.99-.01-1.97,0-2.96,0-1.03,0-2.06.01-3.1,0-1.44-.02-2.28-.66-2.47-2.09-.37-2.81-.21-5.64-.12-8.47.03-1.14.75-2.05,1.94-2.28,1.28-.24,2.48-.66,3.69-1.12,6.82-2.63,11.1-7.59,13.11-14.51,1.22-4.21.86-8.39-.45-12.6-2.32-7.43-7.63-11.59-14.69-13.85Zm-5.54,38.06c-11.03.05-17.3-7.65-17.4-17.24-.1-9.75,6.93-17.48,18.11-17.28,9.11.16,16.3,8.02,16.2,17.24.09,9.9-7.77,17.24-16.91,17.29Z"/>
      <path class="cls-2" d="m52.09,26.28c-.11,6.56-2.37,12.35-6.73,17.2-3.24,3.6-7.16,6.33-11.96,7.58-.04.01-.11,0-.13.02-1.25,1.28-.38,2.85-.54,4.27-.1.89.78.48,1.23.5,1.21.06,2.42.03,3.63.06,2.49.07,4.83,1.48,6.04,4.66.77,2.03-.29,5.19-2.08,6.81-1.52,1.38-3.34,1.53-5.21,1.67-1.19.09-2.77-.55-3.45.3-.58.72-.17,2.23-.21,3.39-.08,2.95-1.24,5.17-4.05,6.49-3.97,1.87-9.02-1.11-9.15-5.49-.03-1.12-.08-2.25.02-3.36.1-1.12-.37-1.35-1.37-1.34-1.82.03-3.64.09-5.45-.43-4.13-1.21-5.64-6.37-3.29-9.91,1.34-2.01,3.21-2.8,5.54-2.79,1.21,0,2.42-.08,3.63-.08.68,0,1.01-.26.92-.96-.01-.09,0-.18,0-.27.05-3.22.04-3.19-2.9-4.31-6.1-2.32-10.77-6.25-13.7-12.16C.04,32.38-.73,26.31.71,20.11c1.32-5.64,4.14-10.49,8.78-14.22,3-2.41,6.3-3.98,10-5.01,3.89-1.08,7.78-1.13,11.64-.39,4.72.91,9.06,2.95,12.54,6.31,3.65,3.52,6.37,7.7,7.61,12.73.55,2.22.97,4.44.82,6.75Zm-18.21,33.93c-1.03,0-2.06.01-3.1,0-1.44-.02-2.28-.66-2.47-2.09-.37-2.81-.21-5.64-.12-8.47.03-1.14.75-2.05,1.94-2.28,1.28-.24,2.48-.66,3.69-1.12,6.82-2.63,11.1-7.59,13.11-14.51,1.22-4.21.86-8.39-.45-12.6-2.32-7.43-7.63-11.59-14.69-13.85-2.64-.84-5.41-.89-8.22-.63-3.93.38-7.48,1.66-10.62,3.97-5.59,4.11-8.23,9.87-8.56,16.66-.29,5.9,1.55,11.18,5.72,15.45,2.33,2.39,4.98,4.41,8.42,5.02.16.03.38.12.45.25.36.7,1,.75,1.67.86,2.1.33,3.15,1.33,3.17,3.11.04,2.56.03,5.12-.02,7.67-.03,1.66-.98,2.54-2.62,2.55-2.02.01-4.04-.02-6.06.01-1.37.02-2.32.85-2.4,2.03-.09,1.27.5,1.98,1.95,2.28.57.11,1.15.17,1.73.18,1.75.05,3.5.1,5.25.09,1,0,1.54.47,1.9,1.36.27.66.23,1.31.26,1.98.09,1.88-.18,3.77.2,5.64.2,1.02.78,1.55,1.85,1.57,1.56.02,2.24-.55,2.28-2.14.04-1.75,0-3.5,0-5.25,0-2.14.79-3.3,3.09-3.18,1.66.09,3.32.02,4.98,0,.44,0,.9-.03,1.32-.16,1.39-.42,2.03-1.28,1.87-2.4-.18-1.26-1.1-1.99-2.56-2.01-.99-.01-1.97,0-2.96,0Z"/>
      <path class="cls-2" d="m43.18,26.07c.09,9.9-7.77,17.24-16.91,17.29-11.03.05-17.3-7.65-17.4-17.24-.1-9.75,6.93-17.48,18.11-17.28,9.11.16,16.3,8.02,16.2,17.24Zm-4.3-.05c.06-7.03-5.73-12.94-13.04-12.81-7.28.13-12.65,5.73-12.72,13.05-.07,6.71,5.67,12.88,13.15,12.72,6.48-.14,12.76-5.57,12.62-12.95Z"/>
    </g>
  </g>
</svg>