<?xml version="1.0" encoding="UTF-8"?>
<svg id="Capa_2" data-name="Capa 2" xmlns="http://www.w3.org/2000/svg" viewBox="0 0 69.19 85.62">
  <defs>
    <style>
      .cls-1 {
        fill: #dfc0ff;
      }

      .cls-2 {
        fill: #7025be;
      }

      .cls-3 {
        fill: #b683ec;
      }
    </style>
  </defs>
  <g id="Capa_5" data-name="Capa 5">
    <g id="confirmacion_2" data-name="confirmacion 2">
      <g>
        <path class="cls-1" d="m50.59,76.38c-1.92-.03-3.84-.02-5.76,0-.45,0-.91.07-1.33.25-1.22.51-1.57,1.76-1.41,2.69.23,1.31,1.18,2.08,2.46,2.1,1.03,0,2.06,0,3.1,0,1.08,0,2.16,0,3.24,0,1.13,0,2.53-1.03,2.45-2.43-.09-1.56-1.06-2.58-2.76-2.61Z"/>
        <path class="cls-1" d="m44.6,58.06c3.19,0,6.39,0,9.58,0,.64,0,1.17-.24,1.65-.59.77-.54,1.2-1.86.9-2.62-.44-1.12-1.28-1.88-2.41-1.87-1.61.03-3.22,0-4.83,0h0c-.82,0-1.63-.01-2.45,0s-1.63.05-2.45,0c-1.25-.07-2.54,1-2.54,2.52,0,1.4,1.13,2.54,2.55,2.54Z"/>
        <path class="cls-1" d="m39.31,71c.02-1.01.33-1.9.85-2.73.17-.26.2-.36-.07-.55-.94-.64-1.67-1.46-2.08-2.54-.11-.29-.22-.35-.51-.12-.75.58-1.54,1.12-2.32,1.66-.73.5-1.65.37-2.08-.28-.46-.69-.27-1.38.54-1.92,1.32-.88,2.63-1.78,3.69-2.98,1.22-1.38,2.02-2.92,1.87-4.83-.09-1.12-.52-2.09-1.05-3.06-.65-1.21-.93-1.14.17-2.4,1.32-1.52,2.16-3.2,2.04-5.3-.09-1.51-.01-3.03-.02-4.54,0-.91-.06-1.84-.35-2.69-1-2.97-3.02-4.92-6.04-5.83-.54-.16-.71-.02-.7.56.03,2.04.03,4.08,0,6.13,0,.71-.06,1.44-.2,2.14-.48,2.34-1.65,4.3-3.28,6.04-2.03,2.18-4.49,3.79-6.88,5.5-.41.3-.47.58-.47,1,0,4.08,0,8.17,0,12.25h0c0,4.16,0,8.31,0,12.47,0,.3.06.53.31.75,2.38,1.97,5.08,3.02,8.19,3.01,1.34,0,2.69.01,4.03-.14,1.63-.18,3.26-.42,4.87-.73.35-.07.25-.27.14-.48-1.11-2.11-.81-4.08.68-5.87.36-.43.28-.62-.03-.99-.84-1.01-1.32-2.16-1.3-3.51Z"/>
        <path class="cls-3" d="m18.81,54.3c-2.62.03-5.24.02-7.86,0-.49,0-.65.12-.65.63.02,7.66.02,15.32,0,22.98,0,.48.1.68.62.67,2.74-.03,5.48-.04,8.22-.03.45,0,.42-.22.42-.53,0-3.84,0-7.69,0-11.53,0-3.82-.02-7.64.02-11.46,0-.61-.17-.75-.76-.74Z"/>
        <path class="cls-3" d="m30.99,13.93c-.01.62-.14,1.22-.32,1.82-.28.92-.51,1.86-.82,3.01,1.35-.86,2.5-1.6,3.66-2.33.74-.47,1.43-.44,2.17.05,1.12.74,2.26,1.46,3.38,2.18.17-.16.15-.32.11-.44-.39-1.12-.62-2.28-.93-3.42-.3-1.09-.1-1.75.77-2.44.96-.76,1.97-1.48,2.83-2.36-.14-.24-.34-.24-.53-.25-1.08-.06-2.16-.11-3.24-.15-.26-.01-.51-.04-.77-.13-1.03-.36-1.24-1.3-1.56-2.15-.37-.97-.74-1.94-1.16-3.07-.25.66-.42,1.15-.61,1.63-.3.8-.57,1.61-.92,2.38-.38.83-1.04,1.31-2.01,1.34-1.32.04-2.64.12-4.14.2.96.76,1.78,1.36,2.55,2.03.66.58,1.58.99,1.56,2.09Z"/>
        <path class="cls-1" d="m12.85,29.55c1.15.75,2.3,1.49,3.58,2.31-.13-1.19-.48-2.2-.8-3.19-.48-1.49-.36-2.25.79-3.29.35-.32.75-.6,1.1-.92.48-.44,1.1-.73,1.45-1.39-.29-.07-.54-.17-.79-.19-.98-.07-1.96-.12-2.95-.16-.69-.03-1.21-.27-1.62-.86-.4-.58-.53-1.26-.82-1.88-.36-.8-.57-1.66-1.04-2.49-.51,1.31-.99,2.53-1.46,3.76-.38,1.01-1.01,1.48-2.09,1.47-1.22,0-2.43.14-3.79.28.33.36.55.61.84.83.74.56,1.46,1.15,2.18,1.75.62.52.92,1.16.74,2.02-.22,1.05-.53,2.06-.82,3.08-.1.34-.27.69-.16,1.12,1.2-.78,2.35-1.53,3.51-2.27.7-.44,1.41-.46,2.13,0Z"/>
        <path class="cls-1" d="m53,68.58c-2.74,0-5.48,0-8.22,0-.77,0-1.47.21-2.01.76-.81.82-.89,1.81-.49,2.84.39,1,1.23,1.42,2.24,1.44,1.44.04,2.88.01,4.32.01,1.42,0,2.84.03,4.25,0,1.62-.04,2.56-1.07,2.53-2.71-.02-1.33-1.15-2.34-2.63-2.34Z"/>
        <path class="cls-1" d="m58.96,21.59c-.29-.75-.55-1.51-.89-2.24-.26-.55-.26-1.24-.8-1.69-.11.16-.22.26-.27.39-.37,1-.75,1.99-1.09,3-.4,1.2-1.03,1.65-2.3,1.69-1.23.03-2.46.13-3.82.21.98.98,2,1.68,2.95,2.45,1,.8,1.23,1.38.9,2.63-.3,1.17-.62,2.33-.96,3.62.43-.11.7-.23.97-.41.83-.56,1.68-1.08,2.51-1.63.79-.52,1.55-.49,2.33.03,1.12.75,2.25,1.47,3.54,2.3-.39-1.49-.71-2.82-1.09-4.12-.19-.65-.21-1.45.59-2.1,1.04-.85,2.08-1.71,3.23-2.65-1.45-.25-2.75-.32-4.06-.33-.82,0-1.42-.35-1.73-1.14Z"/>
        <path class="cls-1" d="m55.91,60.79c-2.14,0-4.28,0-6.41,0-2.19,0-4.37,0-6.56,0-1.46,0-2.39,1.01-2.49,2.44-.11,1.6,1.3,2.64,2.47,2.62,4.3-.04,8.6-.03,12.9,0,.51,0,.95-.14,1.36-.36.83-.45,1.44-1.84,1.21-2.64-.38-1.33-1.26-2.06-2.48-2.06Z"/>
      </g>
      <g>
        <path class="cls-2" d="m41.98,50.95c1.07-.55,2.17-.66,3.33-.65,3.08.04,6.16.03,9.23,0,1.94-.01,3.88,1.49,4.56,3.13.7,1.71.69,3.36-.4,4.93-.16.23-.18.41.13.63,1.9,1.37,2.69,3.28,2.27,5.55-.32,1.69-1.45,2.91-3.03,3.61-.4.17-.41.29-.22.61,1.54,2.65.06,5.84-2.07,6.93-.4.21-.52.4-.26.9,1.85,3.51-.81,7.46-4.28,7.61-2.52.1-5.04.2-7.55-.13-.85-.11-1.64.25-2.46.37-3.33.5-6.64,1.26-10.02,1.17-3.74-.09-7.19-1.16-10.04-3.73-.45-.41-.93-.58-1.55-.58-3.49.03-6.97.02-10.46.01-.99,0-1.54-.53-1.54-1.54,0-8.84,0-17.69,0-26.53,0-1,.66-1.64,1.65-1.64,3.49,0,6.97-.01,10.46.01.65,0,1.17-.15,1.71-.55,1.88-1.41,3.81-2.74,5.58-4.28,1.7-1.48,2.83-3.32,3.36-5.51.14-.57.16-1.18.16-1.78.02-2.55,0-5.09,0-7.64,0-1.46.5-1.96,1.94-1.87,3.1.2,5.73,1.41,7.79,3.75,1.88,2.13,2.81,4.65,2.83,7.49.01,1.73-.06,3.46.02,5.19.07,1.63-.38,3.08-1.14,4.53Zm-19.53,15.59h0c0,4.16,0,8.31,0,12.47,0,.3.06.53.31.75,2.38,1.97,5.08,3.02,8.19,3.01,1.34,0,2.69.01,4.03-.14,1.63-.18,3.26-.42,4.87-.73.35-.07.25-.27.14-.48-1.11-2.11-.81-4.08.68-5.87.36-.43.28-.62-.03-.99-.84-1.01-1.32-2.16-1.3-3.51.02-1.01.33-1.9.85-2.73.17-.26.2-.36-.07-.55-.94-.64-1.67-1.46-2.08-2.54-.11-.29-.22-.35-.51-.12-.75.58-1.54,1.12-2.32,1.66-.73.5-1.65.37-2.08-.28-.46-.69-.27-1.38.54-1.92,1.32-.88,2.63-1.78,3.69-2.98,1.22-1.38,2.02-2.92,1.87-4.83-.09-1.12-.52-2.09-1.05-3.06-.65-1.21-.93-1.14.17-2.4,1.32-1.52,2.16-3.2,2.04-5.3-.09-1.51-.01-3.03-.02-4.54,0-.91-.06-1.84-.35-2.69-1-2.97-3.02-4.92-6.04-5.83-.54-.16-.71-.02-.7.56.03,2.04.03,4.08,0,6.13,0,.71-.06,1.44-.2,2.14-.48,2.34-1.65,4.3-3.28,6.04-2.03,2.18-4.49,3.79-6.88,5.5-.41.3-.47.58-.47,1,0,4.08,0,8.17,0,12.25Zm-2.87,0c0-3.82-.02-7.64.02-11.46,0-.61-.17-.75-.76-.74-2.62.03-5.24.02-7.86,0-.49,0-.65.12-.65.63.02,7.66.02,15.32,0,22.98,0,.48.1.68.62.67,2.74-.03,5.48-.04,8.22-.03.45,0,.42-.22.42-.53,0-3.84,0-7.69,0-11.53Zm29.94-5.7c-2.19,0-4.37,0-6.56,0-1.46,0-2.39,1.01-2.49,2.44-.11,1.6,1.3,2.64,2.47,2.62,4.3-.04,8.6-.03,12.9,0,.51,0,.95-.14,1.36-.36.83-.45,1.44-1.84,1.21-2.64-.38-1.33-1.26-2.06-2.48-2.06-2.14,0-4.28,0-6.41,0Zm0-7.79h0c-.82,0-1.63-.01-2.45,0-.82,0-1.63.05-2.45,0-1.25-.07-2.54,1-2.54,2.52,0,1.4,1.13,2.54,2.55,2.54,3.19,0,6.39,0,9.58,0,.64,0,1.17-.24,1.65-.59.77-.54,1.2-1.86.9-2.62-.45-1.12-1.28-1.88-2.41-1.87-1.61.03-3.22,0-4.83,0Zm-.64,20.64c1.42,0,2.84.03,4.25,0,1.62-.04,2.56-1.07,2.53-2.71-.02-1.33-1.15-2.34-2.63-2.34-2.74,0-5.48,0-8.22,0-.77,0-1.47.21-2.01.76-.81.82-.89,1.81-.49,2.84.39,1,1.23,1.42,2.24,1.44,1.44.04,2.88.01,4.32.01Zm-1.2,7.78c1.08,0,2.16,0,3.24,0,1.13,0,2.53-1.03,2.45-2.43-.09-1.56-1.06-2.58-2.76-2.61-1.92-.03-3.84-.02-5.76,0-.45,0-.91.07-1.33.25-1.22.51-1.57,1.76-1.41,2.69.23,1.31,1.18,2.08,2.46,2.1,1.03,0,2.06,0,3.1,0Z"/>
        <path class="cls-2" d="m4.81,20.19c.92.11,1.82-.17,2.73-.15.23,0,.4-.05.49-.31.61-1.66,1.24-3.31,1.85-4.97.44-1.18.92-1.63,1.86-1.64.97-.01,1.54.35,1.9,1.3.64,1.7,1.27,3.4,1.88,5.11.14.39.33.49.72.53,1.79.22,3.61,0,5.4.26.79.12,1.54.27,1.87,1.18.33.92.27,1.45-.5,2.09-1.31,1.09-2.64,2.16-3.99,3.2-.96.74-.94.74-.58,1.88.43,1.35.77,2.73,1.12,4.11.05.18.09.36.16.54.31.8.12,1.5-.54,2.04-.8.65-1.4.71-2.21.18-1.53-1-3.05-2-4.57-3.01-.44-.29-.79-.27-1.23.03-1.52,1.01-3.06,2-4.6,2.98-.79.5-1.42.44-2.15-.15-.55-.45-.74-1.21-.54-1.93.5-1.82.97-3.65,1.48-5.46.1-.36.02-.55-.27-.78-1.38-1.09-2.72-2.23-4.1-3.32-.75-.59-1.21-1.25-.9-2.26.3-.96,1.06-1.23,1.91-1.28.93-.05,1.86-.28,2.8-.17Zm-.36,2.87c.33.36.55.61.84.83.74.56,1.46,1.15,2.18,1.75.62.52.92,1.16.74,2.02-.22,1.05-.53,2.06-.82,3.08-.1.34-.27.69-.16,1.12,1.2-.78,2.35-1.53,3.51-2.27.7-.44,1.41-.46,2.13,0,1.15.75,2.3,1.49,3.58,2.31-.13-1.19-.48-2.2-.8-3.19-.48-1.49-.36-2.25.79-3.29.35-.32.75-.6,1.1-.92.48-.44,1.1-.73,1.45-1.39-.29-.07-.54-.17-.79-.19-.98-.07-1.96-.12-2.95-.16-.69-.03-1.21-.27-1.62-.86-.4-.58-.53-1.26-.82-1.88-.36-.8-.57-1.66-1.04-2.49-.51,1.31-.99,2.53-1.46,3.76-.38,1.01-1.01,1.48-2.09,1.47-1.22,0-2.43.14-3.79.28Z"/>
        <path class="cls-2" d="m50.3,20.19c.92.11,1.82-.18,2.73-.14.38.02.49-.22.59-.5.63-1.71,1.26-3.42,1.9-5.12.33-.88.92-1.31,1.76-1.31.89,0,1.48.43,1.82,1.33.67,1.76,1.38,3.51,2.01,5.29.14.4.38.28.61.31,1.81.25,3.65.03,5.47.27,1.16.15,1.68.54,1.95,1.55.21.78-.16,1.33-.71,1.79-1.31,1.1-2.64,2.18-3.97,3.25-1.01.81-.77.55-.49,1.73.39,1.65.92,3.28,1.33,4.93.2.8-.1,1.53-.79,2-.64.43-1.3.44-1.99-.02-1.51-1.02-3.08-1.96-4.58-2.99-.49-.34-.85-.31-1.29-.01-1.52,1.01-3.06,1.99-4.58,3.01-.63.43-1.21.44-1.83.05-.72-.45-1.05-1.11-.9-1.93.15-.86.39-1.71.62-2.55.3-1.09.62-2.18.97-3.25.1-.31-.06-.46-.24-.61-1.36-1.1-2.71-2.22-4.1-3.28-.79-.6-1.3-1.31-1-2.32.28-.94,1.1-1.27,2-1.3.91-.03,1.81-.28,2.73-.17Zm2.41,11.5c.43-.11.7-.23.97-.41.83-.56,1.68-1.08,2.51-1.63.79-.52,1.55-.49,2.33.03,1.12.75,2.25,1.47,3.54,2.3-.39-1.49-.71-2.82-1.09-4.12-.19-.65-.21-1.45.59-2.1,1.04-.85,2.08-1.71,3.23-2.65-1.45-.25-2.75-.32-4.06-.33-.82,0-1.42-.35-1.73-1.14-.29-.75-.55-1.51-.89-2.24-.26-.55-.26-1.24-.8-1.69-.11.16-.22.26-.27.39-.37,1-.75,1.99-1.09,3-.4,1.2-1.03,1.65-2.3,1.69-1.23.03-2.46.13-3.82.21.98.98,2,1.68,2.95,2.45,1,.8,1.23,1.38.9,2.63-.3,1.17-.62,2.33-.96,3.62Z"/>
        <path class="cls-2" d="m27.62,7.06c.92.09,1.82-.18,2.73-.14.28.01.38-.15.46-.36.64-1.73,1.27-3.46,1.92-5.18C33.08.45,33.76-.02,34.67,0c.93.02,1.48.55,1.93,1.79.56,1.55,1.17,3.09,1.7,4.65.14.43.36.46.72.5,1.79.22,3.6.02,5.4.25,1.12.15,1.69.51,1.94,1.47.14.54.05,1.03-.33,1.47-1.01,1.15-2.29,1.98-3.44,2.97-.31.26-.62.55-.97.72-.71.34-.68.87-.5,1.48.5,1.75,1,3.5,1.47,5.26.19.72-.15,1.31-.7,1.75-.69.55-1.37.61-2.04.17-1.39-.9-2.78-1.8-4.14-2.74-1.1-.76-1.22-.75-2.47.1-1.33.91-2.68,1.78-4.02,2.65-.69.45-1.37.31-1.97-.18-.54-.45-.84-1.02-.65-1.76.5-1.92.98-3.84,1.51-5.75.11-.4-.09-.59-.33-.78-1.4-1.13-2.82-2.23-4.19-3.4-.63-.54-.98-1.23-.69-2.16.32-1.01,1.12-1.18,1.95-1.23.93-.06,1.86-.29,2.8-.17Zm2.25,11.74c1.35-.86,2.5-1.6,3.66-2.33.74-.47,1.43-.44,2.17.05,1.12.74,2.26,1.46,3.38,2.18.17-.16.15-.32.11-.44-.39-1.12-.62-2.28-.93-3.42-.3-1.09-.1-1.75.77-2.44.96-.76,1.97-1.48,2.83-2.36-.14-.24-.34-.24-.53-.25-1.08-.06-2.16-.11-3.24-.15-.26-.01-.51-.04-.77-.13-1.03-.36-1.24-1.3-1.56-2.15-.37-.97-.74-1.94-1.16-3.07-.25.66-.42,1.15-.61,1.63-.3.8-.57,1.61-.92,2.38-.38.83-1.04,1.31-2.01,1.34-1.32.04-2.64.12-4.14.2.96.76,1.78,1.36,2.55,2.03.66.58,1.58.99,1.56,2.09-.01.62-.14,1.22-.32,1.82-.28.92-.51,1.86-.82,3.01Z"/>
      </g>
    </g>
  </g>
</svg>