<?xml version="1.0" encoding="UTF-8"?>
<svg id="Capa_2" data-name="Capa 2" xmlns="http://www.w3.org/2000/svg" viewBox="0 0 37.57 61.58">
  <defs>
    <style>
      .cls-1 {
        fill: #fff;
      }
    </style>
  </defs>
  <g id="Capa_1-2" data-name="Capa 1">
    <g id="help_icon" data-name="help icon">
      <path class="cls-1" d="m18.71,52.86c-2.45-.02-4.32,1.86-4.32,4.34-.06,2.38,1.76,4.39,4.37,4.38,2.42,0,4.37-1.61,4.36-4.38,0-2.54-1.76-4.31-4.41-4.33Z"/>
      <path class="cls-1" d="m34.67,8.67c-1.7-2.68-3.93-4.78-6.71-6.31C25.65,1.1,23.21.25,20.57.08c-2.14-.15-4.3-.12-6.39.43-2.26.59-4.33,1.61-6.29,2.93C4.38,5.81,2.23,9.16.8,13.04.09,14.97,0,17.02,0,19.09c0,2.13,2.08,4.05,4.11,4.13,2.65.1,4.69-2,4.73-4.79.04-2.87,1.17-5.25,3.35-7.12,2.38-2.04,5.09-2.79,8.19-2.29,3.3.53,5.66,2.33,7.24,5.22.94,1.72,1.15,3.55.98,5.51-.26,2.99-1.5,5.4-3.99,7.06-2.67,1.78-5.08,3.78-6.87,6.51-2.22,3.38-3.5,7.01-3.32,11.07.08,1.88,1.24,3.22,2.89,3.77,1.89.63,3.89-.07,4.95-1.43.93-1.19.9-2.62,1.08-3.96.41-2.92,1.76-5.21,4.06-7,1.46-1.14,3.14-1.99,4.45-3.35,3.63-3.79,5.8-8.19,5.71-13.79.09-1-.04-2.21-.28-3.41-.47-2.33-1.32-4.52-2.6-6.54Z"/>
    </g>
  </g>
</svg>