<svg width="32" height="31" viewBox="0 0 32 31" fill="none" xmlns="http://www.w3.org/2000/svg">
<g clip-path="url(#clip0_353_3487)">
<path d="M27.5347 13.2989C26.9523 13.2989 26.3655 13.2989 25.783 13.2989C25.7226 13.2989 25.6277 13.2553 25.6018 13.3643C25.563 13.5386 25.7615 13.7958 25.9341 13.7958C27.0385 13.7958 28.143 13.7958 29.2432 13.8045C29.4891 13.8045 29.4632 13.6607 29.4805 13.5038C29.5021 13.3163 29.4072 13.2989 29.2562 13.2989C28.6823 13.3076 28.1085 13.2989 27.5304 13.2989H27.5347Z" fill="#DFC0FF"/>
<path d="M28.1646 15.9229C28.1171 15.5786 28.061 15.2342 28.0136 14.8899C28.0006 14.7765 27.9575 14.7373 27.841 14.7373C27.1636 14.7417 26.4863 14.746 25.8089 14.7373C25.6708 14.7373 25.6536 14.8201 25.6147 14.916C25.3559 15.5916 24.9892 16.2106 24.5879 16.8077C24.4067 17.078 24.1263 17.248 23.8113 17.3439C23.6603 17.3918 23.6085 17.4746 23.5999 17.6403C23.574 18.1808 23.505 18.7169 23.423 19.2487C23.3195 19.92 23.2504 20.5912 23.1685 21.2625C23.1685 21.2712 23.1685 21.2799 23.1685 21.2886C23.1685 21.4586 23.0175 21.6722 23.1469 21.7855C23.2806 21.9076 23.5136 21.8291 23.7035 21.8291C25.3516 21.8291 26.9954 21.8291 28.6435 21.8335C28.829 21.8335 28.9282 21.8422 28.8894 21.5807C28.8031 21.0532 28.747 20.5171 28.6866 19.9853L28.2897 16.9211C28.2897 16.9211 28.2897 16.9124 28.2897 16.908L28.2767 16.8121C28.2379 16.5113 28.2077 16.2149 28.1646 15.9142V15.9229Z" fill="#DFC0FF"/>
<path d="M23.6947 9.07087C23.6732 9.51547 23.6947 9.95571 23.8112 10.3785C23.9924 11.0411 24.3505 11.6077 24.7776 12.1395C24.9243 12.3226 25.071 12.3705 25.2824 12.3661C25.7009 12.3531 26.1237 12.3661 26.5422 12.3661C26.9607 12.3661 27.3836 12.3574 27.802 12.3661C28.0005 12.3705 28.1429 12.3138 28.3068 12.1744C29.2733 11.3462 29.5968 9.78572 29.2258 8.55653C28.8461 7.29247 27.4267 6.21584 26.0892 6.23763C25.5758 6.24635 25.0753 6.31173 24.6094 6.52967C24.2901 6.67787 23.9881 6.8653 23.7249 7.10504C23.6732 7.15298 23.6041 7.18785 23.6343 7.28375C23.8112 7.87219 23.7206 8.47371 23.6947 9.06651V9.07087Z" fill="#DFC0FF"/>
<path d="M10.389 27.6786C12.1536 27.6699 13.9182 27.6786 15.6828 27.6786C17.4301 27.6786 19.1775 27.6786 20.9205 27.6786C21.0025 27.6786 21.0845 27.6786 21.1664 27.6742C21.27 27.6742 21.3174 27.6219 21.3002 27.5173C21.2484 27.2078 21.1621 26.9114 20.9507 26.6717C20.7048 26.3927 20.4244 26.1443 20.2043 25.8392C19.6866 25.12 19.4493 24.3005 19.3199 23.4287C19.2422 22.9187 19.3975 22.958 18.8064 22.958C17.0246 22.958 15.2384 22.958 13.4566 22.958C13.0898 22.958 12.7231 22.958 12.3607 22.958C12.2529 22.958 12.1536 22.9667 12.145 23.1062C12.1191 23.5203 11.9983 23.9126 11.9206 24.3136C11.761 25.133 11.4288 25.8653 10.8118 26.4494C10.5314 26.7153 10.2725 26.9986 10.1604 27.3996C10.087 27.6524 10.1604 27.6917 10.3933 27.6873L10.389 27.6786Z" fill="#DFC0FF"/>
<path d="M14.449 6.99162C14.1557 8.01158 14.229 9.01847 14.6605 9.99485C14.8848 10.4961 15.1998 10.9276 15.5967 11.3069C16.1446 11.8343 16.822 12.1525 17.4605 12.536C18.5305 13.1768 19.6307 13.7652 20.6834 14.4365C20.9077 14.5803 21.0976 14.7765 21.0846 15.0772C21.076 15.317 21.1925 15.4565 21.3823 15.5567C21.8569 15.8095 22.3099 16.1059 22.7759 16.3805C23.2116 16.6377 23.7121 16.5723 23.9796 16.0623C24.1651 15.7093 24.4024 15.3824 24.5793 15.0249C24.8727 14.4409 24.9848 13.9134 24.4887 13.2553C24.2298 12.9153 23.9753 12.5666 23.7121 12.2309C22.9182 11.2153 22.6378 10.0297 22.7543 8.77874C22.8622 7.61493 22.6551 6.57753 21.9691 5.64038C21.3694 4.82528 20.5712 4.29786 19.6048 4.02325C19.1863 3.90556 18.7591 3.92736 18.332 3.923C18.0386 3.91864 17.8359 3.76608 17.7539 3.48712C17.5727 2.85944 17.3872 2.23177 17.2146 1.6041C17.1758 1.46898 17.1499 1.33821 17.0377 1.19873C16.7745 1.59103 16.6408 1.98768 16.6451 2.43228C16.6451 2.95098 16.6451 3.46532 16.6451 3.98402C16.6451 4.18889 16.5804 4.35016 16.4035 4.47657C16.1403 4.664 15.8685 4.83399 15.6312 5.06937C15.0789 5.61858 14.6691 6.25497 14.4534 6.99597L14.449 6.99162Z" fill="#DFC0FF"/>
<path d="M18.4658 2.72425C18.496 2.82886 18.5176 2.99449 18.6945 2.98578C19.3373 2.95962 19.9457 3.11218 20.5368 3.36499C20.6403 3.40858 20.6662 3.33448 20.705 3.27782C20.856 3.05552 20.9855 2.80706 21.1667 2.60656C21.3392 2.41041 21.2961 2.30144 21.0847 2.22734C20.2908 1.94402 19.4884 1.70864 18.6384 1.70864C18.5651 1.70864 18.4917 1.71736 18.4184 1.70864C18.2199 1.68249 18.194 1.80453 18.2458 1.93966C18.345 2.19683 18.3882 2.46707 18.4702 2.72425H18.4658Z" fill="#DFC0FF"/>
<path d="M22.5041 23.0495C22.4998 23.2544 22.5774 23.2892 22.7586 23.2892C23.8286 23.2805 24.8986 23.2892 25.9685 23.2892C27.0558 23.2892 28.143 23.2849 29.2302 23.2936C29.4546 23.2936 29.5279 23.2239 29.5366 22.9972C29.5452 22.7487 29.3942 22.7836 29.2561 22.7836C27.0903 22.7836 24.9245 22.7836 22.7543 22.7749C22.53 22.7749 22.5084 22.8664 22.5041 23.0539V23.0495Z" fill="#DFC0FF"/>
<path d="M10.8422 18.961C10.6783 19.7674 10.9846 20.2773 11.7569 20.2817C14.38 20.2948 17.0032 20.2904 19.6264 20.2861C20.1311 20.2861 20.4806 19.9286 20.4806 19.4186C20.4806 18.621 20.2519 17.8713 19.9931 17.1259C19.7126 16.3064 19.2596 15.5611 18.936 14.7591C18.8498 14.5411 18.7548 14.3363 18.5262 14.2098C17.5943 13.6911 16.6494 13.1855 15.752 12.6145C14.7554 11.9825 14.0737 11.0715 13.6595 9.94691C13.474 9.43257 13.3877 8.90079 13.3618 8.36902C13.3359 7.78493 13.3963 7.20957 13.5862 6.64292C13.7156 6.25498 13.9054 5.89756 14.0651 5.49219C13.7113 5.64039 13.4783 5.88884 13.2496 6.12858C12.7794 6.62112 12.3781 7.17034 12.0589 7.78493C11.5843 8.70465 11.2521 9.66795 11.2089 10.701C11.127 12.6189 11.2391 14.5411 11.1442 16.4634C11.1011 17.3046 11.0062 18.1415 10.8379 18.9697L10.8422 18.961Z" fill="#DFC0FF"/>
<path d="M15.7216 21.2187V21.2274C14.4705 21.2274 13.2193 21.2274 11.9681 21.2274C11.4547 21.2274 11.4633 21.2274 11.4719 21.7461C11.4719 21.9205 11.541 21.9728 11.692 21.9728C11.9379 21.9728 12.1838 21.9815 12.4297 21.9815C14.8156 21.9815 17.1972 21.9859 19.583 21.9859C19.9239 21.9859 19.9368 21.9466 19.9541 21.5238C19.967 21.2231 19.8074 21.2144 19.583 21.2144C18.293 21.2187 17.0073 21.2144 15.7173 21.2144L15.7216 21.2187Z" fill="#DFC0FF"/>
<path d="M4.15907 9.3628C5.44908 9.3628 6.73909 9.35844 8.0291 9.36716C8.22325 9.36716 8.30091 9.31485 8.33974 9.12742C8.54683 8.05951 8.9567 7.07005 9.46148 6.11547C9.51757 6.01086 9.56934 5.90189 9.647 5.81907C10.0137 5.42241 10.0267 4.9473 9.98784 4.4504C9.9749 4.30655 9.94038 4.26297 9.80232 4.25425C9.05593 4.21066 9.05593 4.2063 9.05593 4.95602C9.05593 5.26986 9.05593 5.58369 9.06456 5.89753C9.07319 6.37264 8.75392 6.74314 8.27502 6.69955C7.95575 6.6734 7.63217 6.6734 7.31722 6.69955C6.75635 6.73878 6.51043 6.36828 6.49317 5.87573C6.48022 5.40498 6.48454 4.93423 6.49317 4.46347C6.49317 4.31091 6.45434 4.24553 6.2947 4.25861C6.04015 4.2804 5.72089 4.15399 5.55263 4.30219C5.38868 4.44168 5.51811 4.77295 5.50085 5.01704C5.47065 5.41806 5.56125 5.82779 5.44477 6.2288C5.34985 6.53827 5.14276 6.69519 4.82349 6.69955C4.43088 6.69955 4.03827 6.69955 3.64565 6.69955C3.32207 6.69955 3.02006 6.42495 2.98123 6.09803C2.9122 5.55318 2.96398 5.00833 2.95535 4.46347C2.95535 4.28476 2.89495 4.23681 2.73531 4.25425C2.64471 4.26297 2.55411 4.25425 2.45919 4.25425C2.00186 4.25425 1.99755 4.25425 2.00186 4.73372C2.00186 4.99089 2.01049 5.24806 2.01481 5.50959V5.54882C2.01481 5.636 2.01481 5.72753 2.02344 5.81471C2.02344 5.8583 2.02344 5.89753 2.01481 5.93676V8.68282C2.01481 8.70461 2.01481 8.73077 2.01481 8.75256C2.01481 9.25818 2.32976 9.35844 2.67923 9.35844C3.17107 9.35844 3.66723 9.35844 4.15907 9.35844V9.3628Z" fill="#DFC0FF"/>
<path d="M21.5204 28.5983C19.5832 28.6113 17.646 28.607 15.7089 28.6026C13.7717 28.6026 11.8345 28.607 9.89736 28.5939C9.63849 28.5939 9.59103 28.6854 9.60397 28.9077C9.62123 29.1823 9.62555 29.4613 9.60829 29.7403C9.59535 29.98 9.66006 30.0497 9.9103 30.0497C13.6207 30.041 17.3311 30.0454 21.0415 30.041C21.2141 30.041 21.391 30.0323 21.5635 30.041C21.749 30.0541 21.8267 29.9931 21.8181 29.7926C21.8051 29.4962 21.8138 29.1998 21.8267 28.9077C21.8397 28.6811 21.7792 28.5895 21.5247 28.5939L21.5204 28.5983Z" fill="#DFC0FF"/>
<path d="M10.1692 16.8122C10.2167 16.2717 10.2814 15.7312 10.2771 15.182C10.2684 13.8307 10.2771 12.4838 10.2728 11.1326C10.2684 10.4657 10.3504 9.81623 10.5273 9.17984C10.756 8.34295 11.0968 7.56272 11.5714 6.82608C12.0071 6.15046 12.4947 5.5315 13.103 5.00844C13.8365 4.38077 14.6346 3.849 15.5493 3.51772C15.6744 3.47414 15.7089 3.4044 15.7089 3.27799C15.7003 2.97287 15.696 2.66775 15.7089 2.36264C15.7219 2.15777 15.6313 2.14905 15.4846 2.20136C14.7943 2.45417 14.1385 2.77236 13.5129 3.15594C12.6759 3.67028 11.9683 4.33283 11.3298 5.07819C10.4798 6.06328 9.88014 7.18786 9.46165 8.40833C9.11649 9.4283 8.99137 10.4962 9.00863 11.5772C9.01726 12.2136 9.00863 12.8543 9.00863 13.4907C9.00863 13.4951 9.00863 13.4994 9.00863 13.5038V16.1235C9.00863 16.3414 9.00863 16.555 9.00863 16.7729C9.00863 16.895 9.03452 16.9604 9.17689 16.9516C9.45302 16.9429 9.72483 16.9473 10.0009 16.9516C10.1131 16.9516 10.1563 16.9255 10.1692 16.7991V16.8122Z" fill="#DFC0FF"/>
<path d="M26.5812 28.0534C27.8497 28.0534 29.1224 28.0534 30.3908 28.0534C30.5419 28.0534 30.6929 28.0534 30.6281 27.8442C30.572 27.6568 30.503 27.4693 30.3563 27.3168C29.9335 26.8809 29.5236 26.4406 29.295 25.8522C29.1095 25.3727 29.0232 24.8758 28.9412 24.3746C28.9196 24.2351 28.8765 24.1915 28.7384 24.1915C28.238 24.1915 27.7332 24.1784 27.2327 24.1828C25.9341 24.1828 24.6397 24.1959 23.3411 24.2002C23.2203 24.2002 23.0822 24.2002 23.0822 24.3615C23.0822 24.5969 22.9787 24.8017 22.9485 25.0327C22.8751 25.5776 22.7198 26.0963 22.4092 26.5627C22.3143 26.7022 22.1158 26.8111 22.1546 26.9899C22.1935 27.1729 22.1848 27.3516 22.2193 27.5347C22.2884 27.8965 22.4394 28.0534 22.8018 28.0534C24.0616 28.0534 25.3257 28.0534 26.5855 28.0534H26.5812Z" fill="#DFC0FF"/>
<path d="M9.18101 25.5167C9.05589 25.1636 9.00843 24.7931 8.95234 24.4226C8.93077 24.2744 8.87037 24.1916 8.68485 24.1916C7.63213 24.2003 6.58373 24.1872 5.53101 24.1829C4.82776 24.1829 4.12452 24.1829 3.42127 24.1872C3.29615 24.1872 3.12789 24.1436 3.08906 24.3398C3.02865 24.6362 2.9812 24.9326 2.91648 25.2246C2.75685 25.9569 2.47641 26.6325 1.91985 27.1599C1.73433 27.3343 1.55744 27.5217 1.44527 27.7571C1.32878 28.0099 1.35898 28.0491 1.6351 28.0491C2.80431 28.0491 3.97351 28.0491 5.14272 28.0491C6.28604 28.0491 7.42936 28.0491 8.56836 28.0491C8.9998 28.0491 9.19395 27.8704 9.22415 27.4433C9.2371 27.2515 9.27161 27.0684 9.36653 26.8941C9.51322 26.6194 9.63834 26.3274 9.3881 26.0354C9.25867 25.8828 9.2371 25.6867 9.17669 25.5079L9.18101 25.5167Z" fill="#DFC0FF"/>
<path d="M30.8222 28.9863C28.2076 28.995 25.5931 28.9907 22.9742 28.9863C22.793 28.9863 22.7067 29.0256 22.724 29.2304C22.7413 29.4135 22.7456 29.6009 22.724 29.784C22.6981 30.015 22.7974 30.0542 23.0044 30.0542C24.2945 30.0455 25.5845 30.0499 26.8745 30.0499C28.1817 30.0499 29.489 30.0455 30.7963 30.0499C31.0034 30.0499 31.1026 30.0019 31.081 29.7709C31.0638 29.6053 31.0724 29.4396 31.0897 29.274C31.1069 29.0691 31.0551 28.9863 30.8265 28.9863H30.8222Z" fill="#DFC0FF"/>
<path d="M2.7828 23.2848C3.86141 23.2761 4.94001 23.2848 6.01861 23.2848C7.09721 23.2848 8.17582 23.2805 9.25442 23.2892C9.47014 23.2892 9.50897 23.2151 9.50897 23.019C9.50897 22.8228 9.44857 22.7705 9.25874 22.7705C7.10153 22.7792 4.94001 22.7749 2.7828 22.7749C2.61885 22.7749 2.48511 22.7661 2.48511 23.0102C2.48511 23.2413 2.5714 23.2848 2.77849 23.2848H2.7828Z" fill="#DFC0FF"/>
<path d="M3.32207 21.8465C4.21947 21.8378 5.11255 21.8422 6.00995 21.8422C6.89872 21.8422 7.78317 21.8335 8.67194 21.8509C8.9308 21.8552 8.97395 21.7637 8.95669 21.5327C8.87472 20.4038 8.80569 19.2705 8.74529 18.1415C8.73666 17.989 8.70214 17.9105 8.55976 17.8626C8.21893 17.7536 8.08086 17.4964 8.08086 17.1477C8.08086 16.9821 8.08086 16.8164 8.08086 16.6552V16.1321C8.08086 16.0449 8.07655 15.9621 8.08086 15.8749L8.08949 13.4601C8.08949 13.2117 8.00321 13.1855 7.7918 13.1855C6.63985 13.1942 5.4879 13.1855 4.33595 13.1899C4.09866 13.1899 3.80528 13.1158 3.64133 13.2248C3.46444 13.3425 3.53779 13.665 3.5119 13.896C3.49896 13.9876 3.47739 14.0791 3.47307 14.1706C3.43424 15.1296 3.41267 16.0885 3.35227 17.0431C3.32638 17.431 3.33501 17.819 3.29187 18.2025C3.16243 19.3315 3.16675 20.4648 3.08477 21.5937C3.07183 21.7855 3.12792 21.8465 3.32207 21.8422V21.8465Z" fill="#DFC0FF"/>
<path d="M3.28751 12.2134C4.03822 12.2134 4.78461 12.2134 5.53532 12.2134V12.2003C6.31192 12.2003 7.08851 12.196 7.8651 12.2003C8.05494 12.2003 8.09808 12.1306 8.08514 11.9606C8.07651 11.8211 8.11103 11.6947 7.88668 11.6991C6.35075 11.7078 4.81913 11.7078 3.2832 11.6991C3.04591 11.6991 3.02433 11.8168 3.02002 12.0086C3.02002 12.2221 3.14082 12.2134 3.28751 12.2134Z" fill="#DFC0FF"/>
<path d="M2.87767 10.2957C2.6749 10.2957 2.64038 10.3698 2.64038 10.5528C2.64038 10.749 2.70078 10.81 2.89062 10.7969C3.13654 10.7751 3.38246 10.7795 3.62838 10.7795C5.03488 10.7795 6.44138 10.7708 7.84788 10.7795C8.04203 10.7795 8.14557 10.7577 8.14557 10.5136C8.14557 10.2651 8.0032 10.3087 7.86513 10.3087C7.0454 10.3087 6.22134 10.3087 5.40161 10.3087C4.56029 10.3087 3.7233 10.3087 2.88199 10.3L2.87767 10.2957Z" fill="#DFC0FF"/>
<path d="M8.40883 28.9907C7.20942 28.9994 6.01433 28.9907 4.81493 28.9907C3.77084 28.9907 2.73106 28.9907 1.68698 28.9907C1.44537 28.9907 1.1261 28.8817 0.975098 29.0386C0.828408 29.1956 0.95784 29.5137 0.931954 29.7578C0.906067 29.9932 1.00098 30.0455 1.22102 30.0455C3.59826 30.0368 5.9755 30.0455 8.35274 30.0455C8.4002 30.0455 8.44335 30.0455 8.49081 30.0455C8.62887 30.0499 8.68495 29.9845 8.68064 29.845C8.67201 29.6532 8.66338 29.4571 8.68064 29.2653C8.70653 29.0299 8.60729 28.9907 8.4002 28.9907H8.40883Z" fill="#DFC0FF"/>
<path d="M31.9958 28.9643C31.9958 28.7028 31.8706 28.4892 31.6938 28.3236C31.5988 28.2321 31.5643 28.1492 31.5514 28.0228C31.491 27.5129 31.34 27.0421 30.9689 26.6672C30.7877 26.4798 30.6108 26.2837 30.4426 26.0788C30.0715 25.6255 30.0025 25.0501 29.8601 24.5053C29.8127 24.3266 29.7911 24.1217 30.0198 23.9953C30.6152 23.6684 30.5418 22.4087 30.0457 22.0774C29.8601 21.9553 29.817 21.7766 29.7911 21.5674C29.7178 20.9136 29.6358 20.2641 29.5538 19.6103L29.2345 17.1345C29.2345 17.1345 29.2345 17.1301 29.2345 17.1258L29.1655 16.5896C29.1008 16.0448 29.0361 15.4956 28.9282 14.9594C28.898 14.8025 28.9498 14.7328 29.1137 14.7502C29.1871 14.7589 29.2604 14.7589 29.3338 14.7589C30.3649 14.724 30.5591 13.8348 30.339 13.0546C30.2139 12.61 29.8601 12.4269 29.4244 12.3398C29.4503 12.2962 29.4675 12.2657 29.4891 12.2395C29.9464 11.6162 30.2182 10.9101 30.2873 10.1473C30.3779 9.21885 30.2398 8.31657 29.748 7.50147C29.2993 6.75611 28.7298 6.13715 27.9359 5.74486C27.073 5.32205 26.1756 5.20001 25.2221 5.36564C24.5922 5.47461 24.04 5.7405 23.5093 6.07613C23.3885 6.15023 23.3411 6.17202 23.2548 6.01075C22.832 5.20001 22.3099 4.46772 21.5506 3.93594C21.4686 3.87928 21.4557 3.82697 21.5204 3.73544C21.7188 3.45211 21.913 3.16443 22.0942 2.87239C22.3746 2.41471 22.215 1.77832 21.7534 1.53859C21.3996 1.35552 21.0285 1.21603 20.6489 1.10271C19.8334 0.862969 19.0008 0.736563 18.1508 0.775793C18.0041 0.78451 17.9308 0.762716 17.8661 0.584004C17.6288 -0.0349495 17.1758 -0.170073 16.7098 0.196068C16.5502 0.322475 16.4423 0.496828 16.3042 0.640669C16.1576 0.797587 16.1446 1.04604 15.8728 1.12886C15.1652 1.33808 14.4663 1.57346 13.8019 1.92217C13.021 2.33625 12.3048 2.83752 11.649 3.42596C11.4203 3.63083 11.2003 3.84005 10.9544 4.06671C10.9069 3.50442 10.592 3.2952 10.1346 3.31699C9.66868 3.33878 9.20272 3.31699 8.73677 3.32135C8.39161 3.32135 8.13706 3.58724 8.13275 3.92723C8.13275 4.38055 8.14138 4.83386 8.13275 5.28718C8.11981 5.82768 8.24492 5.75358 7.65385 5.76665C7.48127 5.76665 7.42087 5.73178 7.42518 5.53564C7.43813 4.98206 7.42519 4.42849 7.41656 3.87492C7.40793 3.52621 7.19221 3.32571 6.84274 3.32135C6.28618 3.31699 5.72531 3.31699 5.16875 3.32135C4.82359 3.32135 4.56473 3.58288 4.56473 3.92723C4.56473 4.38055 4.56473 4.83386 4.56473 5.28718C4.56473 5.77101 4.56473 5.75794 4.09014 5.76665C3.87874 5.77101 3.85285 5.68384 3.85285 5.50948C3.85717 4.98206 3.85285 4.45465 3.85285 3.92723C3.85285 3.55237 3.63713 3.32571 3.26609 3.32135C2.73542 3.31263 2.20475 3.31263 1.67407 3.32135C1.42384 3.32135 1.09163 3.53929 1.10026 3.89236C1.1132 4.43285 1.10888 4.97335 1.10457 5.51384V5.54871C1.10457 5.67948 1.10457 5.81024 1.10457 5.94537C1.10457 5.95844 1.10457 5.97588 1.10457 5.98895V8.12914C1.10457 8.12914 1.10457 8.12914 1.10457 8.1335C1.10457 8.21632 1.10457 8.30349 1.10457 8.38631V8.68707C1.10457 8.73066 1.10457 8.77861 1.10026 8.82219C1.06574 9.25372 1.24695 9.59371 1.54464 9.87267C1.67839 9.99908 1.72585 10.1211 1.68702 10.3086C1.60073 10.7008 1.69564 11.067 1.95019 11.3678C2.071 11.5116 2.10983 11.638 2.09688 11.8124C2.06668 12.1611 2.04943 12.5664 2.32123 12.7669C2.7613 13.0895 2.61461 13.4774 2.57147 13.8654C2.54558 14.0877 2.53695 14.3056 2.52833 14.5279C2.51107 15.0248 2.49381 15.5217 2.46361 16.0186C2.39458 17.1694 2.29966 18.3157 2.24789 19.4665C2.21769 20.2293 2.1918 20.9964 2.1012 21.7548C2.08394 21.8943 2.0408 21.9989 1.92862 22.073C1.45835 22.3825 1.42384 23.5725 1.82508 23.8384C2.21337 24.0955 2.17454 24.3876 2.04943 24.7363C2.03648 24.7799 2.04511 24.8278 2.03648 24.8714C1.93294 25.486 1.70859 26.0439 1.2642 26.4972C0.992395 26.7762 0.742159 27.0639 0.591155 27.4475C0.457408 27.7787 0.522124 28.1928 0.176971 28.4413C0.0216522 28.5503 0.00439453 28.7508 0.00439453 28.9382C0.00870894 29.3261 0.00439453 29.7141 0.00439453 30.102C0.00439453 30.2633 0.0475387 30.3984 0.142456 30.5335C0.384063 30.8735 0.716273 30.9738 1.10888 30.9738C10.8422 30.9738 20.5712 30.9738 30.3045 30.9738C30.5418 30.9738 30.7791 30.9738 31.0164 30.9738C31.5255 30.965 32.0303 30.5728 31.9958 29.9669C31.9785 29.6269 31.9915 29.2825 31.9958 28.9426V28.9643ZM29.2432 22.7922C29.3855 22.7922 29.5366 22.753 29.5236 23.0058C29.515 23.2325 29.4459 23.3066 29.2173 23.3022C28.1301 23.2935 27.0428 23.2979 25.9556 23.2979C24.8856 23.2979 23.8156 23.2979 22.7457 23.2979C22.5645 23.2979 22.4868 23.2674 22.4911 23.0581C22.4954 22.8707 22.517 22.7792 22.7414 22.7792C24.9072 22.7879 27.073 22.7835 29.2432 22.7879V22.7922ZM21.7059 23.7163C21.7922 23.882 21.9389 23.9909 22.0856 24.0955C22.1718 24.1566 22.1891 24.2176 22.1675 24.3048C22.0338 24.8235 21.9691 25.3552 21.7361 25.8478C21.6498 26.0265 21.6239 26.0483 21.4643 25.9044C20.6489 25.1809 20.3253 24.235 20.1872 23.1845C20.157 22.9666 20.1829 22.862 20.3857 22.7443C20.6963 22.5656 20.8775 22.2735 20.856 21.8856C20.8387 21.5674 20.8991 21.2405 20.7826 20.931C20.7395 20.8221 20.7956 20.7785 20.8516 20.7218C21.3133 20.2423 21.4643 19.6975 21.3651 19.0131C21.2831 18.4334 21.1752 17.8624 21.0113 17.3088C20.9077 16.9558 20.761 16.6158 20.61 16.2061C21.2529 16.5722 21.8396 16.8947 22.4135 17.2347C22.7586 17.4396 22.737 17.4788 22.6551 17.9845C22.5472 18.6339 22.4695 19.2834 22.3919 19.9372C22.3185 20.5562 22.1805 21.162 22.1589 21.7897C22.1589 21.8813 22.0942 21.9423 22.0122 22.0033C21.4945 22.3694 21.4384 23.2281 21.7016 23.725L21.7059 23.7163ZM10.0009 22.0469C9.93617 21.9946 9.8844 21.9423 9.88009 21.8464C9.8542 20.8787 9.71614 19.9198 9.71182 18.9521C9.71182 18.6775 9.68594 18.4029 9.66005 18.1283C9.64279 17.9583 9.70319 17.906 9.87146 17.9104C10.0483 17.9104 10.0699 17.9975 10.0527 18.137C9.94912 18.5337 9.90166 18.9434 9.87577 19.3531C9.83694 19.9372 10.057 20.3992 10.4841 20.7741C10.5574 20.8395 10.6308 20.9005 10.5963 21.0051C10.5014 21.2841 10.5618 21.5718 10.5445 21.8551C10.5229 22.2605 10.7128 22.5699 11.0407 22.753C11.2348 22.862 11.2434 22.9492 11.2132 23.1497C11.1442 23.6204 11.0536 24.0825 10.9242 24.5358C10.8249 24.8932 10.6394 25.2245 10.4021 25.5122C10.2727 25.6691 10.1778 25.6647 10.1088 25.4598C9.975 25.0719 9.91029 24.6665 9.83263 24.2655C9.80674 24.1348 9.90597 24.0825 9.97932 24.0258C10.6006 23.5463 10.6179 22.5612 10.0052 22.0469H10.0009ZM11.2089 10.7096C11.2521 9.67652 11.5843 8.70886 12.0589 7.79351C12.3781 7.17891 12.7794 6.6297 13.2496 6.13715C13.474 5.90178 13.707 5.64896 14.0651 5.50076C13.9054 5.90614 13.7156 6.26356 13.5862 6.6515C13.4006 7.21814 13.3359 7.79787 13.3618 8.37759C13.3834 8.91373 13.4697 9.44115 13.6595 9.95549C14.0694 11.0801 14.7554 11.9911 15.752 12.6231C16.6537 13.1941 17.5943 13.6997 18.5262 14.2184C18.7548 14.3448 18.8498 14.5497 18.936 14.7676C19.2596 15.5697 19.7126 16.3107 19.9931 17.1345C20.2476 17.8798 20.4763 18.6296 20.4806 19.4272C20.4806 19.9372 20.1311 20.2946 19.6263 20.2946C17.0032 20.2946 14.38 20.3034 11.7569 20.2903C10.9889 20.2903 10.6783 19.7759 10.8422 18.9696C11.0105 18.1414 11.1054 17.3045 11.1485 16.4632C11.2478 14.5453 11.1313 12.6231 11.2132 10.7008L11.2089 10.7096ZM19.9499 21.5369C19.9327 21.9553 19.9197 21.9989 19.5789 21.9989C17.193 21.9989 14.8115 21.9989 12.4256 21.9946C12.1797 21.9946 11.9337 21.9859 11.6878 21.9859C11.5368 21.9859 11.4721 21.9336 11.4678 21.7592C11.4592 21.2405 11.4505 21.2405 11.9639 21.2405C13.2151 21.2405 14.4663 21.2405 15.7175 21.2405V21.2318C17.0075 21.2318 18.2932 21.2318 19.5832 21.2318C19.8076 21.2318 19.9672 21.2361 19.9542 21.5413L19.9499 21.5369ZM10.1476 27.4039C10.2598 27.0072 10.5186 26.7195 10.7991 26.4537C11.416 25.8696 11.7482 25.1373 11.9079 24.3178C11.9855 23.9168 12.1063 23.5202 12.1322 23.1104C12.1408 22.971 12.2401 22.9622 12.3479 22.9622C12.7147 22.9622 13.0814 22.9622 13.4438 22.9622C15.2256 22.9622 17.0118 22.9622 18.7937 22.9622C19.3847 22.9622 19.2337 22.923 19.3071 23.433C19.4408 24.3048 19.6738 25.1242 20.1915 25.8434C20.4116 26.1485 20.692 26.397 20.9379 26.676C21.1493 26.9157 21.2356 27.2121 21.2874 27.5216C21.3047 27.6262 21.2572 27.6785 21.1536 27.6785C21.0717 27.6785 20.9897 27.6829 20.9077 27.6829C19.1604 27.6829 17.4131 27.6829 15.67 27.6829C13.9054 27.6829 12.1408 27.6829 10.3762 27.6916C10.1476 27.6916 10.0699 27.6567 10.1433 27.4039H10.1476ZM28.2811 16.9296C28.2811 16.9296 28.2811 16.9383 28.2811 16.9427L28.678 20.007C28.7384 20.5387 28.7945 21.0749 28.8808 21.6023C28.9239 21.8682 28.8204 21.8551 28.6348 21.8551C26.9867 21.8507 25.3429 21.8551 23.6948 21.8507C23.505 21.8507 23.272 21.9292 23.1383 21.8071C23.0088 21.6895 23.1599 21.4802 23.1599 21.3102C23.1599 21.3015 23.1599 21.2928 23.1599 21.2841C23.2418 20.6128 23.3152 19.9372 23.4144 19.2703C23.4964 18.7342 23.5654 18.198 23.5913 17.6619C23.5999 17.4963 23.6517 17.4134 23.8027 17.3655C24.1176 17.2696 24.3938 17.0996 24.5793 16.8294C24.9805 16.2322 25.3473 15.6133 25.6061 14.9376C25.645 14.8374 25.6622 14.7546 25.8003 14.7589C26.4776 14.7633 27.155 14.7589 27.8324 14.7589C27.9488 14.7589 27.992 14.8025 28.0049 14.9115C28.0524 15.2558 28.1085 15.6002 28.1559 15.9445C28.1948 16.2453 28.2293 16.5417 28.2681 16.8424L28.2811 16.9383V16.9296ZM29.4761 13.5167C29.4589 13.6736 29.4848 13.8218 29.2389 13.8174C28.1344 13.8043 27.0299 13.8131 25.9297 13.8087C25.7571 13.8087 25.5587 13.5515 25.5975 13.3772C25.6191 13.2682 25.714 13.3118 25.7787 13.3118C26.3611 13.3118 26.9479 13.3118 27.5304 13.3118C28.1042 13.3118 28.678 13.3161 29.2561 13.3118C29.4071 13.3118 29.502 13.3292 29.4805 13.5167H29.4761ZM23.7207 7.11789C23.9839 6.87816 24.2816 6.69073 24.6052 6.54253C25.0711 6.32458 25.5673 6.2592 26.085 6.25048C27.4225 6.22433 28.8419 7.30096 29.2216 8.56938C29.5926 9.79857 29.2691 11.359 28.3026 12.1872C28.1387 12.3267 28.0006 12.3834 27.7978 12.379C27.3793 12.3703 26.9565 12.379 26.538 12.379C26.1195 12.379 25.6967 12.3703 25.2782 12.3834C25.0668 12.3877 24.9201 12.3398 24.7734 12.1567C24.342 11.6249 23.9882 11.0583 23.807 10.3957C23.6905 9.97293 23.669 9.53268 23.6905 9.08808C23.7164 8.49528 23.807 7.89376 23.6301 7.30532C23.5999 7.20943 23.669 7.1702 23.7207 7.12661V7.11789ZM18.4097 1.72166C18.483 1.73038 18.5564 1.72166 18.6297 1.72166C19.4797 1.72166 20.2865 1.95704 21.076 2.24036C21.2874 2.31446 21.3305 2.42343 21.158 2.61958C20.9811 2.82008 20.8516 3.06418 20.6963 3.29084C20.6575 3.3475 20.6316 3.4216 20.5281 3.37801C19.9413 3.1252 19.333 2.97264 18.6858 2.9988C18.5046 3.00751 18.4873 2.84188 18.4571 2.73727C18.3752 2.4801 18.3363 2.20985 18.2328 1.95268C18.181 1.81755 18.2069 1.69551 18.4054 1.72166H18.4097ZM16.3948 4.48516C16.5717 4.35875 16.6365 4.20183 16.6365 3.99261C16.6365 3.47391 16.6365 2.95957 16.6365 2.44087C16.6365 1.99627 16.7659 1.59961 17.0291 1.20732C17.1412 1.3468 17.1671 1.47756 17.206 1.61269C17.3785 2.24472 17.5641 2.86803 17.7453 3.4957C17.8272 3.77467 18.03 3.92723 18.3234 3.93159C18.7505 3.9403 19.1776 3.91415 19.5961 4.03184C20.5669 4.30645 21.3607 4.83386 21.9604 5.64896C22.6464 6.58611 22.8578 7.62352 22.7457 8.78732C22.6292 10.0383 22.9139 11.2196 23.7035 12.2395C23.9666 12.5795 24.2212 12.9239 24.4801 13.2638C24.9762 13.922 24.8597 14.4494 24.5707 15.0335C24.3938 15.391 24.1565 15.7179 23.971 16.0709C23.6992 16.5809 23.1987 16.6463 22.7672 16.3891C22.3013 16.1145 21.8526 15.8181 21.3737 15.5653C21.1838 15.4651 21.063 15.3256 21.076 15.0858C21.0889 14.7894 20.8991 14.5889 20.6747 14.4451C19.622 13.7738 18.5219 13.1897 17.4519 12.5446C16.8133 12.1611 16.136 11.8472 15.5881 11.3154C15.1911 10.9362 14.8762 10.5047 14.6518 10.0034C14.2204 9.02706 14.147 8.02017 14.4404 7.0002C14.6518 6.25484 15.0617 5.62281 15.6183 5.0736C15.8555 4.83822 16.1274 4.66823 16.3905 4.4808L16.3948 4.48516ZM2.00197 8.76989C2.00197 8.74809 2.00197 8.72194 2.00197 8.70015V5.95408C2.00628 5.91485 2.0106 5.87562 2.0106 5.83204C2.0106 5.74486 2.00628 5.65332 2.00197 5.56615V5.52692C1.99765 5.26975 1.99334 5.01258 1.98902 4.75105C1.98902 4.27157 1.98902 4.27157 2.44635 4.27157C2.53695 4.27157 2.63187 4.27593 2.72247 4.27157C2.88211 4.25414 2.9382 4.29773 2.94251 4.4808C2.95114 5.02565 2.90368 5.57051 2.9684 6.11536C3.00723 6.44227 3.31355 6.71252 3.63282 6.71688C4.02543 6.71688 4.41804 6.71688 4.81065 6.71688C5.12992 6.71688 5.33701 6.5556 5.43193 6.24612C5.55273 5.84947 5.46213 5.43974 5.48801 5.03437C5.50527 4.79028 5.37584 4.459 5.53979 4.31952C5.70805 4.17132 6.03163 4.29337 6.28187 4.27593C6.4415 4.26286 6.48464 4.32824 6.48033 4.4808C6.4717 4.95155 6.46307 5.42231 6.48033 5.89306C6.49759 6.38561 6.74351 6.75611 7.30438 6.71688C7.62365 6.69508 7.94723 6.69073 8.26218 6.71688C8.74108 6.76047 9.06466 6.38997 9.05172 5.91485C9.04309 5.60102 9.04309 5.28718 9.04309 4.97335C9.04309 4.22363 9.04309 4.22363 9.78948 4.27157C9.92754 4.28029 9.96637 4.31952 9.975 4.46772C10.0138 4.96463 10.0009 5.43974 9.63416 5.83639C9.55651 5.91921 9.50042 6.03254 9.44864 6.13279C8.94386 7.08738 8.53399 8.07683 8.3269 9.14475C8.29238 9.33218 8.21041 9.38448 8.01626 9.38448C6.72625 9.37141 5.43624 9.38012 4.14623 9.38012C3.65439 9.38012 3.15823 9.38012 2.66639 9.38012C2.31692 9.38012 2.00197 9.27987 2.00197 8.77425V8.76989ZM7.848 10.3173C7.99037 10.3173 8.13275 10.2737 8.12843 10.5221C8.12843 10.7662 8.02057 10.788 7.83074 10.788C6.42424 10.788 5.01774 10.788 3.61124 10.788C3.36532 10.788 3.1194 10.788 2.87348 10.8055C2.68364 10.8229 2.61893 10.7575 2.62324 10.5614C2.62324 10.3783 2.66207 10.2998 2.86054 10.3042C3.70185 10.3129 4.53884 10.3042 5.38015 10.3042C6.19989 10.3042 7.02394 10.3042 7.84368 10.3042L7.848 10.3173ZM3.26609 11.7121C4.80202 11.7208 6.33364 11.7208 7.86957 11.7121C8.09392 11.7121 8.05509 11.8341 8.06803 11.9736C8.08098 12.1436 8.04215 12.2177 7.848 12.2134C7.0714 12.2046 6.29481 12.2134 5.51821 12.2134V12.2264C4.76751 12.2264 4.02111 12.2264 3.27041 12.2264C3.12372 12.2264 2.9986 12.2352 3.00291 12.0216C3.00291 11.8298 3.0288 11.7121 3.26609 11.7121ZM3.06763 21.611C3.1496 20.4821 3.14529 19.3444 3.27472 18.2198C3.31786 17.8363 3.31355 17.4483 3.33512 17.0604C3.39552 16.1058 3.4171 15.1425 3.45592 14.1879C3.45592 14.0964 3.48181 14.0048 3.49475 13.9133C3.52496 13.6779 3.4473 13.3597 3.62419 13.242C3.79245 13.1287 4.08151 13.2072 4.31881 13.2072C5.47076 13.2072 6.6227 13.2115 7.77465 13.2028C7.98606 13.2028 8.07666 13.229 8.07235 13.4774L8.06372 15.8922C8.05509 15.9794 8.06372 16.0622 8.06372 16.1494V16.6724C8.06372 16.8381 8.06372 17.0037 8.06372 17.165C8.06372 17.5137 8.20178 17.7709 8.54262 17.8798C8.68499 17.9278 8.71951 18.0062 8.72814 18.1588C8.78854 19.2921 8.86188 20.421 8.93954 21.55C8.9568 21.781 8.91366 21.8725 8.65479 21.8682C7.76602 21.8507 6.88157 21.8595 5.9928 21.8595C5.0954 21.8595 4.20232 21.8551 3.30492 21.8638C3.11077 21.8638 3.05037 21.8071 3.06763 21.6154V21.611ZM2.77425 22.7922C4.93145 22.7922 7.09298 22.7922 9.25018 22.7879C9.44002 22.7879 9.50042 22.8358 9.50042 23.0363C9.50042 23.2325 9.46159 23.3066 9.24587 23.3066C8.16726 23.2935 7.08866 23.3022 6.01006 23.3022C4.93145 23.3022 3.85285 23.2979 2.77425 23.3022C2.56716 23.3022 2.48087 23.2586 2.48087 23.0276C2.48087 22.7835 2.61461 22.7922 2.77856 22.7922H2.77425ZM8.67636 29.2782C8.65479 29.47 8.66774 29.6661 8.67636 29.8579C8.68068 30.0017 8.62459 30.0628 8.48653 30.0584C8.43907 30.0584 8.39593 30.0584 8.34847 30.0584C5.97123 30.0584 3.59399 30.0584 1.21674 30.0584C0.99671 30.0584 0.901792 30.0061 0.927679 29.7707C0.953565 29.5266 0.824133 29.2041 0.970823 29.0515C1.11751 28.8946 1.43678 29.0079 1.6827 29.0036C2.72679 28.9992 3.76656 29.0036 4.81065 29.0036C6.01006 29.0036 7.20515 29.0036 8.40456 29.0036C8.60733 29.0036 8.71088 29.0428 8.68499 29.2782H8.67636ZM9.36236 26.9157C9.26744 27.0901 9.23292 27.2688 9.21998 27.4649C9.19409 27.8921 8.99563 28.0708 8.56419 28.0708C7.42087 28.0708 6.27755 28.0708 5.13855 28.0708C3.96934 28.0708 2.80013 28.0708 1.63093 28.0708C1.35049 28.0708 1.3246 28.0316 1.44109 27.7787C1.54895 27.5434 1.73016 27.3603 1.91568 27.1816C2.47224 26.6542 2.75268 25.9829 2.91231 25.2463C2.97703 24.9542 3.02448 24.6535 3.08489 24.3614C3.12372 24.1609 3.29198 24.2089 3.4171 24.2089C4.12034 24.2001 4.82359 24.2001 5.52684 24.2045C6.57956 24.2045 7.62796 24.2176 8.68068 24.2132C8.8662 24.2132 8.92229 24.296 8.94817 24.4442C9.00426 24.8147 9.05172 25.1852 9.17684 25.5383C9.23724 25.717 9.25881 25.9132 9.38824 26.0657C9.63848 26.3534 9.51336 26.6455 9.36667 26.9244L9.36236 26.9157ZM9.16821 16.9819C9.03015 16.9863 8.99995 16.9253 8.99995 16.8032C8.99995 16.5853 8.99995 16.3717 8.99995 16.1537V13.5341C8.99995 13.5297 8.99995 13.5254 8.99995 13.521C8.99995 12.8846 9.00857 12.2439 8.99995 11.6075C8.98269 10.5265 9.10781 9.45858 9.45296 8.43862C9.86714 7.21814 10.4712 6.09357 11.3211 5.10847C11.9639 4.36311 12.6715 3.70057 13.5042 3.18623C14.1298 2.80265 14.7856 2.48445 15.4759 2.23164C15.6226 2.17934 15.7132 2.18805 15.7002 2.39292C15.683 2.69804 15.6916 3.00315 15.7002 3.30827C15.7002 3.43468 15.6657 3.50442 15.5406 3.54801C14.6259 3.87492 13.8278 4.4067 13.0943 5.03873C12.486 5.55743 11.9985 6.18074 11.5627 6.85636C11.0881 7.58864 10.7473 8.36888 10.5186 9.21013C10.3417 9.85088 10.2598 10.5003 10.2641 11.1629C10.2727 12.5141 10.2641 13.861 10.2684 15.2122C10.2684 15.7571 10.208 16.2976 10.1605 16.8424C10.1476 16.9688 10.1044 16.995 9.99226 16.995C9.71614 16.9906 9.44433 16.9863 9.16821 16.995V16.9819ZM21.8094 28.9338C21.7965 29.2302 21.7879 29.5266 21.8008 29.8187C21.8094 30.0192 21.7318 30.0802 21.5463 30.0671C21.3737 30.0584 21.2011 30.0671 21.0242 30.0671C17.3138 30.0671 13.6034 30.0671 9.89303 30.0758C9.64279 30.0758 9.57808 30.0017 9.59102 29.7664C9.60828 29.4918 9.59965 29.2128 9.58671 28.9338C9.57376 28.7072 9.62554 28.6156 9.88009 28.62C11.8173 28.6331 13.7544 28.6287 15.6916 28.6287C17.6288 28.6287 19.5659 28.6331 21.5031 28.6244C21.7577 28.6244 21.8138 28.7115 21.8051 28.9382L21.8094 28.9338ZM22.202 27.5521C22.1675 27.3734 22.1805 27.1903 22.1373 27.0072C22.0985 26.8285 22.297 26.7195 22.3919 26.5801C22.7025 26.1137 22.8578 25.595 22.9312 25.0501C22.9614 24.8235 23.0649 24.6142 23.0649 24.3789C23.0649 24.2132 23.203 24.2176 23.3238 24.2176C24.6224 24.2132 25.9168 24.2045 27.2154 24.2001C27.7159 24.2001 28.2207 24.2132 28.7211 24.2089C28.8592 24.2089 28.9023 24.2481 28.9239 24.3919C29.0059 24.8932 29.0922 25.3901 29.2777 25.8696C29.5063 26.458 29.9162 26.9026 30.339 27.3341C30.4857 27.4867 30.5548 27.6741 30.6108 27.8616C30.6756 28.0708 30.5246 28.0708 30.3735 28.0708C29.1051 28.0708 27.8324 28.0708 26.5639 28.0708C25.3041 28.0708 24.04 28.0708 22.7802 28.0708C22.4178 28.0708 22.2668 27.9139 22.1977 27.5521H22.202ZM31.0768 29.2956C31.0639 29.4613 31.0509 29.6312 31.0682 29.7925C31.0897 30.0235 30.9948 30.0715 30.7834 30.0715C29.4761 30.0628 28.1689 30.0715 26.8616 30.0715C25.5716 30.0715 24.2816 30.0715 22.9916 30.0758C22.7845 30.0758 22.6853 30.041 22.7112 29.8056C22.7327 29.6225 22.7284 29.4351 22.7112 29.252C22.6896 29.0472 22.7802 29.0079 22.9614 29.0079C25.5759 29.0123 28.1905 29.0167 30.8093 29.0079C31.0423 29.0079 31.0897 29.0908 31.0725 29.2956H31.0768Z" fill="#3C096C"/>
</g>
<defs>
<clipPath id="clip0_353_3487">
<rect width="32" height="31" fill="white"/>
</clipPath>
</defs>
</svg>
