<?xml version="1.0" encoding="UTF-8"?>
<svg id="Capa_2" data-name="Capa 2" xmlns="http://www.w3.org/2000/svg" viewBox="0 0 283.99 377.87">
  <defs>
    <style>
      .cls-1 {
        fill: #ffb600;
      }

      .cls-2 {
        fill: #7025be;
      }

      .cls-3 {
        fill: #3c096c;
      }
    </style>
  </defs>
  <g id="Capa_1-2" data-name="Capa 1">
    <g id="Logo_circular_color" data-name="Logo circular color">
      <path class="cls-2" d="m240.99,300.12c-14.78,7.42-22.56,10.38-38.41,14.82-1-57.72-2.01-115.44-3.01-173.15,15.36-1.04,23-1.74,38.1-3.48.33,16.3.67,32.59,1,48.89,15.24-3.39,30.71-7.95,45.33-13.45,0-28.35,0-56.69,0-85.04-33.02,0-66.04,0-99.06,0-11.18,13.25-22.33,26.53-33.51,39.78.05,16.2.11,32.4.16,48.6,5.96-.08,11.94-.2,17.96-.4.35,37.27.7,74.55,1.05,111.82-6.19.71-12.41,1.16-18.64,1.42.1,29.28.19,58.56.29,87.84,8.8-.67,17.48-2.05,25.93-3.97,20.37-4.25,38.84-11.1,57.09-21.15,29.31-14.84,48.74-30.64,48.74-30.64v-39.23c0-15.58,0-23.36,0-38.94-13.1,9.7-28.57,18.36-43.66,24.54.26,12.7.39,19.05.65,31.75Z"/>
      <path class="cls-3" d="m113.97,288.72c.33-37.31.66-74.63.98-111.94,6.61.2,13.16.3,19.71.35.07-29.48.15-58.95.22-88.43-15.73,0-31.46,0-47.19,0-.65,38.33-1.29,76.67-1.94,115-16.58-2.3-24.78-3.88-40.75-7.89.73-35.71,1.47-71.41,2.2-107.12-15.73,0-31.46,0-47.2,0v225.22c13.6,13.94,25.87,24.42,41.84,35.54.71-34.74,1.43-69.49,2.14-104.23,15.86,5.86,24.12,8.17,40.87,11.52-.63,37.3-1.26,74.6-1.89,111.9,17.69,4.85,32.93,7.59,51.2,9.22.07-29.27.15-58.54.22-87.81-6.82-.18-13.62-.62-20.41-1.34Z"/>
      <path class="cls-1" d="m155.95,268.27c-11.15.23-16.74.24-27.9.06.09-23.3.19-46.6.28-69.91,10.9.11,16.36.1,27.26-.04.12,23.29.24,46.59.36,69.88Z"/>
      <path class="cls-1" d="m269.46,0c-11.47,0-20.77,9.3-20.77,20.77v19.46h-83.64V8.56c0-4.73-3.83-8.56-8.56-8.56h-27.07c-4.73,0-8.56,3.83-8.56,8.56v31.68H35.3v-19.84C35.3,9.13,26.17,0,14.91,0H0v72.09h283.99V0h-14.53Z"/>
    </g>
  </g>
</svg>