<svg width="100" height="15" viewBox="0 0 100 15" fill="none" xmlns="http://www.w3.org/2000/svg">
<path d="M7.208 13.19L7.046 14.09L6.146 14L5.39 14.252L3.518 14.126L2.96 14.288L1.502 14.162L1.052 14.252L0.836 13.838L0.764 12.83V9.482L1.106 7.754V6.044L1.376 5.648L2.582 5.54L2.744 5.756L2.888 7.538L3.32 8.636V12.542L3.446 12.938L3.914 12.83L4.778 12.938L5.354 12.776H6.812L7.208 13.19ZM14.3637 9.554V12.02L14.2017 12.236H13.1217L12.6897 11.948L12.7437 11.822L12.5637 11.642L12.3297 11.75L11.6097 12.47L11.2497 12.65L10.6197 12.578L10.5477 12.704L10.1517 12.83L9.6477 12.506L9.2157 12.362L8.8197 11.372L9.0177 9.41L8.7117 8.798L8.8557 7.628L9.1437 7.538H10.4937L10.7997 8.474V10.454L10.9437 10.67L11.0157 10.94L11.2137 11.012L12.1317 10.706H12.4377L12.6537 10.562V7.628L12.9237 7.484L13.8237 7.682L14.3637 9.554ZM23.4028 13.208H23.2948C23.3668 13.208 23.4028 13.226 23.4028 13.262C23.4028 13.286 23.3488 13.346 23.2408 13.442C23.1328 13.526 23.0488 13.58 22.9888 13.604C22.6888 13.616 22.4368 13.64 22.2328 13.676C22.0408 13.712 21.8548 13.754 21.6748 13.802C21.5068 13.85 21.3328 13.892 21.1528 13.928C20.9848 13.952 20.7748 13.964 20.5228 13.964C20.4028 13.94 20.3008 13.928 20.2168 13.928C20.1328 13.928 20.0488 13.928 19.9648 13.928C19.8808 13.928 19.7968 13.934 19.7128 13.946C19.6408 13.946 19.5748 13.946 19.5148 13.946C19.3828 13.946 19.2748 13.94 19.1908 13.928C19.1068 13.916 19.0228 13.904 18.9388 13.892C18.8668 13.868 18.7888 13.832 18.7048 13.784C18.6208 13.724 18.5068 13.652 18.3628 13.568H18.0568C18.0448 13.568 18.0268 13.538 18.0028 13.478C17.9788 13.406 17.9548 13.37 17.9308 13.37L17.8408 13.28C17.8408 13.28 17.8168 13.25 17.7688 13.19C17.7208 13.13 17.6728 13.076 17.6248 13.028C17.4688 12.812 17.3788 12.62 17.3548 12.452C17.3428 12.272 17.3368 12.092 17.3368 11.912C17.3488 11.816 17.3668 11.72 17.3908 11.624C17.4148 11.528 17.4508 11.432 17.4988 11.336C17.6188 11.12 17.7268 10.934 17.8228 10.778C17.9308 10.622 18.0328 10.478 18.1288 10.346C18.2368 10.214 18.3448 10.094 18.4528 9.986C18.5728 9.878 18.7108 9.764 18.8668 9.644C19.1188 9.488 19.4128 9.386 19.7488 9.338C20.0968 9.29 20.4268 9.212 20.7388 9.104C20.9428 9.104 21.1168 9.11 21.2608 9.122C21.4168 9.122 21.5668 9.122 21.7108 9.122H22.7008C22.7968 9.134 22.8388 9.224 22.8268 9.392C22.8268 9.548 22.8388 9.686 22.8628 9.806C22.7668 9.974 22.7068 10.082 22.6828 10.13C22.6588 10.178 22.6288 10.262 22.5928 10.382C22.4368 10.382 22.3108 10.382 22.2148 10.382C22.1188 10.382 22.0168 10.382 21.9088 10.382C21.8008 10.382 21.6688 10.394 21.5128 10.418C21.3688 10.442 21.1708 10.478 20.9188 10.526C20.5948 10.574 20.3848 10.622 20.2888 10.67C20.2048 10.706 20.1328 10.76 20.0728 10.832C20.0368 10.856 20.0068 10.88 19.9828 10.904C19.9708 10.916 19.9528 10.928 19.9288 10.94C19.9048 10.964 19.8808 10.976 19.8568 10.976C19.8808 10.964 19.8448 10.988 19.7488 11.048C19.6528 11.108 19.5388 11.192 19.4068 11.3C19.2868 11.396 19.1728 11.516 19.0648 11.66C18.9688 11.804 18.9208 11.948 18.9208 12.092C18.9208 12.248 18.9748 12.386 19.0828 12.506C19.2028 12.626 19.2628 12.71 19.2628 12.758C19.2628 12.818 19.2928 12.86 19.3528 12.884C19.4248 12.908 19.5328 12.944 19.6768 12.992C19.7008 12.992 19.7128 12.992 19.7128 12.992C19.7248 12.98 19.7368 12.974 19.7488 12.974C19.7488 12.974 19.7548 12.968 19.7668 12.956C19.9708 13.016 20.1448 13.052 20.2888 13.064C20.4448 13.064 20.6308 13.076 20.8468 13.1C20.9788 13.1 21.0928 13.1 21.1888 13.1C21.2968 13.088 21.3928 13.082 21.4768 13.082C21.5728 13.07 21.6688 13.064 21.7648 13.064C21.8728 13.064 21.9988 13.058 22.1428 13.046H22.2328C22.3768 13.046 22.4908 13.034 22.5748 13.01C22.6588 12.974 22.7308 12.944 22.7908 12.92C22.8628 12.884 22.9288 12.854 22.9888 12.83C23.0488 12.794 23.1208 12.776 23.2048 12.776C23.2288 12.848 23.2528 12.914 23.2768 12.974C23.3128 13.022 23.3308 13.076 23.3308 13.136L23.4028 13.208ZM27.4265 14H25.8425V4.352H27.4265V14ZM29.2985 0.391999C29.1905 0.559999 29.0345 0.763999 28.8305 1.004C28.6265 1.244 28.3985 1.496 28.1465 1.76C27.9065 2.012 27.6605 2.258 27.4085 2.498C27.1685 2.726 26.9405 2.924 26.7245 3.092H25.6805V2.876C25.8605 2.648 26.0525 2.378 26.2565 2.066C26.4725 1.754 26.6825 1.436 26.8865 1.112C27.0905 0.776 27.2585 0.476 27.3905 0.211999H29.2985V0.391999ZM30.3571 7.556C30.4171 7.376 30.5071 7.238 30.6271 7.142C30.7471 7.034 30.8971 6.944 31.0771 6.872C31.2571 6.788 31.4791 6.71 31.7431 6.638C32.0071 6.566 32.3011 6.476 32.6251 6.368C32.6371 6.332 32.7031 6.314 32.8231 6.314C32.9551 6.314 33.0931 6.314 33.2371 6.314C33.3931 6.314 33.5311 6.308 33.6511 6.296C33.7831 6.272 33.8551 6.23 33.8671 6.17C33.9751 6.194 34.0651 6.212 34.1371 6.224C34.2091 6.236 34.2751 6.242 34.3351 6.242C34.4071 6.242 34.4791 6.242 34.5511 6.242C34.6351 6.242 34.7371 6.242 34.8571 6.242H35.1451C35.1691 6.266 35.1931 6.296 35.2171 6.332C35.2411 6.356 35.2651 6.38 35.2891 6.404C35.3371 6.404 35.3791 6.458 35.4151 6.566C35.4511 6.662 35.4931 6.776 35.5411 6.908C35.5891 7.04 35.6431 7.16 35.7031 7.268C35.7631 7.376 35.8411 7.43 35.9371 7.43H35.9731C35.9851 7.454 35.9911 7.532 35.9911 7.664C36.0031 7.784 36.0151 7.916 36.0271 8.06C36.0511 8.192 36.0751 8.318 36.0991 8.438C36.1231 8.558 36.1531 8.63 36.1891 8.654C36.2011 8.978 36.2191 9.212 36.2431 9.356C36.2791 9.5 36.3091 9.614 36.3331 9.698C36.3691 9.77 36.3991 9.836 36.4231 9.896C36.4591 9.944 36.4831 10.016 36.4951 10.112C36.4951 10.112 36.4951 10.16 36.4951 10.256C36.5071 10.34 36.5191 10.436 36.5311 10.544C36.5431 10.64 36.5611 10.736 36.5851 10.832C36.6091 10.928 36.6391 10.976 36.6751 10.976C36.6631 10.976 36.6511 10.982 36.6391 10.994H36.5851C36.5971 11.27 36.6031 11.516 36.6031 11.732C36.6151 11.948 36.6211 12.158 36.6211 12.362C36.6331 12.554 36.6451 12.758 36.6571 12.974C36.6811 13.19 36.6991 13.436 36.7111 13.712C36.6631 13.808 36.6211 13.886 36.5851 13.946C36.5491 13.994 36.5251 14.048 36.5131 14.108H36.2611C36.1651 14.06 36.0991 14.006 36.0631 13.946C35.9071 13.946 35.7691 13.958 35.6491 13.982C35.5291 13.994 35.4211 14.012 35.3251 14.036C35.2411 14.06 35.1571 14.078 35.0731 14.09C34.9891 14.102 34.8991 14.108 34.8031 14.108C34.6831 14.108 34.5391 14.066 34.3711 13.982C34.2031 13.886 34.0411 13.838 33.8851 13.838C33.7411 13.838 33.6271 13.856 33.5431 13.892C33.4711 13.916 33.4171 13.952 33.3811 14C33.3571 14.036 33.3331 14.066 33.3091 14.09C33.2971 14.126 33.2791 14.144 33.2551 14.144H33.2371H32.2471C32.0911 14.144 31.9351 14.138 31.7791 14.126C31.6231 14.126 31.4551 14.126 31.2751 14.126C31.1191 14.126 30.9391 14.084 30.7351 14C30.5311 13.904 30.3331 13.784 30.1411 13.64C29.9491 13.484 29.7871 13.316 29.6551 13.136C29.5231 12.944 29.4571 12.752 29.4571 12.56C29.4571 11.96 29.5951 11.456 29.8711 11.048C30.1591 10.64 30.5911 10.292 31.1671 10.004C31.4071 9.944 31.5991 9.884 31.7431 9.824C31.8871 9.764 32.0131 9.71 32.1211 9.662C32.2411 9.602 32.3551 9.56 32.4631 9.536C32.5711 9.5 32.7031 9.482 32.8591 9.482L33.3991 9.176C33.5071 9.176 33.6031 9.176 33.6871 9.176C33.7711 9.164 33.8551 9.152 33.9391 9.14L34.4611 9.104V8.996C34.4611 8.888 34.4671 8.774 34.4791 8.654C34.4911 8.522 34.5271 8.384 34.5871 8.24C34.5871 8.168 34.5631 8.12 34.5151 8.096C34.4671 8.06 34.4311 8.024 34.4071 7.988C34.3471 7.964 34.3051 7.934 34.2811 7.898C34.2691 7.85 34.2571 7.802 34.2451 7.754C34.2331 7.706 34.2031 7.664 34.1551 7.628C34.1191 7.592 34.0531 7.574 33.9571 7.574C33.7771 7.574 33.5431 7.604 33.2551 7.664C32.9791 7.724 32.6911 7.796 32.3911 7.88C32.1031 7.964 31.8331 8.048 31.5811 8.132C31.3411 8.204 31.1611 8.252 31.0411 8.276C31.0051 8.276 30.9631 8.24 30.9151 8.168C30.8671 8.096 30.8131 8.012 30.7531 7.916C30.7051 7.82 30.6451 7.736 30.5731 7.664C30.5131 7.592 30.4411 7.556 30.3571 7.556ZM34.2631 10.58C34.1551 10.556 34.0351 10.526 33.9031 10.49C33.7831 10.454 33.6631 10.418 33.5431 10.382H33.4711C33.3751 10.382 33.2731 10.394 33.1651 10.418C33.0691 10.442 32.9611 10.472 32.8411 10.508C32.6011 10.568 32.3731 10.622 32.1571 10.67C31.9411 10.718 31.7491 10.796 31.5811 10.904C31.4251 11 31.2991 11.144 31.2031 11.336C31.1191 11.528 31.0771 11.792 31.0771 12.128C31.0771 12.296 31.1011 12.422 31.1491 12.506C31.2091 12.59 31.2811 12.704 31.3651 12.848L32.6251 12.776C32.8171 12.764 33.0151 12.752 33.2191 12.74C33.4231 12.728 33.6451 12.71 33.8851 12.686H34.1371V12.542C34.1371 12.446 34.1431 12.296 34.1551 12.092C34.1671 11.888 34.2031 11.69 34.2631 11.498V10.58ZM50.8708 11.606C50.8708 11.822 50.8828 12.02 50.9068 12.2C50.9308 12.368 50.9428 12.524 50.9428 12.668C50.9428 12.908 50.8828 13.112 50.7628 13.28C50.6548 13.436 50.5108 13.574 50.3308 13.694C50.1628 13.814 49.9828 13.916 49.7908 14C49.5988 14.096 49.4248 14.186 49.2688 14.27C49.1488 14.33 49.0528 14.378 48.9808 14.414C48.9088 14.462 48.8548 14.492 48.8188 14.504C48.7828 14.516 48.7528 14.522 48.7288 14.522C48.7168 14.534 48.7048 14.54 48.6928 14.54C48.6808 14.54 48.6448 14.546 48.5848 14.558C48.5248 14.582 48.4468 14.606 48.3508 14.63C48.2668 14.666 48.1768 14.69 48.0808 14.702C47.9848 14.714 47.8888 14.72 47.7928 14.72C47.6008 14.72 47.4028 14.69 47.1988 14.63C46.9948 14.582 46.7608 14.558 46.4968 14.558C46.3888 14.546 46.2808 14.552 46.1728 14.576C46.0768 14.6 45.9688 14.624 45.8488 14.648C45.6928 14.684 45.5548 14.708 45.4348 14.72C45.3268 14.732 45.2188 14.744 45.1108 14.756C45.0148 14.78 44.9128 14.792 44.8048 14.792C44.7088 14.804 44.5888 14.816 44.4448 14.828C44.4448 14.828 44.4208 14.816 44.3728 14.792C44.3248 14.768 44.2768 14.744 44.2288 14.72C44.1808 14.696 44.1388 14.666 44.1028 14.63C44.0668 14.594 44.0488 14.564 44.0488 14.54C44.0488 14.528 44.0548 14.516 44.0668 14.504C44.0548 14.504 44.0488 14.486 44.0488 14.45C44.0488 14.426 44.0548 14.396 44.0668 14.36C44.0908 14.324 44.1148 14.3 44.1388 14.288H44.1028C44.0788 14.288 44.0548 14.252 44.0308 14.18C44.0188 14.12 44.0008 14.042 43.9768 13.946C43.9648 13.85 43.9468 13.748 43.9228 13.64C43.9108 13.532 43.8928 13.43 43.8688 13.334C43.8808 13.322 43.9408 13.334 44.0488 13.37C44.1688 13.406 44.2708 13.424 44.3548 13.424C44.4388 13.424 44.4988 13.406 44.5348 13.37C44.7388 13.394 44.9188 13.418 45.0748 13.442C45.2308 13.454 45.3688 13.46 45.4888 13.46C45.7408 13.46 45.9688 13.43 46.1728 13.37C46.3888 13.31 46.6768 13.238 47.0368 13.154C47.0488 13.154 47.1148 13.148 47.2348 13.136C47.3548 13.124 47.4868 13.094 47.6308 13.046C47.7748 12.986 47.9068 12.902 48.0268 12.794C48.1468 12.674 48.2068 12.506 48.2068 12.29C48.2068 12.206 48.1828 12.128 48.1348 12.056C48.0868 11.984 48.0388 11.918 47.9908 11.858C47.9428 11.786 47.8948 11.726 47.8468 11.678C47.8108 11.618 47.7928 11.552 47.7928 11.48L47.2888 11.264L46.1368 10.742C45.9928 10.718 45.8608 10.67 45.7408 10.598C45.6328 10.514 45.5308 10.424 45.4348 10.328C45.3388 10.22 45.2308 10.124 45.1108 10.04C45.0028 9.956 44.8648 9.884 44.6968 9.824L44.4808 9.644C44.3608 9.548 44.2648 9.428 44.1928 9.284C44.1328 9.14 44.0908 8.966 44.0668 8.762C44.0908 8.738 44.1088 8.69 44.1208 8.618C44.1448 8.534 44.1568 8.456 44.1568 8.384C44.1568 8.312 44.1508 8.27 44.1388 8.258C44.1268 8.246 44.1208 8.222 44.1208 8.186C44.1208 8.066 44.1568 7.952 44.2288 7.844C44.3128 7.724 44.3548 7.586 44.3548 7.43C44.4628 7.346 44.5408 7.268 44.5888 7.196C44.6488 7.124 44.7028 7.058 44.7508 6.998C44.8708 6.806 45.0688 6.638 45.3448 6.494C45.6208 6.35 45.8668 6.224 46.0828 6.116L47.0008 5.648C47.2168 5.588 47.4028 5.54 47.5588 5.504C47.7148 5.468 47.9188 5.408 48.1708 5.324C48.2428 5.348 48.2968 5.366 48.3328 5.378C48.3808 5.378 48.4468 5.378 48.5308 5.378C48.7228 5.378 48.8848 5.372 49.0168 5.36C49.1488 5.348 49.3108 5.33 49.5028 5.306C49.6228 5.378 49.7068 5.426 49.7548 5.45C49.8148 5.474 49.9108 5.516 50.0428 5.576C50.0428 5.684 50.0428 5.768 50.0428 5.828C50.0428 5.876 50.0428 5.924 50.0428 5.972C50.0548 6.008 50.0608 6.05 50.0608 6.098C50.0608 6.146 50.0668 6.218 50.0788 6.314C49.9948 6.434 49.8688 6.494 49.7008 6.494C49.5448 6.494 49.4308 6.494 49.3588 6.494L49.0168 6.656C48.8728 6.692 48.6988 6.74 48.4948 6.8C48.3028 6.86 48.1468 6.914 48.0268 6.962C47.9428 7.01 47.8228 7.07 47.6668 7.142C47.5108 7.202 47.3728 7.232 47.2528 7.232H47.1628C46.8868 7.4 46.7128 7.55 46.6408 7.682C46.5808 7.802 46.5508 7.988 46.5508 8.24C46.5508 8.504 46.5808 8.678 46.6408 8.762C46.7008 8.834 46.7548 8.87 46.8028 8.87L47.6308 9.338C47.8588 9.47 48.1168 9.62 48.4048 9.788C48.7048 9.944 48.9988 10.082 49.2868 10.202C49.2988 10.238 49.3348 10.268 49.3948 10.292L49.9528 10.598C50.0248 10.646 50.0968 10.694 50.1688 10.742C50.2408 10.778 50.3428 10.82 50.4748 10.868C50.4748 10.94 50.4928 11.006 50.5288 11.066C50.5648 11.114 50.6068 11.168 50.6548 11.228C50.7028 11.288 50.7448 11.348 50.7808 11.408C50.8288 11.468 50.8588 11.534 50.8708 11.606ZM53.5603 7.556C53.6203 7.376 53.7103 7.238 53.8303 7.142C53.9503 7.034 54.1003 6.944 54.2803 6.872C54.4603 6.788 54.6823 6.71 54.9463 6.638C55.2103 6.566 55.5043 6.476 55.8283 6.368C55.8403 6.332 55.9063 6.314 56.0263 6.314C56.1583 6.314 56.2963 6.314 56.4403 6.314C56.5963 6.314 56.7343 6.308 56.8543 6.296C56.9863 6.272 57.0583 6.23 57.0703 6.17C57.1783 6.194 57.2683 6.212 57.3403 6.224C57.4123 6.236 57.4783 6.242 57.5383 6.242C57.6103 6.242 57.6823 6.242 57.7543 6.242C57.8383 6.242 57.9403 6.242 58.0603 6.242H58.3483C58.3723 6.266 58.3963 6.296 58.4203 6.332C58.4443 6.356 58.4683 6.38 58.4923 6.404C58.5403 6.404 58.5823 6.458 58.6183 6.566C58.6543 6.662 58.6963 6.776 58.7443 6.908C58.7923 7.04 58.8463 7.16 58.9063 7.268C58.9663 7.376 59.0443 7.43 59.1403 7.43H59.1763C59.1883 7.454 59.1943 7.532 59.1943 7.664C59.2063 7.784 59.2183 7.916 59.2303 8.06C59.2543 8.192 59.2783 8.318 59.3023 8.438C59.3263 8.558 59.3563 8.63 59.3923 8.654C59.4043 8.978 59.4223 9.212 59.4463 9.356C59.4823 9.5 59.5123 9.614 59.5363 9.698C59.5723 9.77 59.6023 9.836 59.6263 9.896C59.6623 9.944 59.6863 10.016 59.6983 10.112C59.6983 10.112 59.6983 10.16 59.6983 10.256C59.7103 10.34 59.7223 10.436 59.7343 10.544C59.7463 10.64 59.7643 10.736 59.7883 10.832C59.8123 10.928 59.8423 10.976 59.8783 10.976C59.8663 10.976 59.8543 10.982 59.8423 10.994H59.7883C59.8003 11.27 59.8063 11.516 59.8063 11.732C59.8183 11.948 59.8243 12.158 59.8243 12.362C59.8363 12.554 59.8483 12.758 59.8603 12.974C59.8843 13.19 59.9023 13.436 59.9143 13.712C59.8663 13.808 59.8243 13.886 59.7883 13.946C59.7523 13.994 59.7283 14.048 59.7163 14.108H59.4643C59.3683 14.06 59.3023 14.006 59.2663 13.946C59.1103 13.946 58.9723 13.958 58.8523 13.982C58.7323 13.994 58.6243 14.012 58.5283 14.036C58.4443 14.06 58.3603 14.078 58.2763 14.09C58.1923 14.102 58.1023 14.108 58.0063 14.108C57.8863 14.108 57.7423 14.066 57.5743 13.982C57.4063 13.886 57.2443 13.838 57.0883 13.838C56.9443 13.838 56.8303 13.856 56.7463 13.892C56.6743 13.916 56.6203 13.952 56.5843 14C56.5603 14.036 56.5363 14.066 56.5123 14.09C56.5003 14.126 56.4823 14.144 56.4583 14.144H56.4403H55.4503C55.2943 14.144 55.1383 14.138 54.9823 14.126C54.8263 14.126 54.6583 14.126 54.4783 14.126C54.3223 14.126 54.1423 14.084 53.9383 14C53.7343 13.904 53.5363 13.784 53.3442 13.64C53.1523 13.484 52.9903 13.316 52.8583 13.136C52.7263 12.944 52.6603 12.752 52.6603 12.56C52.6603 11.96 52.7983 11.456 53.0743 11.048C53.3623 10.64 53.7943 10.292 54.3703 10.004C54.6103 9.944 54.8023 9.884 54.9463 9.824C55.0903 9.764 55.2163 9.71 55.3243 9.662C55.4443 9.602 55.5583 9.56 55.6663 9.536C55.7743 9.5 55.9063 9.482 56.0623 9.482L56.6023 9.176C56.7103 9.176 56.8063 9.176 56.8903 9.176C56.9743 9.164 57.0583 9.152 57.1423 9.14L57.6643 9.104V8.996C57.6643 8.888 57.6703 8.774 57.6823 8.654C57.6943 8.522 57.7303 8.384 57.7903 8.24C57.7903 8.168 57.7663 8.12 57.7183 8.096C57.6703 8.06 57.6343 8.024 57.6103 7.988C57.5503 7.964 57.5083 7.934 57.4843 7.898C57.4723 7.85 57.4603 7.802 57.4482 7.754C57.4363 7.706 57.4063 7.664 57.3583 7.628C57.3223 7.592 57.2563 7.574 57.1603 7.574C56.9803 7.574 56.7463 7.604 56.4583 7.664C56.1823 7.724 55.8943 7.796 55.5943 7.88C55.3063 7.964 55.0363 8.048 54.7843 8.132C54.5443 8.204 54.3643 8.252 54.2443 8.276C54.2083 8.276 54.1663 8.24 54.1183 8.168C54.0703 8.096 54.0163 8.012 53.9563 7.916C53.9083 7.82 53.8483 7.736 53.7763 7.664C53.7163 7.592 53.6443 7.556 53.5603 7.556ZM57.4663 10.58C57.3583 10.556 57.2383 10.526 57.1063 10.49C56.9863 10.454 56.8663 10.418 56.7463 10.382H56.6743C56.5783 10.382 56.4763 10.394 56.3683 10.418C56.2723 10.442 56.1643 10.472 56.0443 10.508C55.8043 10.568 55.5763 10.622 55.3603 10.67C55.1443 10.718 54.9523 10.796 54.7843 10.904C54.6283 11 54.5023 11.144 54.4062 11.336C54.3223 11.528 54.2803 11.792 54.2803 12.128C54.2803 12.296 54.3043 12.422 54.3523 12.506C54.4123 12.59 54.4843 12.704 54.5683 12.848L55.8283 12.776C56.0203 12.764 56.2183 12.752 56.4223 12.74C56.6263 12.728 56.8483 12.71 57.0883 12.686H57.3403V12.542C57.3403 12.446 57.3463 12.296 57.3583 12.092C57.3703 11.888 57.4063 11.69 57.4663 11.498V10.58ZM67.6773 8.132C67.5213 8.264 67.3713 8.384 67.2273 8.492C67.0953 8.6 66.9633 8.702 66.8313 8.798L66.0033 9.428C65.8713 9.524 65.7573 9.626 65.6613 9.734C65.5773 9.83 65.4993 9.92 65.4273 10.004C65.3673 10.088 65.3073 10.172 65.2473 10.256C65.1993 10.34 65.1333 10.412 65.0493 10.472L65.1393 11.426L65.0493 12.002V12.362L64.7433 12.542L62.7633 12.704L62.7273 12.236L62.8173 12.038V7.43L63.1053 7.106H64.1493L64.6353 8.15V9.392L65.0133 9.032L65.5533 8.096L66.7593 7.124L66.9933 7.052L67.6773 8.132ZM69.6442 7.556C69.7042 7.376 69.7942 7.238 69.9142 7.142C70.0342 7.034 70.1842 6.944 70.3642 6.872C70.5442 6.788 70.7662 6.71 71.0302 6.638C71.2942 6.566 71.5882 6.476 71.9122 6.368C71.9242 6.332 71.9902 6.314 72.1102 6.314C72.2422 6.314 72.3802 6.314 72.5242 6.314C72.6802 6.314 72.8182 6.308 72.9382 6.296C73.0702 6.272 73.1422 6.23 73.1542 6.17C73.2622 6.194 73.3522 6.212 73.4242 6.224C73.4962 6.236 73.5622 6.242 73.6222 6.242C73.6942 6.242 73.7662 6.242 73.8382 6.242C73.9222 6.242 74.0242 6.242 74.1442 6.242H74.4322C74.4562 6.266 74.4802 6.296 74.5042 6.332C74.5282 6.356 74.5522 6.38 74.5762 6.404C74.6242 6.404 74.6662 6.458 74.7022 6.566C74.7382 6.662 74.7802 6.776 74.8282 6.908C74.8762 7.04 74.9302 7.16 74.9902 7.268C75.0502 7.376 75.1282 7.43 75.2242 7.43H75.2602C75.2722 7.454 75.2782 7.532 75.2782 7.664C75.2902 7.784 75.3022 7.916 75.3142 8.06C75.3382 8.192 75.3622 8.318 75.3862 8.438C75.4102 8.558 75.4402 8.63 75.4762 8.654C75.4882 8.978 75.5062 9.212 75.5302 9.356C75.5662 9.5 75.5962 9.614 75.6202 9.698C75.6562 9.77 75.6862 9.836 75.7102 9.896C75.7462 9.944 75.7702 10.016 75.7822 10.112C75.7822 10.112 75.7822 10.16 75.7822 10.256C75.7942 10.34 75.8062 10.436 75.8182 10.544C75.8302 10.64 75.8482 10.736 75.8722 10.832C75.8962 10.928 75.9262 10.976 75.9622 10.976C75.9502 10.976 75.9382 10.982 75.9262 10.994H75.8722C75.8842 11.27 75.8902 11.516 75.8902 11.732C75.9022 11.948 75.9082 12.158 75.9082 12.362C75.9202 12.554 75.9322 12.758 75.9442 12.974C75.9682 13.19 75.9862 13.436 75.9982 13.712C75.9502 13.808 75.9082 13.886 75.8722 13.946C75.8362 13.994 75.8122 14.048 75.8002 14.108H75.5482C75.4522 14.06 75.3862 14.006 75.3502 13.946C75.1942 13.946 75.0562 13.958 74.9362 13.982C74.8162 13.994 74.7082 14.012 74.6122 14.036C74.5282 14.06 74.4442 14.078 74.3602 14.09C74.2762 14.102 74.1862 14.108 74.0902 14.108C73.9702 14.108 73.8262 14.066 73.6582 13.982C73.4902 13.886 73.3282 13.838 73.1722 13.838C73.0282 13.838 72.9142 13.856 72.8302 13.892C72.7582 13.916 72.7042 13.952 72.6682 14C72.6442 14.036 72.6202 14.066 72.5962 14.09C72.5842 14.126 72.5662 14.144 72.5422 14.144H72.5242H71.5342C71.3782 14.144 71.2222 14.138 71.0662 14.126C70.9102 14.126 70.7422 14.126 70.5622 14.126C70.4062 14.126 70.2262 14.084 70.0222 14C69.8182 13.904 69.6202 13.784 69.4282 13.64C69.2362 13.484 69.0742 13.316 68.9422 13.136C68.8102 12.944 68.7442 12.752 68.7442 12.56C68.7442 11.96 68.8822 11.456 69.1582 11.048C69.4462 10.64 69.8782 10.292 70.4542 10.004C70.6942 9.944 70.8862 9.884 71.0302 9.824C71.1742 9.764 71.3002 9.71 71.4082 9.662C71.5282 9.602 71.6422 9.56 71.7502 9.536C71.8582 9.5 71.9902 9.482 72.1462 9.482L72.6862 9.176C72.7942 9.176 72.8902 9.176 72.9742 9.176C73.0582 9.164 73.1422 9.152 73.2262 9.14L73.7482 9.104V8.996C73.7482 8.888 73.7542 8.774 73.7662 8.654C73.7782 8.522 73.8142 8.384 73.8742 8.24C73.8742 8.168 73.8502 8.12 73.8022 8.096C73.7542 8.06 73.7182 8.024 73.6942 7.988C73.6342 7.964 73.5922 7.934 73.5682 7.898C73.5562 7.85 73.5442 7.802 73.5322 7.754C73.5202 7.706 73.4902 7.664 73.4422 7.628C73.4062 7.592 73.3402 7.574 73.2442 7.574C73.0642 7.574 72.8302 7.604 72.5422 7.664C72.2662 7.724 71.9782 7.796 71.6782 7.88C71.3902 7.964 71.1202 8.048 70.8682 8.132C70.6282 8.204 70.4482 8.252 70.3282 8.276C70.2922 8.276 70.2502 8.24 70.2022 8.168C70.1542 8.096 70.1002 8.012 70.0402 7.916C69.9922 7.82 69.9322 7.736 69.8602 7.664C69.8002 7.592 69.7282 7.556 69.6442 7.556ZM73.5502 10.58C73.4422 10.556 73.3222 10.526 73.1902 10.49C73.0702 10.454 72.9502 10.418 72.8302 10.382H72.7582C72.6622 10.382 72.5602 10.394 72.4522 10.418C72.3562 10.442 72.2482 10.472 72.1282 10.508C71.8882 10.568 71.6602 10.622 71.4442 10.67C71.2282 10.718 71.0362 10.796 70.8682 10.904C70.7122 11 70.5862 11.144 70.4902 11.336C70.4062 11.528 70.3642 11.792 70.3642 12.128C70.3642 12.296 70.3882 12.422 70.4362 12.506C70.4962 12.59 70.5682 12.704 70.6522 12.848L71.9122 12.776C72.1042 12.764 72.3022 12.752 72.5062 12.74C72.7102 12.728 72.9322 12.71 73.1722 12.686H73.4242V12.542C73.4242 12.446 73.4302 12.296 73.4422 12.092C73.4542 11.888 73.4902 11.69 73.5502 11.498V10.58ZM82.7713 8.924L83.7433 9.356C84.0193 9.512 84.2473 9.668 84.4273 9.824C84.6073 9.968 84.7513 10.13 84.8593 10.31C84.9673 10.49 85.0453 10.694 85.0933 10.922C85.1413 11.15 85.1653 11.432 85.1653 11.768C85.1653 11.948 85.0993 12.14 84.9673 12.344C84.8353 12.548 84.6733 12.74 84.4813 12.92C84.3013 13.088 84.1153 13.238 83.9233 13.37C83.7313 13.502 83.5753 13.592 83.4553 13.64L81.9613 14.144C81.8293 14.216 81.6913 14.264 81.5473 14.288C81.4033 14.312 81.2773 14.324 81.1693 14.324L80.3773 14.09H79.1893L78.9913 14.234H78.7213L78.6493 13.838V10.67L78.5413 10.616L78.8833 10.562V5.882L79.2073 5.576H80.1253L80.4493 5.828V5.936C80.4493 6.116 80.4673 6.272 80.5033 6.404C80.5513 6.536 80.5753 6.638 80.5753 6.71C80.5753 6.77 80.5453 6.8 80.4853 6.8V7.61L80.7733 8.744V8.87L81.8353 8.96C81.8353 8.984 81.8713 8.996 81.9433 8.996H82.1053H82.3933L82.7713 8.924ZM80.9713 10.166V11.21L81.0973 12.038V12.506H81.3313C81.3913 12.518 81.4393 12.524 81.4753 12.524C81.5113 12.524 81.5533 12.524 81.6013 12.524C81.7453 12.524 81.8773 12.518 81.9973 12.506C82.1293 12.482 82.2553 12.458 82.3753 12.434C82.4953 12.398 82.6213 12.356 82.7533 12.308C82.8853 12.26 83.0413 12.212 83.2213 12.164C83.2573 12.092 83.3113 12.026 83.3833 11.966C83.4553 11.906 83.5273 11.846 83.5993 11.786C83.6713 11.726 83.7313 11.66 83.7793 11.588C83.8273 11.516 83.8513 11.432 83.8513 11.336C83.8513 11.072 83.7793 10.856 83.6353 10.688C83.4913 10.508 83.3893 10.4 83.3293 10.364C83.2573 10.328 83.1493 10.286 83.0053 10.238C82.8613 10.19 82.7113 10.148 82.5553 10.112C82.3993 10.076 82.2493 10.046 82.1053 10.022C81.9613 9.986 81.8473 9.968 81.7633 9.968H81.6913C81.6193 9.992 81.5533 10.016 81.4933 10.04C81.4333 10.052 81.3673 10.07 81.2953 10.094L80.9713 10.166ZM90.0304 6.908L89.8504 8.258L89.5984 8.438L88.7524 8.276L87.6724 8.456L87.6184 8.24V6.53L88.0504 6.386L88.6264 6.512L89.4184 6.656L90.0304 6.908ZM90.1564 12.902L90.0484 13.586L90.1384 14.018L89.7964 14.18H88.4104L88.1944 14.252H87.8704L87.6904 14.054L88.0684 9.698L88.3744 9.554L89.0944 9.608L89.2384 9.536L89.6164 9.554L89.8324 9.788V11.03L89.9584 11.48V12.326L89.8504 12.65L90.1564 12.902ZM93.5153 7.556C93.5753 7.376 93.6653 7.238 93.7853 7.142C93.9053 7.034 94.0553 6.944 94.2353 6.872C94.4153 6.788 94.6373 6.71 94.9013 6.638C95.1653 6.566 95.4593 6.476 95.7833 6.368C95.7953 6.332 95.8613 6.314 95.9813 6.314C96.1133 6.314 96.2513 6.314 96.3953 6.314C96.5513 6.314 96.6893 6.308 96.8093 6.296C96.9413 6.272 97.0133 6.23 97.0253 6.17C97.1333 6.194 97.2233 6.212 97.2953 6.224C97.3673 6.236 97.4333 6.242 97.4933 6.242C97.5653 6.242 97.6373 6.242 97.7093 6.242C97.7933 6.242 97.8953 6.242 98.0153 6.242H98.3033C98.3273 6.266 98.3513 6.296 98.3753 6.332C98.3993 6.356 98.4233 6.38 98.4473 6.404C98.4953 6.404 98.5373 6.458 98.5733 6.566C98.6093 6.662 98.6513 6.776 98.6993 6.908C98.7473 7.04 98.8013 7.16 98.8613 7.268C98.9213 7.376 98.9993 7.43 99.0953 7.43H99.1313C99.1433 7.454 99.1493 7.532 99.1493 7.664C99.1613 7.784 99.1733 7.916 99.1853 8.06C99.2093 8.192 99.2333 8.318 99.2573 8.438C99.2813 8.558 99.3113 8.63 99.3473 8.654C99.3593 8.978 99.3773 9.212 99.4013 9.356C99.4373 9.5 99.4673 9.614 99.4913 9.698C99.5273 9.77 99.5573 9.836 99.5813 9.896C99.6173 9.944 99.6413 10.016 99.6533 10.112C99.6533 10.112 99.6533 10.16 99.6533 10.256C99.6653 10.34 99.6773 10.436 99.6893 10.544C99.7013 10.64 99.7193 10.736 99.7433 10.832C99.7673 10.928 99.7973 10.976 99.8333 10.976C99.8213 10.976 99.8093 10.982 99.7973 10.994H99.7433C99.7553 11.27 99.7613 11.516 99.7613 11.732C99.7733 11.948 99.7793 12.158 99.7793 12.362C99.7913 12.554 99.8033 12.758 99.8153 12.974C99.8393 13.19 99.8573 13.436 99.8693 13.712C99.8213 13.808 99.7793 13.886 99.7433 13.946C99.7073 13.994 99.6833 14.048 99.6713 14.108H99.4193C99.3233 14.06 99.2573 14.006 99.2213 13.946C99.0653 13.946 98.9273 13.958 98.8073 13.982C98.6873 13.994 98.5793 14.012 98.4833 14.036C98.3993 14.06 98.3153 14.078 98.2313 14.09C98.1473 14.102 98.0573 14.108 97.9613 14.108C97.8413 14.108 97.6973 14.066 97.5293 13.982C97.3613 13.886 97.1993 13.838 97.0433 13.838C96.8993 13.838 96.7853 13.856 96.7013 13.892C96.6293 13.916 96.5753 13.952 96.5393 14C96.5153 14.036 96.4913 14.066 96.4673 14.09C96.4553 14.126 96.4373 14.144 96.4133 14.144H96.3953H95.4053C95.2493 14.144 95.0933 14.138 94.9373 14.126C94.7813 14.126 94.6133 14.126 94.4333 14.126C94.2773 14.126 94.0973 14.084 93.8933 14C93.6893 13.904 93.4913 13.784 93.2993 13.64C93.1073 13.484 92.9453 13.316 92.8133 13.136C92.6813 12.944 92.6153 12.752 92.6153 12.56C92.6153 11.96 92.7533 11.456 93.0293 11.048C93.3173 10.64 93.7493 10.292 94.3253 10.004C94.5653 9.944 94.7573 9.884 94.9013 9.824C95.0453 9.764 95.1713 9.71 95.2793 9.662C95.3993 9.602 95.5133 9.56 95.6213 9.536C95.7293 9.5 95.8613 9.482 96.0173 9.482L96.5573 9.176C96.6653 9.176 96.7613 9.176 96.8453 9.176C96.9293 9.164 97.0133 9.152 97.0973 9.14L97.6193 9.104V8.996C97.6193 8.888 97.6253 8.774 97.6373 8.654C97.6493 8.522 97.6853 8.384 97.7453 8.24C97.7453 8.168 97.7213 8.12 97.6733 8.096C97.6253 8.06 97.5893 8.024 97.5653 7.988C97.5053 7.964 97.4633 7.934 97.4393 7.898C97.4273 7.85 97.4153 7.802 97.4033 7.754C97.3913 7.706 97.3613 7.664 97.3133 7.628C97.2773 7.592 97.2113 7.574 97.1153 7.574C96.9353 7.574 96.7013 7.604 96.4133 7.664C96.1373 7.724 95.8493 7.796 95.5493 7.88C95.2613 7.964 94.9913 8.048 94.7393 8.132C94.4993 8.204 94.3193 8.252 94.1993 8.276C94.1633 8.276 94.1213 8.24 94.0733 8.168C94.0253 8.096 93.9713 8.012 93.9113 7.916C93.8633 7.82 93.8033 7.736 93.7313 7.664C93.6713 7.592 93.5993 7.556 93.5153 7.556ZM97.4213 10.58C97.3133 10.556 97.1933 10.526 97.0613 10.49C96.9413 10.454 96.8213 10.418 96.7013 10.382H96.6293C96.5333 10.382 96.4313 10.394 96.3233 10.418C96.2273 10.442 96.1193 10.472 95.9993 10.508C95.7593 10.568 95.5313 10.622 95.3153 10.67C95.0993 10.718 94.9073 10.796 94.7393 10.904C94.5833 11 94.4573 11.144 94.3613 11.336C94.2773 11.528 94.2353 11.792 94.2353 12.128C94.2353 12.296 94.2593 12.422 94.3073 12.506C94.3673 12.59 94.4393 12.704 94.5233 12.848L95.7833 12.776C95.9753 12.764 96.1733 12.752 96.3773 12.74C96.5813 12.728 96.8033 12.71 97.0433 12.686H97.2953V12.542C97.2953 12.446 97.3013 12.296 97.3133 12.092C97.3253 11.888 97.3613 11.69 97.4213 11.498V10.58Z" fill="#1E1E1E"/>
</svg>
