<svg width="67" height="11" viewBox="0 0 67 11" fill="none" xmlns="http://www.w3.org/2000/svg">
<path d="M4.472 9.12479L4.364 9.72479L3.764 9.66479L3.26 9.83279L2.012 9.74879L1.64 9.85679L0.668 9.77279L0.368 9.83279L0.224 9.55679L0.176 8.88479V6.65279L0.404 5.50079V4.36079L0.584 4.09679L1.388 4.02479L1.496 4.16879L1.592 5.35679L1.88 6.08879V8.69279L1.964 8.95679L2.276 8.88479L2.852 8.95679L3.236 8.84879H4.208L4.472 9.12479ZM9.24247 6.70079V8.34479L9.13447 8.48879H8.41447L8.12647 8.29679L8.16247 8.21279L8.04247 8.09279L7.88647 8.16479L7.40647 8.64479L7.16647 8.76479L6.74647 8.71679L6.69847 8.80079L6.43447 8.88479L6.09847 8.66879L5.81047 8.57279L5.54647 7.91279L5.67847 6.60479L5.47447 6.19679L5.57047 5.41679L5.76247 5.35679H6.66247L6.86647 5.98079V7.30079L6.96247 7.44479L7.01047 7.62479L7.14247 7.67279L7.75447 7.46879H7.95847L8.10247 7.37279V5.41679L8.28247 5.32079L8.88247 5.45279L9.24247 6.70079ZM15.2685 9.13679H15.1965C15.2445 9.13679 15.2685 9.14879 15.2685 9.17279C15.2685 9.18879 15.2325 9.22879 15.1605 9.29279C15.0885 9.34879 15.0325 9.38479 14.9925 9.40079C14.7925 9.40879 14.6245 9.42479 14.4885 9.44879C14.3605 9.47279 14.2365 9.50079 14.1165 9.53279C14.0045 9.56479 13.8885 9.59279 13.7685 9.61679C13.6565 9.63279 13.5165 9.64079 13.3485 9.64079C13.2685 9.62479 13.2005 9.61679 13.1445 9.61679C13.0885 9.61679 13.0325 9.61679 12.9765 9.61679C12.9205 9.61679 12.8645 9.62079 12.8085 9.62879C12.7605 9.62879 12.7165 9.62879 12.6765 9.62879C12.5885 9.62879 12.5165 9.62479 12.4605 9.61679C12.4045 9.60879 12.3485 9.60079 12.2925 9.59279C12.2445 9.57679 12.1925 9.55279 12.1365 9.52079C12.0805 9.48079 12.0045 9.43279 11.9085 9.37679H11.7045C11.6965 9.37679 11.6845 9.35679 11.6685 9.31679C11.6525 9.26879 11.6365 9.24479 11.6205 9.24479L11.5605 9.18479C11.5605 9.18479 11.5445 9.16479 11.5125 9.12479C11.4805 9.08479 11.4485 9.04879 11.4165 9.01679C11.3125 8.87279 11.2525 8.74479 11.2365 8.63279C11.2285 8.51279 11.2245 8.39279 11.2245 8.27279C11.2325 8.20879 11.2445 8.14479 11.2605 8.08079C11.2765 8.01679 11.3005 7.95279 11.3325 7.88879C11.4125 7.74479 11.4845 7.62079 11.5485 7.51679C11.6205 7.41279 11.6885 7.31679 11.7525 7.22879C11.8245 7.14079 11.8965 7.06079 11.9685 6.98879C12.0485 6.91679 12.1405 6.84079 12.2445 6.76079C12.4125 6.65679 12.6085 6.58879 12.8325 6.55679C13.0645 6.52479 13.2845 6.47279 13.4925 6.40079C13.6285 6.40079 13.7445 6.40479 13.8405 6.41279C13.9445 6.41279 14.0445 6.41279 14.1405 6.41279H14.8005C14.8645 6.42079 14.8925 6.48079 14.8845 6.59279C14.8845 6.69679 14.8925 6.78879 14.9085 6.86879C14.8445 6.98079 14.8045 7.05279 14.7885 7.08479C14.7725 7.11679 14.7525 7.17279 14.7285 7.25279C14.6245 7.25279 14.5405 7.25279 14.4765 7.25279C14.4125 7.25279 14.3445 7.25279 14.2725 7.25279C14.2005 7.25279 14.1125 7.26079 14.0085 7.27679C13.9125 7.29279 13.7805 7.31679 13.6125 7.34879C13.3965 7.38079 13.2565 7.41279 13.1925 7.44479C13.1365 7.46879 13.0885 7.50479 13.0485 7.55279C13.0245 7.56879 13.0045 7.58479 12.9885 7.60079C12.9805 7.60879 12.9685 7.61679 12.9525 7.62479C12.9365 7.64079 12.9205 7.64879 12.9045 7.64879C12.9205 7.64079 12.8965 7.65679 12.8325 7.69679C12.7685 7.73679 12.6925 7.79279 12.6045 7.86479C12.5245 7.92879 12.4485 8.00879 12.3765 8.10479C12.3125 8.20079 12.2805 8.29679 12.2805 8.39279C12.2805 8.49679 12.3165 8.58879 12.3885 8.66879C12.4685 8.74879 12.5085 8.80479 12.5085 8.83679C12.5085 8.87679 12.5285 8.90479 12.5685 8.92079C12.6165 8.93679 12.6885 8.96079 12.7845 8.99279C12.8005 8.99279 12.8085 8.99279 12.8085 8.99279C12.8165 8.98479 12.8245 8.98079 12.8325 8.98079C12.8325 8.98079 12.8365 8.97679 12.8445 8.96879C12.9805 9.00879 13.0965 9.03279 13.1925 9.04079C13.2965 9.04079 13.4205 9.04879 13.5645 9.06479C13.6525 9.06479 13.7285 9.06479 13.7925 9.06479C13.8645 9.05679 13.9285 9.05279 13.9845 9.05279C14.0485 9.04479 14.1125 9.04079 14.1765 9.04079C14.2485 9.04079 14.3325 9.03679 14.4285 9.02879H14.4885C14.5845 9.02879 14.6605 9.02079 14.7165 9.00479C14.7725 8.98079 14.8205 8.96079 14.8605 8.94479C14.9085 8.92079 14.9525 8.90079 14.9925 8.88479C15.0325 8.86079 15.0805 8.84879 15.1365 8.84879C15.1525 8.89679 15.1685 8.94079 15.1845 8.98079C15.2085 9.01279 15.2205 9.04879 15.2205 9.08879L15.2685 9.13679ZM17.951 9.66479H16.895V3.23279H17.951V9.66479ZM19.199 0.592794C19.127 0.704794 19.023 0.840794 18.887 1.00079C18.751 1.16079 18.599 1.32879 18.431 1.50479C18.271 1.67279 18.107 1.83679 17.939 1.99679C17.779 2.14879 17.627 2.28079 17.483 2.39279H16.787V2.24879C16.907 2.09679 17.035 1.91679 17.171 1.70879C17.315 1.50079 17.455 1.28879 17.591 1.07279C17.727 0.848795 17.839 0.648795 17.927 0.472795H19.199V0.592794ZM19.9048 5.36879C19.9448 5.24879 20.0048 5.15679 20.0848 5.09279C20.1648 5.02079 20.2648 4.96079 20.3848 4.91279C20.5048 4.85679 20.6528 4.80479 20.8288 4.75679C21.0048 4.70879 21.2008 4.64879 21.4168 4.57679C21.4248 4.55279 21.4688 4.54079 21.5488 4.54079C21.6368 4.54079 21.7288 4.54079 21.8248 4.54079C21.9288 4.54079 22.0208 4.53679 22.1008 4.52879C22.1888 4.51279 22.2368 4.48479 22.2448 4.44479C22.3168 4.46079 22.3768 4.47279 22.4248 4.48079C22.4728 4.48879 22.5168 4.49279 22.5568 4.49279C22.6048 4.49279 22.6528 4.49279 22.7008 4.49279C22.7568 4.49279 22.8248 4.49279 22.9048 4.49279H23.0968C23.1128 4.50879 23.1288 4.52879 23.1448 4.55279C23.1608 4.56879 23.1768 4.58479 23.1928 4.60079C23.2248 4.60079 23.2528 4.63679 23.2768 4.70879C23.3008 4.77279 23.3288 4.84879 23.3608 4.93679C23.3928 5.02479 23.4288 5.10479 23.4688 5.17679C23.5088 5.24879 23.5608 5.28479 23.6248 5.28479H23.6488C23.6568 5.30079 23.6608 5.35279 23.6608 5.44079C23.6688 5.52079 23.6768 5.60879 23.6848 5.70479C23.7008 5.79279 23.7168 5.87679 23.7328 5.95679C23.7488 6.03679 23.7688 6.08479 23.7928 6.10079C23.8008 6.31679 23.8128 6.47279 23.8288 6.56879C23.8528 6.66479 23.8728 6.74079 23.8888 6.79679C23.9128 6.84479 23.9328 6.88879 23.9488 6.92879C23.9728 6.96079 23.9888 7.00879 23.9968 7.07279C23.9968 7.07279 23.9968 7.10479 23.9968 7.16879C24.0048 7.22479 24.0128 7.28879 24.0208 7.36079C24.0288 7.42479 24.0408 7.48879 24.0568 7.55279C24.0728 7.61679 24.0928 7.64879 24.1168 7.64879C24.1088 7.64879 24.1008 7.65279 24.0928 7.66079H24.0568C24.0648 7.84479 24.0688 8.00879 24.0688 8.15279C24.0768 8.29679 24.0808 8.43679 24.0808 8.57279C24.0888 8.70079 24.0968 8.83679 24.1048 8.98079C24.1208 9.12479 24.1328 9.28879 24.1408 9.47279C24.1088 9.53679 24.0808 9.58879 24.0568 9.62879C24.0328 9.66079 24.0168 9.69679 24.0088 9.73679H23.8408C23.7768 9.70479 23.7328 9.66879 23.7088 9.62879C23.6048 9.62879 23.5128 9.63679 23.4328 9.65279C23.3528 9.66079 23.2808 9.67279 23.2168 9.68879C23.1608 9.70479 23.1048 9.71679 23.0488 9.72479C22.9928 9.73279 22.9328 9.73679 22.8688 9.73679C22.7888 9.73679 22.6928 9.70879 22.5808 9.65279C22.4688 9.58879 22.3608 9.55679 22.2568 9.55679C22.1608 9.55679 22.0848 9.56879 22.0288 9.59279C21.9808 9.60879 21.9448 9.63279 21.9208 9.66479C21.9048 9.68879 21.8888 9.70879 21.8728 9.72479C21.8648 9.74879 21.8528 9.76079 21.8368 9.76079H21.8248H21.1648C21.0608 9.76079 20.9568 9.75679 20.8528 9.74879C20.7488 9.74879 20.6368 9.74879 20.5168 9.74879C20.4128 9.74879 20.2928 9.72079 20.1568 9.66479C20.0208 9.60079 19.8888 9.52079 19.7607 9.42479C19.6328 9.32079 19.5248 9.20879 19.4368 9.08879C19.3488 8.96079 19.3048 8.83279 19.3048 8.70479C19.3048 8.30479 19.3968 7.96879 19.5808 7.69679C19.7728 7.42479 20.0608 7.19279 20.4448 7.00079C20.6048 6.96079 20.7328 6.92079 20.8288 6.88079C20.9248 6.84079 21.0088 6.80479 21.0808 6.77279C21.1608 6.73279 21.2368 6.70479 21.3088 6.68879C21.3808 6.66479 21.4688 6.65279 21.5728 6.65279L21.9328 6.44879C22.0048 6.44879 22.0688 6.44879 22.1248 6.44879C22.1808 6.44079 22.2368 6.43279 22.2928 6.42479L22.6408 6.40079V6.32879C22.6408 6.25679 22.6448 6.18079 22.6528 6.10079C22.6608 6.01279 22.6848 5.92079 22.7248 5.82479C22.7248 5.77679 22.7088 5.74479 22.6768 5.72879C22.6448 5.70479 22.6208 5.68079 22.6048 5.65679C22.5648 5.64079 22.5368 5.62079 22.5208 5.59679C22.5128 5.56479 22.5048 5.53279 22.4967 5.50079C22.4888 5.46879 22.4688 5.44079 22.4368 5.41679C22.4128 5.39279 22.3688 5.38079 22.3048 5.38079C22.1848 5.38079 22.0288 5.40079 21.8368 5.44079C21.6528 5.48079 21.4608 5.52879 21.2608 5.58479C21.0688 5.64079 20.8888 5.69679 20.7208 5.75279C20.5608 5.80079 20.4408 5.83279 20.3608 5.84879C20.3368 5.84879 20.3088 5.82479 20.2768 5.77679C20.2448 5.72879 20.2088 5.67279 20.1688 5.60879C20.1368 5.54479 20.0968 5.48879 20.0488 5.44079C20.0088 5.39279 19.9608 5.36879 19.9048 5.36879ZM22.5088 7.38479C22.4368 7.36879 22.3568 7.34879 22.2688 7.32479C22.1888 7.30079 22.1088 7.27679 22.0288 7.25279H21.9808C21.9168 7.25279 21.8488 7.26079 21.7768 7.27679C21.7128 7.29279 21.6408 7.31279 21.5608 7.33679C21.4008 7.37679 21.2488 7.41279 21.1048 7.44479C20.9608 7.47679 20.8328 7.52879 20.7208 7.60079C20.6168 7.66479 20.5328 7.76079 20.4688 7.88879C20.4128 8.01679 20.3848 8.19279 20.3848 8.41679C20.3848 8.52879 20.4008 8.61279 20.4328 8.66879C20.4728 8.72479 20.5208 8.80079 20.5768 8.89679L21.4168 8.84879C21.5448 8.84079 21.6768 8.83279 21.8128 8.82479C21.9488 8.81679 22.0968 8.80479 22.2568 8.78879H22.4248V8.69279C22.4248 8.62879 22.4288 8.52879 22.4368 8.39279C22.4448 8.25679 22.4688 8.12479 22.5088 7.99679V7.38479ZM33.5805 8.06879C33.5805 8.21279 33.5885 8.34479 33.6045 8.46479C33.6205 8.57679 33.6285 8.68079 33.6285 8.77679C33.6285 8.93679 33.5885 9.07279 33.5085 9.18479C33.4365 9.28879 33.3405 9.38079 33.2205 9.46079C33.1085 9.54079 32.9885 9.60879 32.8605 9.66479C32.7325 9.72879 32.6165 9.78879 32.5125 9.84479C32.4325 9.88479 32.3685 9.91679 32.3205 9.94079C32.2725 9.97279 32.2365 9.99279 32.2125 10.0008C32.1885 10.0088 32.1685 10.0128 32.1525 10.0128C32.1445 10.0208 32.1365 10.0248 32.1285 10.0248C32.1205 10.0248 32.0965 10.0288 32.0565 10.0368C32.0165 10.0528 31.9645 10.0688 31.9005 10.0848C31.8445 10.1088 31.7845 10.1248 31.7205 10.1328C31.6565 10.1408 31.5925 10.1448 31.5285 10.1448C31.4005 10.1448 31.2685 10.1248 31.1325 10.0848C30.9965 10.0528 30.8405 10.0368 30.6645 10.0368C30.5925 10.0288 30.5205 10.0328 30.4485 10.0488C30.3845 10.0648 30.3125 10.0808 30.2325 10.0968C30.1285 10.1208 30.0365 10.1368 29.9565 10.1448C29.8845 10.1528 29.8125 10.1608 29.7405 10.1688C29.6765 10.1848 29.6085 10.1928 29.5365 10.1928C29.4725 10.2008 29.3925 10.2088 29.2965 10.2168C29.2965 10.2168 29.2805 10.2088 29.2485 10.1928C29.2165 10.1768 29.1845 10.1608 29.1525 10.1448C29.1205 10.1288 29.0925 10.1088 29.0685 10.0848C29.0445 10.0608 29.0325 10.0408 29.0325 10.0248C29.0325 10.0168 29.0365 10.0088 29.0445 10.0008C29.0365 10.0008 29.0325 9.98879 29.0325 9.96479C29.0325 9.94879 29.0365 9.92879 29.0445 9.90479C29.0605 9.88079 29.0765 9.86479 29.0925 9.85679H29.0685C29.0525 9.85679 29.0365 9.83279 29.0205 9.78479C29.0125 9.74479 29.0005 9.69279 28.9845 9.62879C28.9765 9.56479 28.9645 9.49679 28.9485 9.42479C28.9405 9.35279 28.9285 9.28479 28.9125 9.22079C28.9205 9.21279 28.9605 9.22079 29.0325 9.24479C29.1125 9.26879 29.1805 9.28079 29.2365 9.28079C29.2925 9.28079 29.3325 9.26879 29.3565 9.24479C29.4925 9.26079 29.6125 9.27679 29.7165 9.29279C29.8205 9.30079 29.9125 9.30479 29.9925 9.30479C30.1605 9.30479 30.3125 9.28479 30.4485 9.24479C30.5925 9.20479 30.7845 9.15679 31.0245 9.10079C31.0325 9.10079 31.0765 9.09679 31.1565 9.08879C31.2365 9.08079 31.3245 9.06079 31.4205 9.02879C31.5165 8.98879 31.6045 8.93279 31.6845 8.86079C31.7645 8.78079 31.8045 8.66879 31.8045 8.52479C31.8045 8.46879 31.7885 8.41679 31.7565 8.36879C31.7245 8.32079 31.6925 8.27679 31.6605 8.23679C31.6285 8.18879 31.5965 8.14879 31.5645 8.11679C31.5405 8.07679 31.5285 8.03279 31.5285 7.98479L31.1925 7.84079L30.4245 7.49279C30.3285 7.47679 30.2405 7.44479 30.1605 7.39679C30.0885 7.34079 30.0205 7.28079 29.9565 7.21679C29.8925 7.14479 29.8205 7.08079 29.7405 7.02479C29.6685 6.96879 29.5765 6.92079 29.4645 6.88079L29.3205 6.76079C29.2405 6.69679 29.1765 6.61679 29.1285 6.52079C29.0885 6.42479 29.0605 6.30879 29.0445 6.17279C29.0605 6.15679 29.0725 6.12479 29.0805 6.07679C29.0965 6.02079 29.1045 5.96879 29.1045 5.92079C29.1045 5.87279 29.1005 5.84479 29.0925 5.83679C29.0845 5.82879 29.0805 5.81279 29.0805 5.78879C29.0805 5.70879 29.1045 5.63279 29.1525 5.56079C29.2085 5.48079 29.2365 5.38879 29.2365 5.28479C29.3085 5.22879 29.3605 5.17679 29.3925 5.12879C29.4325 5.08079 29.4685 5.03679 29.5005 4.99679C29.5805 4.86879 29.7125 4.75679 29.8965 4.66079C30.0805 4.56479 30.2445 4.48079 30.3885 4.40879L31.0005 4.09679C31.1445 4.05679 31.2685 4.02479 31.3725 4.00079C31.4765 3.97679 31.6125 3.93679 31.7805 3.88079C31.8285 3.89679 31.8645 3.90879 31.8885 3.91679C31.9205 3.91679 31.9645 3.91679 32.0205 3.91679C32.1485 3.91679 32.2565 3.91279 32.3445 3.90479C32.4325 3.89679 32.5405 3.88479 32.6685 3.86879C32.7485 3.91679 32.8045 3.94879 32.8365 3.96479C32.8765 3.98079 32.9405 4.00879 33.0285 4.04879C33.0285 4.12079 33.0285 4.17679 33.0285 4.21679C33.0285 4.24879 33.0285 4.28079 33.0285 4.31279C33.0365 4.33679 33.0405 4.36479 33.0405 4.39679C33.0405 4.42879 33.0445 4.47679 33.0525 4.54079C32.9965 4.62079 32.9125 4.66079 32.8005 4.66079C32.6965 4.66079 32.6205 4.66079 32.5725 4.66079L32.3445 4.76879C32.2485 4.79279 32.1325 4.82479 31.9965 4.86479C31.8685 4.90479 31.7645 4.94079 31.6845 4.97279C31.6285 5.00479 31.5485 5.04479 31.4445 5.09279C31.3405 5.13279 31.2485 5.15279 31.1685 5.15279H31.1085C30.9245 5.26479 30.8085 5.36479 30.7605 5.45279C30.7205 5.53279 30.7005 5.65679 30.7005 5.82479C30.7005 6.00079 30.7205 6.11679 30.7605 6.17279C30.8005 6.22079 30.8365 6.24479 30.8685 6.24479L31.4205 6.55679C31.5725 6.64479 31.7445 6.74479 31.9365 6.85679C32.1365 6.96079 32.3325 7.05279 32.5245 7.13279C32.5325 7.15679 32.5565 7.17679 32.5965 7.19279L32.9685 7.39679C33.0165 7.42879 33.0645 7.46079 33.1125 7.49279C33.1605 7.51679 33.2285 7.54479 33.3165 7.57679C33.3165 7.62479 33.3285 7.66879 33.3525 7.70879C33.3765 7.74079 33.4045 7.77679 33.4365 7.81679C33.4685 7.85679 33.4965 7.89679 33.5205 7.93679C33.5525 7.97679 33.5725 8.02079 33.5805 8.06879ZM35.3735 5.36879C35.4135 5.24879 35.4735 5.15679 35.5535 5.09279C35.6335 5.02079 35.7335 4.96079 35.8535 4.91279C35.9735 4.85679 36.1215 4.80479 36.2975 4.75679C36.4735 4.70879 36.6695 4.64879 36.8855 4.57679C36.8935 4.55279 36.9375 4.54079 37.0175 4.54079C37.1055 4.54079 37.1975 4.54079 37.2935 4.54079C37.3975 4.54079 37.4895 4.53679 37.5695 4.52879C37.6575 4.51279 37.7055 4.48479 37.7135 4.44479C37.7855 4.46079 37.8455 4.47279 37.8935 4.48079C37.9415 4.48879 37.9855 4.49279 38.0255 4.49279C38.0735 4.49279 38.1215 4.49279 38.1695 4.49279C38.2255 4.49279 38.2935 4.49279 38.3735 4.49279H38.5655C38.5815 4.50879 38.5975 4.52879 38.6135 4.55279C38.6295 4.56879 38.6455 4.58479 38.6615 4.60079C38.6935 4.60079 38.7215 4.63679 38.7455 4.70879C38.7695 4.77279 38.7975 4.84879 38.8295 4.93679C38.8615 5.02479 38.8975 5.10479 38.9375 5.17679C38.9775 5.24879 39.0295 5.28479 39.0935 5.28479H39.1175C39.1255 5.30079 39.1295 5.35279 39.1295 5.44079C39.1375 5.52079 39.1455 5.60879 39.1535 5.70479C39.1695 5.79279 39.1855 5.87679 39.2015 5.95679C39.2175 6.03679 39.2375 6.08479 39.2615 6.10079C39.2695 6.31679 39.2815 6.47279 39.2975 6.56879C39.3215 6.66479 39.3415 6.74079 39.3575 6.79679C39.3815 6.84479 39.4015 6.88879 39.4175 6.92879C39.4415 6.96079 39.4575 7.00879 39.4655 7.07279C39.4655 7.07279 39.4655 7.10479 39.4655 7.16879C39.4735 7.22479 39.4815 7.28879 39.4895 7.36079C39.4975 7.42479 39.5095 7.48879 39.5255 7.55279C39.5415 7.61679 39.5615 7.64879 39.5855 7.64879C39.5775 7.64879 39.5695 7.65279 39.5615 7.66079H39.5255C39.5335 7.84479 39.5375 8.00879 39.5375 8.15279C39.5455 8.29679 39.5495 8.43679 39.5495 8.57279C39.5575 8.70079 39.5655 8.83679 39.5735 8.98079C39.5895 9.12479 39.6015 9.28879 39.6095 9.47279C39.5775 9.53679 39.5495 9.58879 39.5255 9.62879C39.5015 9.66079 39.4855 9.69679 39.4775 9.73679H39.3095C39.2455 9.70479 39.2015 9.66879 39.1775 9.62879C39.0735 9.62879 38.9815 9.63679 38.9015 9.65279C38.8215 9.66079 38.7495 9.67279 38.6855 9.68879C38.6295 9.70479 38.5735 9.71679 38.5175 9.72479C38.4615 9.73279 38.4015 9.73679 38.3375 9.73679C38.2575 9.73679 38.1615 9.70879 38.0495 9.65279C37.9375 9.58879 37.8295 9.55679 37.7255 9.55679C37.6295 9.55679 37.5535 9.56879 37.4975 9.59279C37.4495 9.60879 37.4135 9.63279 37.3895 9.66479C37.3735 9.68879 37.3575 9.70879 37.3415 9.72479C37.3335 9.74879 37.3215 9.76079 37.3055 9.76079H37.2935H36.6335C36.5295 9.76079 36.4255 9.75679 36.3215 9.74879C36.2175 9.74879 36.1055 9.74879 35.9855 9.74879C35.8815 9.74879 35.7615 9.72079 35.6255 9.66479C35.4895 9.60079 35.3575 9.52079 35.2295 9.42479C35.1015 9.32079 34.9935 9.20879 34.9055 9.08879C34.8175 8.96079 34.7735 8.83279 34.7735 8.70479C34.7735 8.30479 34.8655 7.96879 35.0495 7.69679C35.2415 7.42479 35.5295 7.19279 35.9135 7.00079C36.0735 6.96079 36.2015 6.92079 36.2975 6.88079C36.3935 6.84079 36.4775 6.80479 36.5495 6.77279C36.6295 6.73279 36.7055 6.70479 36.7775 6.68879C36.8495 6.66479 36.9375 6.65279 37.0415 6.65279L37.4015 6.44879C37.4735 6.44879 37.5375 6.44879 37.5935 6.44879C37.6495 6.44079 37.7055 6.43279 37.7615 6.42479L38.1095 6.40079V6.32879C38.1095 6.25679 38.1135 6.18079 38.1215 6.10079C38.1295 6.01279 38.1535 5.92079 38.1935 5.82479C38.1935 5.77679 38.1775 5.74479 38.1455 5.72879C38.1135 5.70479 38.0895 5.68079 38.0735 5.65679C38.0335 5.64079 38.0055 5.62079 37.9895 5.59679C37.9815 5.56479 37.9735 5.53279 37.9655 5.50079C37.9575 5.46879 37.9375 5.44079 37.9055 5.41679C37.8815 5.39279 37.8375 5.38079 37.7735 5.38079C37.6535 5.38079 37.4975 5.40079 37.3055 5.44079C37.1215 5.48079 36.9295 5.52879 36.7295 5.58479C36.5375 5.64079 36.3575 5.69679 36.1895 5.75279C36.0295 5.80079 35.9095 5.83279 35.8295 5.84879C35.8055 5.84879 35.7775 5.82479 35.7455 5.77679C35.7135 5.72879 35.6775 5.67279 35.6375 5.60879C35.6055 5.54479 35.5655 5.48879 35.5175 5.44079C35.4775 5.39279 35.4295 5.36879 35.3735 5.36879ZM37.9775 7.38479C37.9055 7.36879 37.8255 7.34879 37.7375 7.32479C37.6575 7.30079 37.5775 7.27679 37.4975 7.25279H37.4495C37.3855 7.25279 37.3175 7.26079 37.2455 7.27679C37.1815 7.29279 37.1095 7.31279 37.0295 7.33679C36.8695 7.37679 36.7175 7.41279 36.5735 7.44479C36.4295 7.47679 36.3015 7.52879 36.1895 7.60079C36.0855 7.66479 36.0015 7.76079 35.9375 7.88879C35.8815 8.01679 35.8535 8.19279 35.8535 8.41679C35.8535 8.52879 35.8695 8.61279 35.9015 8.66879C35.9415 8.72479 35.9895 8.80079 36.0455 8.89679L36.8855 8.84879C37.0135 8.84079 37.1455 8.83279 37.2815 8.82479C37.4175 8.81679 37.5655 8.80479 37.7255 8.78879H37.8935V8.69279C37.8935 8.62879 37.8975 8.52879 37.9055 8.39279C37.9135 8.25679 37.9375 8.12479 37.9775 7.99679V7.38479ZM44.7849 5.75279C44.6809 5.84079 44.5809 5.92079 44.4849 5.99279C44.3969 6.06479 44.3089 6.13279 44.2209 6.19679L43.6689 6.61679C43.5809 6.68079 43.5049 6.74879 43.4409 6.82079C43.3849 6.88479 43.3329 6.94479 43.2849 7.00079C43.2449 7.05679 43.2049 7.11279 43.1649 7.16879C43.1329 7.22479 43.0889 7.27279 43.0329 7.31279L43.0929 7.94879L43.0329 8.33279V8.57279L42.8289 8.69279L41.5089 8.80079L41.4849 8.48879L41.5449 8.35679V5.28479L41.7369 5.06879H42.4329L42.7569 5.76479V6.59279L43.0089 6.35279L43.3689 5.72879L44.1729 5.08079L44.3289 5.03279L44.7849 5.75279ZM46.0962 5.36879C46.1362 5.24879 46.1962 5.15679 46.2762 5.09279C46.3562 5.02079 46.4562 4.96079 46.5762 4.91279C46.6962 4.85679 46.8442 4.80479 47.0202 4.75679C47.1962 4.70879 47.3922 4.64879 47.6082 4.57679C47.6162 4.55279 47.6602 4.54079 47.7402 4.54079C47.8282 4.54079 47.9202 4.54079 48.0162 4.54079C48.1202 4.54079 48.2122 4.53679 48.2922 4.52879C48.3802 4.51279 48.4282 4.48479 48.4362 4.44479C48.5082 4.46079 48.5682 4.47279 48.6162 4.48079C48.6642 4.48879 48.7082 4.49279 48.7482 4.49279C48.7962 4.49279 48.8442 4.49279 48.8922 4.49279C48.9482 4.49279 49.0162 4.49279 49.0962 4.49279H49.2882C49.3042 4.50879 49.3202 4.52879 49.3362 4.55279C49.3522 4.56879 49.3682 4.58479 49.3842 4.60079C49.4162 4.60079 49.4442 4.63679 49.4682 4.70879C49.4922 4.77279 49.5202 4.84879 49.5522 4.93679C49.5842 5.02479 49.6202 5.10479 49.6602 5.17679C49.7002 5.24879 49.7522 5.28479 49.8162 5.28479H49.8402C49.8482 5.30079 49.8522 5.35279 49.8522 5.44079C49.8602 5.52079 49.8682 5.60879 49.8762 5.70479C49.8922 5.79279 49.9082 5.87679 49.9242 5.95679C49.9402 6.03679 49.9602 6.08479 49.9842 6.10079C49.9922 6.31679 50.0042 6.47279 50.0202 6.56879C50.0442 6.66479 50.0642 6.74079 50.0802 6.79679C50.1042 6.84479 50.1242 6.88879 50.1402 6.92879C50.1642 6.96079 50.1802 7.00879 50.1882 7.07279C50.1882 7.07279 50.1882 7.10479 50.1882 7.16879C50.1962 7.22479 50.2042 7.28879 50.2122 7.36079C50.2202 7.42479 50.2322 7.48879 50.2482 7.55279C50.2642 7.61679 50.2842 7.64879 50.3082 7.64879C50.3002 7.64879 50.2922 7.65279 50.2842 7.66079H50.2482C50.2562 7.84479 50.2602 8.00879 50.2602 8.15279C50.2682 8.29679 50.2722 8.43679 50.2722 8.57279C50.2802 8.70079 50.2882 8.83679 50.2962 8.98079C50.3122 9.12479 50.3242 9.28879 50.3322 9.47279C50.3002 9.53679 50.2722 9.58879 50.2482 9.62879C50.2242 9.66079 50.2082 9.69679 50.2002 9.73679H50.0322C49.9682 9.70479 49.9242 9.66879 49.9002 9.62879C49.7962 9.62879 49.7042 9.63679 49.6242 9.65279C49.5442 9.66079 49.4722 9.67279 49.4082 9.68879C49.3522 9.70479 49.2962 9.71679 49.2402 9.72479C49.1842 9.73279 49.1242 9.73679 49.0602 9.73679C48.9802 9.73679 48.8842 9.70879 48.7722 9.65279C48.6602 9.58879 48.5522 9.55679 48.4482 9.55679C48.3522 9.55679 48.2762 9.56879 48.2202 9.59279C48.1722 9.60879 48.1362 9.63279 48.1122 9.66479C48.0962 9.68879 48.0802 9.70879 48.0642 9.72479C48.0562 9.74879 48.0442 9.76079 48.0282 9.76079H48.0162H47.3562C47.2522 9.76079 47.1482 9.75679 47.0442 9.74879C46.9402 9.74879 46.8282 9.74879 46.7082 9.74879C46.6042 9.74879 46.4842 9.72079 46.3482 9.66479C46.2122 9.60079 46.0802 9.52079 45.9522 9.42479C45.8242 9.32079 45.7162 9.20879 45.6282 9.08879C45.5402 8.96079 45.4962 8.83279 45.4962 8.70479C45.4962 8.30479 45.5882 7.96879 45.7722 7.69679C45.9642 7.42479 46.2522 7.19279 46.6362 7.00079C46.7962 6.96079 46.9242 6.92079 47.0202 6.88079C47.1162 6.84079 47.2002 6.80479 47.2722 6.77279C47.3522 6.73279 47.4282 6.70479 47.5002 6.68879C47.5722 6.66479 47.6602 6.65279 47.7642 6.65279L48.1242 6.44879C48.1962 6.44879 48.2602 6.44879 48.3162 6.44879C48.3722 6.44079 48.4282 6.43279 48.4842 6.42479L48.8322 6.40079V6.32879C48.8322 6.25679 48.8362 6.18079 48.8442 6.10079C48.8522 6.01279 48.8762 5.92079 48.9162 5.82479C48.9162 5.77679 48.9002 5.74479 48.8682 5.72879C48.8362 5.70479 48.8122 5.68079 48.7962 5.65679C48.7562 5.64079 48.7282 5.62079 48.7122 5.59679C48.7042 5.56479 48.6962 5.53279 48.6882 5.50079C48.6802 5.46879 48.6602 5.44079 48.6282 5.41679C48.6042 5.39279 48.5602 5.38079 48.4962 5.38079C48.3762 5.38079 48.2202 5.40079 48.0282 5.44079C47.8442 5.48079 47.6522 5.52879 47.4522 5.58479C47.2602 5.64079 47.0802 5.69679 46.9122 5.75279C46.7522 5.80079 46.6322 5.83279 46.5522 5.84879C46.5282 5.84879 46.5002 5.82479 46.4682 5.77679C46.4362 5.72879 46.4002 5.67279 46.3602 5.60879C46.3282 5.54479 46.2882 5.48879 46.2402 5.44079C46.2002 5.39279 46.1522 5.36879 46.0962 5.36879ZM48.7002 7.38479C48.6282 7.36879 48.5482 7.34879 48.4602 7.32479C48.3802 7.30079 48.3002 7.27679 48.2202 7.25279H48.1722C48.1082 7.25279 48.0402 7.26079 47.9682 7.27679C47.9042 7.29279 47.8322 7.31279 47.7522 7.33679C47.5922 7.37679 47.4402 7.41279 47.2962 7.44479C47.1522 7.47679 47.0242 7.52879 46.9122 7.60079C46.8082 7.66479 46.7242 7.76079 46.6602 7.88879C46.6042 8.01679 46.5762 8.19279 46.5762 8.41679C46.5762 8.52879 46.5922 8.61279 46.6242 8.66879C46.6642 8.72479 46.7122 8.80079 46.7682 8.89679L47.6082 8.84879C47.7362 8.84079 47.8682 8.83279 48.0042 8.82479C48.1402 8.81679 48.2882 8.80479 48.4482 8.78879H48.6162V8.69279C48.6162 8.62879 48.6202 8.52879 48.6282 8.39279C48.6362 8.25679 48.6602 8.12479 48.7002 7.99679V7.38479ZM54.8475 6.28079L55.4955 6.56879C55.6795 6.67279 55.8315 6.77679 55.9515 6.88079C56.0715 6.97679 56.1675 7.08479 56.2395 7.20479C56.3115 7.32479 56.3635 7.46079 56.3955 7.61279C56.4275 7.76479 56.4435 7.95279 56.4435 8.17679C56.4435 8.29679 56.3995 8.42479 56.3115 8.56079C56.2235 8.69679 56.1155 8.82479 55.9875 8.94479C55.8675 9.05679 55.7435 9.15679 55.6155 9.24479C55.4875 9.33279 55.3835 9.39279 55.3035 9.42479L54.3075 9.76079C54.2195 9.80879 54.1275 9.84079 54.0315 9.85679C53.9355 9.87279 53.8515 9.88079 53.7795 9.88079L53.2515 9.72479H52.4595L52.3275 9.82079H52.1475L52.0995 9.55679V7.44479L52.0275 7.40879L52.2555 7.37279V4.25279L52.4715 4.04879H53.0835L53.2995 4.21679V4.28879C53.2995 4.40879 53.3115 4.51279 53.3355 4.60079C53.3675 4.68879 53.3835 4.75679 53.3835 4.80479C53.3835 4.84479 53.3635 4.86479 53.3235 4.86479V5.40479L53.5155 6.16079V6.24479L54.2235 6.30479C54.2235 6.32079 54.2475 6.32879 54.2955 6.32879H54.4035H54.5955L54.8475 6.28079ZM53.6475 7.10879V7.80479L53.7315 8.35679V8.66879H53.8875C53.9275 8.67679 53.9595 8.68079 53.9835 8.68079C54.0075 8.68079 54.0355 8.68079 54.0675 8.68079C54.1635 8.68079 54.2515 8.67679 54.3315 8.66879C54.4195 8.65279 54.5035 8.63679 54.5835 8.62079C54.6635 8.59679 54.7475 8.56879 54.8355 8.53679C54.9235 8.50479 55.0275 8.47279 55.1475 8.44079C55.1715 8.39279 55.2075 8.34879 55.2555 8.30879C55.3035 8.26879 55.3515 8.22879 55.3995 8.18879C55.4475 8.14879 55.4875 8.10479 55.5195 8.05679C55.5515 8.00879 55.5675 7.95279 55.5675 7.88879C55.5675 7.71279 55.5195 7.56879 55.4235 7.45679C55.3275 7.33679 55.2595 7.26479 55.2195 7.24079C55.1715 7.21679 55.0995 7.18879 55.0035 7.15679C54.9075 7.12479 54.8075 7.09679 54.7035 7.07279C54.5995 7.04879 54.4995 7.02879 54.4035 7.01279C54.3075 6.98879 54.2315 6.97679 54.1755 6.97679H54.1275C54.0795 6.99279 54.0355 7.00879 53.9955 7.02479C53.9555 7.03279 53.9115 7.04479 53.8635 7.06079L53.6475 7.10879ZM59.6869 4.93679L59.5669 5.83679L59.3989 5.95679L58.8349 5.84879L58.1149 5.96879L58.0789 5.82479V4.68479L58.3669 4.58879L58.7509 4.67279L59.2789 4.76879L59.6869 4.93679ZM59.7709 8.93279L59.6989 9.38879L59.7589 9.67679L59.5309 9.78479H58.6069L58.4629 9.83279H58.2469L58.1269 9.70079L58.3789 6.79679L58.5829 6.70079L59.0629 6.73679L59.1589 6.68879L59.4109 6.70079L59.5549 6.85679V7.68479L59.6389 7.98479V8.54879L59.5669 8.76479L59.7709 8.93279ZM62.0102 5.36879C62.0502 5.24879 62.1102 5.15679 62.1902 5.09279C62.2702 5.02079 62.3702 4.96079 62.4902 4.91279C62.6102 4.85679 62.7582 4.80479 62.9342 4.75679C63.1102 4.70879 63.3062 4.64879 63.5222 4.57679C63.5302 4.55279 63.5742 4.54079 63.6542 4.54079C63.7422 4.54079 63.8342 4.54079 63.9302 4.54079C64.0342 4.54079 64.1262 4.53679 64.2062 4.52879C64.2942 4.51279 64.3422 4.48479 64.3502 4.44479C64.4222 4.46079 64.4822 4.47279 64.5302 4.48079C64.5782 4.48879 64.6222 4.49279 64.6622 4.49279C64.7102 4.49279 64.7582 4.49279 64.8062 4.49279C64.8622 4.49279 64.9302 4.49279 65.0102 4.49279H65.2022C65.2182 4.50879 65.2342 4.52879 65.2502 4.55279C65.2662 4.56879 65.2822 4.58479 65.2982 4.60079C65.3302 4.60079 65.3582 4.63679 65.3822 4.70879C65.4062 4.77279 65.4342 4.84879 65.4662 4.93679C65.4982 5.02479 65.5342 5.10479 65.5742 5.17679C65.6142 5.24879 65.6662 5.28479 65.7302 5.28479H65.7542C65.7622 5.30079 65.7662 5.35279 65.7662 5.44079C65.7742 5.52079 65.7822 5.60879 65.7902 5.70479C65.8062 5.79279 65.8222 5.87679 65.8382 5.95679C65.8542 6.03679 65.8742 6.08479 65.8982 6.10079C65.9062 6.31679 65.9182 6.47279 65.9342 6.56879C65.9582 6.66479 65.9782 6.74079 65.9942 6.79679C66.0182 6.84479 66.0382 6.88879 66.0542 6.92879C66.0782 6.96079 66.0942 7.00879 66.1022 7.07279C66.1022 7.07279 66.1022 7.10479 66.1022 7.16879C66.1102 7.22479 66.1182 7.28879 66.1262 7.36079C66.1342 7.42479 66.1462 7.48879 66.1622 7.55279C66.1782 7.61679 66.1982 7.64879 66.2222 7.64879C66.2142 7.64879 66.2062 7.65279 66.1982 7.66079H66.1622C66.1702 7.84479 66.1742 8.00879 66.1742 8.15279C66.1822 8.29679 66.1862 8.43679 66.1862 8.57279C66.1942 8.70079 66.2022 8.83679 66.2102 8.98079C66.2262 9.12479 66.2382 9.28879 66.2462 9.47279C66.2142 9.53679 66.1862 9.58879 66.1622 9.62879C66.1382 9.66079 66.1222 9.69679 66.1142 9.73679H65.9462C65.8822 9.70479 65.8382 9.66879 65.8142 9.62879C65.7102 9.62879 65.6182 9.63679 65.5382 9.65279C65.4582 9.66079 65.3862 9.67279 65.3222 9.68879C65.2662 9.70479 65.2102 9.71679 65.1542 9.72479C65.0982 9.73279 65.0382 9.73679 64.9742 9.73679C64.8942 9.73679 64.7982 9.70879 64.6862 9.65279C64.5742 9.58879 64.4662 9.55679 64.3622 9.55679C64.2662 9.55679 64.1902 9.56879 64.1342 9.59279C64.0862 9.60879 64.0502 9.63279 64.0262 9.66479C64.0102 9.68879 63.9942 9.70879 63.9782 9.72479C63.9702 9.74879 63.9582 9.76079 63.9422 9.76079H63.9302H63.2702C63.1662 9.76079 63.0622 9.75679 62.9582 9.74879C62.8542 9.74879 62.7422 9.74879 62.6222 9.74879C62.5182 9.74879 62.3982 9.72079 62.2622 9.66479C62.1262 9.60079 61.9942 9.52079 61.8662 9.42479C61.7382 9.32079 61.6302 9.20879 61.5422 9.08879C61.4542 8.96079 61.4102 8.83279 61.4102 8.70479C61.4102 8.30479 61.5022 7.96879 61.6862 7.69679C61.8782 7.42479 62.1662 7.19279 62.5502 7.00079C62.7102 6.96079 62.8382 6.92079 62.9342 6.88079C63.0302 6.84079 63.1142 6.80479 63.1862 6.77279C63.2662 6.73279 63.3422 6.70479 63.4142 6.68879C63.4862 6.66479 63.5742 6.65279 63.6782 6.65279L64.0382 6.44879C64.1102 6.44879 64.1742 6.44879 64.2302 6.44879C64.2862 6.44079 64.3422 6.43279 64.3982 6.42479L64.7462 6.40079V6.32879C64.7462 6.25679 64.7502 6.18079 64.7582 6.10079C64.7662 6.01279 64.7902 5.92079 64.8302 5.82479C64.8302 5.77679 64.8142 5.74479 64.7822 5.72879C64.7502 5.70479 64.7262 5.68079 64.7102 5.65679C64.6702 5.64079 64.6422 5.62079 64.6262 5.59679C64.6182 5.56479 64.6102 5.53279 64.6022 5.50079C64.5942 5.46879 64.5742 5.44079 64.5422 5.41679C64.5182 5.39279 64.4742 5.38079 64.4102 5.38079C64.2902 5.38079 64.1342 5.40079 63.9422 5.44079C63.7582 5.48079 63.5662 5.52879 63.3662 5.58479C63.1742 5.64079 62.9942 5.69679 62.8262 5.75279C62.6662 5.80079 62.5462 5.83279 62.4662 5.84879C62.4422 5.84879 62.4142 5.82479 62.3822 5.77679C62.3502 5.72879 62.3142 5.67279 62.2742 5.60879C62.2422 5.54479 62.2022 5.48879 62.1542 5.44079C62.1142 5.39279 62.0662 5.36879 62.0102 5.36879ZM64.6142 7.38479C64.5422 7.36879 64.4622 7.34879 64.3742 7.32479C64.2942 7.30079 64.2142 7.27679 64.1342 7.25279H64.0862C64.0222 7.25279 63.9542 7.26079 63.8822 7.27679C63.8182 7.29279 63.7462 7.31279 63.6662 7.33679C63.5062 7.37679 63.3542 7.41279 63.2102 7.44479C63.0662 7.47679 62.9382 7.52879 62.8262 7.60079C62.7222 7.66479 62.6382 7.76079 62.5742 7.88879C62.5182 8.01679 62.4902 8.19279 62.4902 8.41679C62.4902 8.52879 62.5062 8.61279 62.5382 8.66879C62.5782 8.72479 62.6262 8.80079 62.6822 8.89679L63.5222 8.84879C63.6502 8.84079 63.7822 8.83279 63.9182 8.82479C64.0542 8.81679 64.2022 8.80479 64.3622 8.78879H64.5302V8.69279C64.5302 8.62879 64.5342 8.52879 64.5422 8.39279C64.5502 8.25679 64.5742 8.12479 64.6142 7.99679V7.38479Z" fill="#1E1E1E"/>
</svg>
