<svg width="33" height="33" viewBox="0 0 33 33" fill="none" xmlns="http://www.w3.org/2000/svg">
<path d="M26.0002 4.10526C26.7261 4.10526 27.4222 4.3936 27.9354 4.90686C28.4487 5.42011 28.737 6.11624 28.737 6.8421V26C28.737 26.7258 28.4487 27.422 27.9354 27.9352C27.4222 28.4485 26.7261 28.7368 26.0002 28.7368H6.84231C6.11646 28.7368 5.42033 28.4485 4.90707 27.9352C4.39381 27.422 4.10547 26.7258 4.10547 26V6.8421C4.10547 6.11624 4.39381 5.42011 4.90707 4.90686C5.42033 4.3936 6.11646 4.10526 6.84231 4.10526H26.0002ZM25.316 25.3158V18.0631C25.316 16.88 24.846 15.7453 24.0094 14.9087C23.1728 14.0721 22.0381 13.6021 20.8549 13.6021C19.6918 13.6021 18.337 14.3137 17.6802 15.381V13.8621H13.8623V25.3158H17.6802V18.5695C17.6802 17.5158 18.5286 16.6537 19.5823 16.6537C20.0904 16.6537 20.5777 16.8555 20.937 17.2148C21.2963 17.5741 21.4981 18.0614 21.4981 18.5695V25.3158H25.316ZM9.41494 11.7137C10.0247 11.7137 10.6094 11.4715 11.0405 11.0403C11.4717 10.6092 11.7139 10.0244 11.7139 9.41473C11.7139 8.1421 10.6876 7.1021 9.41494 7.1021C8.80159 7.1021 8.21337 7.34575 7.77966 7.77945C7.34596 8.21315 7.10231 8.80138 7.10231 9.41473C7.10231 10.6874 8.14231 11.7137 9.41494 11.7137ZM11.317 25.3158V13.8621H7.52652V25.3158H11.317Z" fill="#1E1E1E" fill-opacity="0.75"/>
</svg>
