<svg width="33" height="33" viewBox="0 0 33 33" fill="none" xmlns="http://www.w3.org/2000/svg">
<path d="M10.8323 2.73685H22.3271C26.706 2.73685 30.2639 6.29474 30.2639 10.6737V22.1684C30.2639 24.2734 29.4277 26.2922 27.9393 27.7806C26.4508 29.2691 24.4321 30.1053 22.3271 30.1053H10.8323C6.4534 30.1053 2.89551 26.5474 2.89551 22.1684V10.6737C2.89551 8.56871 3.73171 6.54994 5.22016 5.06149C6.7086 3.57305 8.72737 2.73685 10.8323 2.73685ZM10.5587 5.47369C9.25212 5.47369 7.9991 5.99271 7.07523 6.91657C6.15137 7.84044 5.63235 9.09346 5.63235 10.4V22.4421C5.63235 25.1653 7.83551 27.3684 10.5587 27.3684H22.6008C23.9073 27.3684 25.1603 26.8494 26.0842 25.9255C27.0081 25.0017 27.5271 23.7486 27.5271 22.4421V10.4C27.5271 7.67685 25.3239 5.47369 22.6008 5.47369H10.5587ZM23.7639 7.52632C24.2176 7.52632 24.6527 7.70654 24.9735 8.02732C25.2942 8.34811 25.4745 8.78319 25.4745 9.23685C25.4745 9.69051 25.2942 10.1256 24.9735 10.4464C24.6527 10.7672 24.2176 10.9474 23.7639 10.9474C23.3103 10.9474 22.8752 10.7672 22.5544 10.4464C22.2336 10.1256 22.0534 9.69051 22.0534 9.23685C22.0534 8.78319 22.2336 8.34811 22.5544 8.02732C22.8752 7.70654 23.3103 7.52632 23.7639 7.52632ZM16.5797 9.57895C18.3944 9.57895 20.1347 10.2998 21.4178 11.583C22.701 12.8661 23.4218 14.6064 23.4218 16.4211C23.4218 18.2357 22.701 19.976 21.4178 21.2592C20.1347 22.5423 18.3944 23.2632 16.5797 23.2632C14.7651 23.2632 13.0248 22.5423 11.7416 21.2592C10.4585 19.976 9.73761 18.2357 9.73761 16.4211C9.73761 14.6064 10.4585 12.8661 11.7416 11.583C13.0248 10.2998 14.7651 9.57895 16.5797 9.57895ZM16.5797 12.3158C15.4909 12.3158 14.4467 12.7483 13.6769 13.5182C12.907 14.2881 12.4745 15.3323 12.4745 16.4211C12.4745 17.5098 12.907 18.554 13.6769 19.3239C14.4467 20.0938 15.4909 20.5263 16.5797 20.5263C17.6685 20.5263 18.7127 20.0938 19.4826 19.3239C20.2525 18.554 20.685 17.5098 20.685 16.4211C20.685 15.3323 20.2525 14.2881 19.4826 13.5182C18.7127 12.7483 17.6685 12.3158 16.5797 12.3158Z" fill="#1E1E1E" fill-opacity="0.75"/>
</svg>
