<?xml version="1.0" encoding="UTF-8"?>
<svg id="Capa_2" data-name="Capa 2" xmlns="http://www.w3.org/2000/svg" viewBox="0 0 68.52 78.52">
  <defs>
    <style>
      .cls-1 {
        fill: #7025be;
      }
    </style>
  </defs>
  <g id="Capa_5" data-name="Capa 5">
    <g id="orc_icon" data-name="orc  icon">
      <path class="cls-1" d="m49.96,58.64s0-.03,0-.05v-2.93c0-1.15-.94-2.09-2.09-2.09h-.22c.04-.17.07-.34.07-.52v-4.33c9.64-2.24,9.06-11.01,9.06-11.1l-.06-.72h-9v-2.67c0-5.99-4.88-10.87-10.87-10.87h-15.96c-5.99,0-10.87,4.88-10.87,10.87v2.67H1.14l-.06.72c0,.09-.58,8.79,8.95,11.07v4.36c0,.19.03.37.08.55-.99.16-1.75,1.02-1.75,2.06v2.91c-4.25,1.24-7.27,5.22-7.27,9.69v10.26h55.93v-10.26c0-4.44-2.87-8.31-7.05-9.63Zm-2.12-20.16h7.39c-.09,1.89-.95,6.89-7.39,8.61v-8.61Zm-36.24-4.23c0-5.13,4.17-9.3,9.3-9.3h15.96c5.13,0,9.3,4.17,9.3,9.3v18.81c0,.29-.23.52-.52.52h-3.06v-3.02c0-2.53-2.06-4.59-4.59-4.59s-4.59,2.06-4.59,4.59v3.02h-8.95v-3.02c0-2.53-2.06-4.59-4.59-4.59s-4.59,2.06-4.59,4.59v3.02h-3.17c-.29,0-.52-.23-.52-.52v-18.81Zm29.42,19.33h-6.04v-3.02c0-1.67,1.35-3.02,3.02-3.02s3.02,1.35,3.02,3.02v3.02Zm-18.12,0h-6.04v-3.02c0-1.67,1.35-3.02,3.02-3.02s3.02,1.35,3.02,3.02v3.02ZM2.64,38.48h7.39v8.61c-6.44-1.72-7.3-6.72-7.39-8.61Zm7.27,17.19c0-.29.23-.52.52-.52h37.44c.29,0,.52.23.52.52v2.93c0,5.13-4.17,9.3-9.3,9.3h-19.87c-5.13,0-9.3-4.17-9.3-9.3v-2.93Zm45.52,21.29H2.64v-8.69c0-3.67,2.4-6.94,5.82-8.09.77,5.25,5.3,9.29,10.75,9.29h19.87c5.43,0,9.94-4,10.74-9.21,3.34,1.21,5.61,4.39,5.61,8.02v8.69Z"/>
      <path class="cls-1" d="m17.6,38.48h2.95v.9c0,.67.55,1.22,1.22,1.22h0c.67,0,1.22-.55,1.22-1.22v-.9h11.88v.9c0,.67.55,1.22,1.22,1.22h0c.67,0,1.22-.55,1.22-1.22v-.9h3.25c.43,0,.78-.35.78-.78s-.35-.78-.78-.78h-22.96c-.43,0-.78.35-.78.78s.35.78.78.78Z"/>
      <path class="cls-1" d="m5.56,16.4c-.25.3-.2.77.06,1.04.28.3.69.35,1.03.13.15-.1.28-.22.41-.35.44-.45.88-.9,1.4-1.43.07.12.1.22.17.29.45.46.92.92,1.38,1.38.21.2.44.32.74.24.55-.15,1.02-.83.42-1.42-.46-.46-.92-.92-1.38-1.38-.06-.06-.12-.13-.2-.21.55-.55,1.09-1.06,1.61-1.6.37-.38.35-.83,0-1.17-.36-.34-.77-.34-1.16.02-.45.43-.89.87-1.32,1.32-.09.09-.14.22-.24.37-.63-.64-1.15-1.2-1.69-1.73-.33-.33-.74-.3-1.09.01-.31.29-.36.73-.11,1.07.12.16.26.3.4.44.42.41.85.82,1.32,1.27-.32.31-.59.56-.86.83-.29.29-.6.58-.86.89Z"/>
      <path class="cls-1" d="m54.97,7.86c0-.17-.02-.34-.05-.49-.06-.29-.24-.51-.54-.63-.31-.13-.64-.1-.89.07-.26.17-.41.46-.41.8,0,.66,0,1.32,0,1.98v.84s0,.82,0,.82c0,.67,0,1.33,0,2,0,.48.25.82.69.97.1.03.2.05.3.05.29,0,.56-.14.69-.37.12-.21.2-.49.2-.74.01-1.56,0-3.16,0-4.69v-.61Z"/>
      <path class="cls-1" d="m47.15,10.42c0-.21,0-.42,0-.63,0-.64,0-1.31-.01-1.97,0-.28-.09-.57-.22-.78-.2-.32-.6-.45-1-.31-.41.14-.66.51-.66,1,0,2.03,0,3.88,0,5.64,0,.25.1.48.27.65.17.17.41.26.68.26,0,0,.02,0,.03,0,.56-.01.92-.39.92-.98,0-.65,0-1.3,0-1.96v-.81s0-.11,0-.11Z"/>
      <path class="cls-1" d="m51.07,9.64c0-.66,0-1.31,0-1.97,0-.53-.39-.96-.9-.99-.48-.03-.9.35-.97.89-.02.13-.02.26-.02.38,0,1.68,0,3.35,0,5.03,0,.17,0,.39.05.6.09.42.43.69.87.7,0,0,.02,0,.02,0,.25,0,.47-.09.64-.25.19-.19.3-.47.31-.79,0-.65,0-1.3,0-1.95v-.82s0-.82,0-.82Z"/>
      <path class="cls-1" d="m54.02,15.48h0c-.25,0-.49.1-.66.28-.17.18-.27.42-.26.69.01.53.4.92.92.92,0,0,.01,0,.02,0,.25,0,.49-.1.65-.27.17-.18.26-.42.26-.7,0-.54-.39-.91-.92-.91Z"/>
      <path class="cls-1" d="m46.21,15.49h0c-.26,0-.49.09-.65.25-.17.17-.26.41-.26.7,0,.28.1.52.27.69.16.16.38.24.63.24h0c.25,0,.49-.1.66-.27.17-.18.27-.42.27-.69,0-.54-.38-.92-.91-.92Z"/>
      <path class="cls-1" d="m50.17,15.48c-.27,0-.51.08-.68.25-.17.17-.26.4-.27.67,0,.27.09.51.25.68.17.17.4.27.66.27h.01c.25,0,.46-.08.62-.24.17-.17.27-.41.27-.69,0-.53-.37-.93-.87-.94Z"/>
      <path class="cls-1" d="m63.28,22.47c.17-.19.29-.47.33-.72.04-.35-.16-.66-.55-.83-.37-.16-.73-.1-1.03.19-.49.47-.94.91-1.37,1.36-.07.07-.12.11-.15.11h0s-.08-.03-.15-.1c-.44-.46-.88-.91-1.3-1.32-.26-.26-.59-.36-.92-.29-.31.07-.55.29-.67.62-.13.35-.04.69.27,1l.2.2c.36.37.73.75,1.1,1.11.03.03.11.1.11.14,0,.01-.01.05-.1.13-.43.4-.88.85-1.4,1.41-.35.38-.32.89.07,1.28.38.37.83.38,1.22.04.16-.14.32-.3.46-.45l.06-.06c.26-.27.52-.53.78-.81l.24-.25h0s.07.07.1.1c.15.15.29.3.44.44.33.33.66.67,1.01,1,.2.19.39.28.6.28.16,0,.32-.06.5-.17.27-.17.43-.41.46-.67.03-.25-.06-.51-.26-.73-.46-.49-.95-.97-1.38-1.39-.07-.07-.11-.12-.1-.15,0-.02.02-.06.1-.14.38-.35.87-.83,1.33-1.33Z"/>
      <path class="cls-1" d="m61,15.89c.52-1.32.81-2.76.81-4.26,0-6.41-5.22-11.63-11.63-11.63s-11.63,5.22-11.63,11.63c0,4.14,2.2,7.96,5.76,10.04l.23,3.18,3.08-1.88c.35.08.71.15,1.07.19.5.06,1,.1,1.49.1.86,0,1.7-.1,2.51-.28-.03.28-.05.55-.05.83,0,1.73.54,3.36,1.57,4.73v3.2l2.87-.81c1.09.53,2.29.82,3.51.82,4.38,0,7.94-3.56,7.94-7.94s-3.34-7.71-7.52-7.93Zm-12.14,5.94c-.41-.05-.81-.13-1.2-.23l-.52.08-1.43.87-.1-1.34v-.37l-.35-.17c-3.32-1.8-5.38-5.27-5.38-9.05,0-5.67,4.62-10.29,10.29-10.29s10.29,4.62,10.29,10.29-4.62,10.29-10.29,10.29c-.44,0-.88-.03-1.32-.08Zm11.72,8.59c-1.1,0-2.15-.26-3.12-.78l-.5-.05-1.41.4v-1.65l-.14-.42c-.93-1.18-1.42-2.59-1.42-4.09,0-.42.04-.83.12-1.24,2.68-.96,4.91-2.88,6.27-5.35.07,0,.14,0,.21,0,3.64,0,6.6,2.96,6.6,6.6s-2.96,6.6-6.6,6.6Z"/>
      <path class="cls-1" d="m8.37,22.84c1.37,0,2.73-.34,3.93-.98l2.77.57-.1-2.82c1.14-1.46,1.76-3.28,1.76-5.14,0-4.61-3.75-8.37-8.37-8.37-1.53,0-3.03.42-4.34,1.21l.7,1.16c1.09-.66,2.35-1.01,3.63-1.01,3.87,0,7.01,3.14,7.01,7.01,0,1.63-.57,3.23-1.62,4.48l-.16.46h0s.05,1.35.05,1.35l-1.33-.27h0s0,0,0,0h-.14s-.18-.01-.18-.01l-.16.09c-1.05.61-2.26.93-3.48.93-3.87,0-7.01-3.14-7.01-7.01,0-1.6.52-3.1,1.51-4.34l-1.06-.84c-1.18,1.49-1.8,3.28-1.8,5.19,0,4.61,3.75,8.37,8.37,8.37Z"/>
    </g>
  </g>
</svg>