<?xml version="1.0" encoding="UTF-8"?>
<svg id="Capa_2" data-name="Capa 2" xmlns="http://www.w3.org/2000/svg" viewBox="0 0 51.04 55.69">
  <defs>
    <style>
      .cls-1 {
        fill: #dfc0ff;
      }
    </style>
  </defs>
  <g id="Capa_5" data-name="Capa 5">
    <g id="participants_icon" data-name="participants icon">
      <g>
        <path class="cls-1" d="m11.31,16.55c2.82,0,5.65.01,8.47,0,1.54-.01,2.76,1.2,2.76,2.7.02,5.54.02,11.08,0,16.61,0,1.37-1.21,2.5-2.58,2.5-.33,0-.66,0-.98,0-.65.02-.61-.15-.61.63,0,2.85,0,5.71,0,8.56,0,1.9,0,3.81-.04,5.71-.03,1.38-1.23,2.38-2.42,2.4-3.1.03-6.21.03-9.31,0-1.3-.02-2.39-1.22-2.39-2.59,0-4.62,0-9.24,0-13.85,0-.98.08-.85-.85-.85-.72,0-1.46.06-2.1-.4-.7-.5-1.15-1.14-1.18-2.04-.18-5.24-.04-10.48-.06-15.72,0-.59,0-1.18.15-1.76.26-1,1.4-1.89,2.42-1.89,2.9,0,5.8,0,8.7,0Z"/>
        <path class="cls-1" d="m11.28,13.93c-3.87.02-6.85-3.13-6.95-6.69C4.21,3.15,7.42-.01,11.25,0c3.88.01,6.96,3.09,6.99,7.02.03,3.78-3.2,6.96-6.97,6.92Z"/>
        <path class="cls-1" d="m39.8,16.55c2.82,0,5.65.01,8.47,0,1.54-.01,2.76,1.2,2.76,2.7.02,5.54.02,11.08,0,16.61,0,1.37-1.21,2.5-2.58,2.5-.33,0-.66,0-.98,0-.65.02-.61-.15-.61.63,0,2.85,0,5.71,0,8.56,0,1.9,0,3.81-.04,5.71-.03,1.38-1.23,2.38-2.42,2.4-3.1.03-6.21.03-9.31,0-1.3-.02-2.39-1.22-2.39-2.59,0-4.62,0-9.24,0-13.85,0-.98.08-.85-.85-.85-.72,0-1.46.06-2.1-.4-.7-.5-1.15-1.14-1.18-2.04-.18-5.24-.04-10.48-.06-15.72,0-.59,0-1.18.15-1.76.26-1,1.4-1.89,2.42-1.89,2.9,0,5.8,0,8.7,0Z"/>
        <path class="cls-1" d="m39.76,13.93c-3.87.02-6.85-3.13-6.95-6.69C32.7,3.15,35.91-.01,39.74,0c3.88.01,6.96,3.09,6.99,7.02.03,3.78-3.2,6.96-6.97,6.92Z"/>
      </g>
    </g>
  </g>
</svg>