<?xml version="1.0" encoding="UTF-8"?>
<svg id="Capa_2" data-name="Capa 2" xmlns="http://www.w3.org/2000/svg" viewBox="0 0 63.97 73.06">
  <defs>
    <style>
      .cls-1 {
        fill: #dfc0ff;
      }

      .cls-2 {
        fill: #7025be;
      }

      .cls-3 {
        fill: #b683ec;
      }
    </style>
  </defs>
  <g id="Capa_5" data-name="Capa 5">
    <g id="paste_icon" data-name="paste icon">
      <g>
        <path class="cls-3" d="m47.24,63.93c-8.65,0-17.31.01-25.96,0-2.52,0-4.82-.66-6.69-2.48-1.93-1.88-3.12-4.05-3.12-6.83.01-13.25,0-26.51,0-39.76,0-.28-.01-.55,0-.83.02-.28-.12-.38-.37-.36-1.03.06-2.09,0-3.09.21-2.14.46-3.44,2.28-3.45,4.52-.03,7.57-.01,15.14-.01,22.71h0c0,7.43,0,14.86,0,22.29,0,.51.05,1,.14,1.5.35,1.92,2.71,3.62,4.38,3.61,11.37-.05,22.74-.06,34.11,0,2.15.01,4.3-1.81,4.71-3.75.15-.71.05-.85-.67-.85Z"/>
        <path class="cls-3" d="m50.54,17.36c.57.61,1.28.89,2.14.87,2.07-.04,4.14-.01,6.21-.02.14,0,.33.11.4-.1-3.74-4.46-7.47-8.91-11.2-13.36-.05.02-.1.04-.15.06,0,2.13-.03,4.26,0,6.39.04,2.39.98,4.42,2.59,6.15Z"/>
        <path class="cls-1" d="m58.44,22.78c-2.09-.01-4.19,0-6.28,0-.18,0-.37.01-.55-.01-3.06-.43-5.29-2.13-6.93-4.64-.95-1.45-1.25-3.13-1.27-4.83-.04-2.62-.04-5.25,0-7.87.01-.69-.15-.88-.86-.88-7.04.03-14.09.02-21.13.01-.6,0-1.19.03-1.78.14-1.99.37-3.63,2.56-3.62,4.29.04,7.66.02,15.32.02,22.99s0,15.32,0,22.99c0,.29,0,.58.09.88.62,2.13,2.45,3.54,4.67,3.54,11.23,0,22.47,0,33.7,0,2.87,0,4.91-2.05,4.91-4.94,0-9.76,0-19.51,0-29.27,0-.48,0-.97,0-1.45-.02-1.04.2-.92-.97-.93Zm-33.07,10.49c.52-1.02,1.53-1.34,2.6-1.34,4.99-.01,9.98,0,14.97,0,1.5,0,2.99-.05,4.48,0,1.02.03,2.01.28,2.55,1.29.8,1.51-.32,3.35-2.04,3.35-3.4,0-6.81,0-10.21,0-3.4,0-6.81.02-10.21,0-1.45-.01-3.05-1.54-2.15-3.31Zm24.89,12.75c-.26,1.17-1.05,1.88-2.19,1.89-3.45.02-6.9,0-10.35,0,0,0,0,.02,0,.02-3.36,0-6.72-.04-10.07.02-1.88.03-2.99-1.63-2.33-3.15.46-1.06,1.42-1.43,2.52-1.43,2.62-.01,5.24,0,7.87,0,3.89,0,7.77,0,11.66,0,.58,0,1.14.09,1.66.34.84.41,1.41,1.53,1.24,2.32Z"/>
      </g>
      <g>
        <path class="cls-2" d="m0,40.9C0,33.44-.02,25.99.02,18.53c.02-3.12,1.3-5.67,3.81-7.59,1.45-1.11,3.05-1.67,4.87-1.68.8,0,1.61-.1,2.41-.13.27-.01.35-.11.36-.37.13-2.64,1.39-4.66,3.34-6.4C16.55.8,18.53.02,20.82.02,29.64,0,38.45.02,47.27,0c.49,0,.78.15,1.08.51,2.3,2.65,4.63,5.27,6.93,7.91,2.29,2.62,4.56,5.27,6.85,7.89.33.38.61.82.98,1.13.75.64.85,1.41.85,2.33-.02,11.48-.05,22.96,0,34.44.02,4.65-3.36,8.67-7.48,9.5-1.11.22-2.23.28-3.35.22-.51-.03-.63.13-.66.64-.11,1.94-.94,3.6-2.18,5.06-1.3,1.53-2.91,2.61-4.86,3.18-.57.17-1.16.25-1.76.25-11.51,0-23.02-.01-34.53,0-1.79,0-3.36-.59-4.8-1.56-2.19-1.48-3.66-3.49-4.15-6.12-.12-.63-.18-1.27-.18-1.91-.01-7.52,0-15.05,0-22.57Zm16.02-8.92c0,7.66,0,15.32,0,22.99,0,.29,0,.58.09.88.62,2.13,2.45,3.54,4.67,3.54,11.23,0,22.47,0,33.7,0,2.87,0,4.91-2.05,4.91-4.94,0-9.76,0-19.51,0-29.27,0-.48,0-.97,0-1.45-.02-1.04.2-.92-.97-.93-2.09-.01-4.19,0-6.28,0-.18,0-.37.01-.55-.01-3.06-.43-5.29-2.13-6.93-4.64-.95-1.45-1.25-3.13-1.27-4.83-.04-2.62-.04-5.25,0-7.87.01-.69-.15-.88-.86-.88-7.04.03-14.09.02-21.13.01-.6,0-1.19.03-1.78.14-1.99.37-3.63,2.56-3.62,4.29.04,7.66.02,15.32.02,22.99Zm-11.47,9.15h0c0,7.43,0,14.86,0,22.29,0,.51.05,1,.14,1.5.35,1.92,2.71,3.62,4.38,3.61,11.37-.05,22.74-.06,34.11,0,2.15.01,4.3-1.81,4.71-3.75.15-.71.05-.85-.67-.85-8.65,0-17.31.01-25.96,0-2.52,0-4.82-.66-6.69-2.48-1.93-1.88-3.12-4.05-3.12-6.83.01-13.25,0-26.51,0-39.76,0-.28-.01-.55,0-.83.02-.28-.12-.38-.37-.36-1.03.06-2.09,0-3.09.21-2.14.46-3.44,2.28-3.45,4.52-.03,7.57-.01,15.14-.01,22.71ZM48.08,4.78s-.1.04-.15.06c0,2.13-.03,4.26,0,6.39.04,2.39.98,4.42,2.59,6.15.57.61,1.28.89,2.14.87,2.07-.04,4.14-.01,6.21-.02.14,0,.33.11.4-.1-3.74-4.46-7.47-8.91-11.2-13.36Z"/>
        <path class="cls-2" d="m37.73,36.6c-3.4,0-6.81.02-10.21,0-1.45-.01-3.05-1.54-2.15-3.31.52-1.02,1.53-1.34,2.6-1.34,4.99-.01,9.98,0,14.97,0,1.5,0,2.99-.05,4.48,0,1.02.03,2.01.28,2.55,1.29.8,1.51-.32,3.35-2.04,3.35-3.4,0-6.81,0-10.21,0Z"/>
        <path class="cls-2" d="m37.71,47.95c-3.36,0-6.72-.04-10.07.02-1.88.03-2.99-1.63-2.33-3.15.46-1.06,1.42-1.43,2.52-1.43,2.62-.01,5.24,0,7.87,0,3.89,0,7.77,0,11.66,0,.58,0,1.14.09,1.66.34.84.41,1.41,1.53,1.24,2.32-.26,1.17-1.05,1.88-2.19,1.89-3.45.02-6.9,0-10.35,0,0,0,0,.02,0,.02Z"/>
      </g>
    </g>
  </g>
</svg>