<svg width="55" height="56" viewBox="0 0 55 56" fill="none" xmlns="http://www.w3.org/2000/svg">
<g clip-path="url(#clip0_699_650)">
<path d="M0 12.651C0.214844 7.83902 4.44561 3.26558 9.22176 2.83785C10.7587 2.69801 12.1304 3.05172 13.279 4.11282C16.6504 7.2221 19.3525 10.8249 21.2282 15.0035C22.1454 17.0517 21.6992 18.8202 20.0548 20.3584C19.5756 20.8026 19.0302 21.181 18.5096 21.5758C16.7495 22.9166 16.2951 24.282 17.1131 26.3713C18.5592 30.0482 20.8481 33.1657 24.0542 35.4935C25.93 36.859 28.0041 37.9777 30.1029 38.9894C31.6977 39.7626 32.7471 39.3267 33.8296 37.9283C33.9453 37.7803 34.0527 37.6404 34.1602 37.4924C36.5152 34.342 39.4569 33.577 42.7704 35.6745C45.7617 37.5582 48.6043 39.7051 51.3559 41.926C53.5457 43.6945 53.934 45.7591 52.7607 48.3091C50.9262 52.282 47.8606 54.8484 43.5389 55.8684C41.8945 56.255 40.3989 55.7121 38.9694 55.0952C26.2109 49.584 15.5927 41.4407 7.8418 29.8261C5.16451 25.812 2.90039 21.5594 1.14859 17.0682C0.603215 15.6616 0.371845 14.1316 0 12.6592L0 12.651Z" fill="white"/>
<path d="M54.9835 24.4383C54.9835 24.8084 55.0331 25.5076 54.9752 26.1903C54.8513 27.6052 54.1076 28.3537 52.8764 28.3948C51.5791 28.4359 50.761 27.7121 50.5461 26.2808C50.2983 24.6275 50.2074 22.9495 49.852 21.3208C47.7614 11.6721 42.3986 6.56403 32.648 4.83665C31.6729 4.66391 30.6979 4.52407 29.7228 4.39247C28.128 4.18682 27.4752 3.55345 27.5413 2.22913C27.6074 0.806096 28.4503 0.0164365 29.9707 -1.474e-05C34.3502 -0.0575941 38.4736 0.962382 42.2168 3.2162C49.0918 7.36191 53.4218 13.3008 54.7439 21.2879C54.7769 21.5017 54.8182 21.7156 54.8348 21.9377C54.8843 22.6616 54.9174 23.3936 54.9835 24.4383Z" fill="white"/>
<path d="M47.5962 23.5499C47.5962 23.9118 47.6044 24.282 47.5962 24.6439C47.5548 26.1656 46.8442 26.9388 45.4477 26.9964C44.1091 27.0458 43.4398 26.3384 43.1753 24.8742C42.8365 22.9823 42.4895 21.0822 41.9193 19.2479C41.0352 16.4101 39.0933 14.403 36.3086 13.3583C34.5403 12.7003 32.6893 12.2314 30.8466 11.8119C29.1113 11.4171 28.3511 10.7673 28.4172 9.40183C28.4833 7.98702 29.3097 7.13156 30.7227 7.18914C40.5146 7.55929 47.6623 15.3818 47.5962 23.5581V23.5499Z" fill="white"/>
<path d="M40.5476 23.5828C40.5228 23.7144 40.4732 24.1421 40.3658 24.5616C40.1097 25.5816 39.3908 26.0834 38.3826 26.141C37.3993 26.1903 36.6887 25.705 36.3251 24.8002C36.1268 24.2984 36.0442 23.7473 35.9533 23.2126C35.5732 21.1069 34.4163 19.7167 32.2927 19.1985C31.7969 19.0751 31.2928 18.9682 30.8053 18.8366C29.8219 18.5652 29.2022 17.9647 29.2022 16.9036C29.2022 15.826 29.9294 14.8554 30.9705 14.6909C31.7473 14.5675 32.5819 14.5428 33.3669 14.6744C37.0605 15.2831 40.5889 19.544 40.5641 23.5828H40.5476Z" fill="white"/>
</g>
<defs>
<clipPath id="clip0_699_650">
<rect width="55" height="56" fill="white"/>
</clipPath>
</defs>
</svg>
